G75*
G70*
%OFA0B0*%
%FSLAX24Y24*%
%IPPOS*%
%LPD*%
%AMOC8*
5,1,8,0,0,1.08239X$1,22.5*
%
%ADD10C,0.0060*%
D10*
X005081Y040392D02*
X004831Y040642D01*
X004831Y041142D01*
X005081Y041392D01*
X005581Y041392D01*
X005831Y041142D01*
X006081Y041392D01*
X006581Y041392D01*
X006831Y041142D01*
X006831Y040642D01*
X006581Y040392D01*
X006081Y040392D01*
X005831Y040642D01*
X005831Y041142D01*
X005831Y040642D02*
X005581Y040392D01*
X005081Y040392D01*
X006831Y040642D02*
X007081Y040392D01*
X007581Y040392D01*
X007831Y040642D01*
X008081Y040392D01*
X008581Y040392D01*
X008831Y040642D01*
X009081Y040392D01*
X009581Y040392D01*
X009831Y040642D01*
X009831Y041142D01*
X009581Y041392D01*
X009081Y041392D01*
X008831Y041142D01*
X008581Y041392D01*
X008081Y041392D01*
X007831Y041142D01*
X007581Y041392D01*
X007081Y041392D01*
X006831Y041142D01*
X007831Y041142D02*
X007831Y040642D01*
X008831Y040642D02*
X008831Y041142D01*
X014831Y046392D02*
X015081Y046142D01*
X015581Y046142D01*
X015831Y046392D01*
X016081Y046142D01*
X016581Y046142D01*
X016831Y046392D01*
X017081Y046142D01*
X017581Y046142D01*
X017831Y046392D01*
X018081Y046142D01*
X018581Y046142D01*
X018831Y046392D01*
X019081Y046142D01*
X019581Y046142D01*
X019831Y046392D01*
X019831Y046892D01*
X019581Y047142D01*
X019081Y047142D01*
X018831Y046892D01*
X018581Y047142D01*
X018081Y047142D01*
X017831Y046892D01*
X017831Y046392D01*
X017831Y046892D02*
X017581Y047142D01*
X017081Y047142D01*
X016831Y046892D01*
X016581Y047142D01*
X016081Y047142D01*
X015831Y046892D01*
X015581Y047142D01*
X015081Y047142D01*
X014831Y046892D01*
X014831Y046392D01*
X015831Y046392D02*
X015831Y046892D01*
X016831Y046892D02*
X016831Y046392D01*
X018831Y046392D02*
X018831Y046892D01*
M02*
