G75*
G70*
%OFA0B0*%
%FSLAX24Y24*%
%IPPOS*%
%LPD*%
%AMOC8*
5,1,8,0,0,1.08239X$1,22.5*
%
%ADD10OC8,0.0600*%
%ADD11C,0.0560*%
%ADD12C,0.0560*%
%ADD13OC8,0.0560*%
%ADD14OC8,0.1240*%
%ADD15C,0.0780*%
%ADD16C,0.0555*%
%ADD17OC8,0.0640*%
%ADD18R,0.0560X0.0560*%
%ADD19C,0.0700*%
%ADD20C,0.0640*%
%ADD21C,0.0100*%
%ADD22C,0.0317*%
%ADD23C,0.0160*%
D10*
X007081Y016392D03*
X007081Y017392D03*
X007081Y018392D03*
X008081Y018392D03*
X008081Y017392D03*
X008081Y016392D03*
D11*
X007631Y028892D03*
X009531Y028892D03*
D12*
X009331Y027672D02*
X009331Y027112D01*
X008331Y027112D02*
X008331Y027672D01*
X007331Y027672D02*
X007331Y027112D01*
X006331Y027112D02*
X006331Y027672D01*
X005331Y027672D02*
X005331Y027112D01*
X004331Y027112D02*
X004331Y027672D01*
X003331Y027672D02*
X003331Y027112D01*
X003331Y024672D02*
X003331Y024112D01*
X004331Y024112D02*
X004331Y024672D01*
X005331Y024672D02*
X005331Y024112D01*
X006331Y024112D02*
X006331Y024672D01*
X007331Y024672D02*
X007331Y024112D01*
X008331Y024112D02*
X008331Y024672D01*
X009331Y024672D02*
X009331Y024112D01*
X010331Y024112D02*
X010331Y024672D01*
X011331Y024672D02*
X011331Y024112D01*
X012331Y024112D02*
X012331Y024672D01*
X013331Y024672D02*
X013331Y024112D01*
X014331Y024112D02*
X014331Y024672D01*
X015331Y024672D02*
X015331Y024112D01*
X016331Y024112D02*
X016331Y024672D01*
X016331Y027112D02*
X016331Y027672D01*
X015331Y027672D02*
X015331Y027112D01*
X014331Y027112D02*
X014331Y027672D01*
X013331Y027672D02*
X013331Y027112D01*
X012331Y027112D02*
X012331Y027672D01*
X011331Y027672D02*
X011331Y027112D01*
X010331Y027112D02*
X010331Y027672D01*
X008861Y033892D02*
X008301Y033892D01*
X006831Y030922D02*
X006831Y030362D01*
X005831Y030362D02*
X005831Y030922D01*
X004831Y030922D02*
X004831Y030362D01*
X004861Y033892D02*
X004301Y033892D01*
X009581Y037112D02*
X009581Y037672D01*
X010581Y037672D02*
X010581Y037112D01*
X011581Y037112D02*
X011581Y037672D01*
X013581Y037672D02*
X013581Y037112D01*
X014581Y037112D02*
X014581Y037672D01*
X021551Y027142D02*
X022111Y027142D01*
X022111Y026142D02*
X021551Y026142D01*
X021551Y025142D02*
X022111Y025142D01*
X014331Y017922D02*
X014331Y017362D01*
X013831Y016422D02*
X013831Y015862D01*
X013331Y017362D02*
X013331Y017922D01*
X012831Y018362D02*
X012831Y018922D01*
X012331Y017922D02*
X012331Y017362D01*
X011831Y016422D02*
X011831Y015862D01*
X011331Y017362D02*
X011331Y017922D01*
X011831Y018362D02*
X011831Y018922D01*
X010831Y016422D02*
X010831Y015862D01*
X010331Y017362D02*
X010331Y017922D01*
X012831Y016422D02*
X012831Y015862D01*
D13*
X017831Y024892D03*
X018331Y024142D03*
X018831Y024892D03*
X004331Y020392D03*
X004331Y019392D03*
D14*
X004581Y016642D03*
X002581Y016642D03*
D15*
X017581Y033646D02*
X017581Y034426D01*
X019581Y034426D02*
X019581Y033646D01*
X018971Y038036D02*
X018191Y038036D01*
D16*
X018554Y020642D02*
X019109Y020642D01*
X019109Y018642D02*
X018554Y018642D01*
X018554Y017642D02*
X019109Y017642D01*
X019109Y016642D02*
X018554Y016642D01*
X020554Y016642D02*
X021109Y016642D01*
X021109Y017642D02*
X020554Y017642D01*
X020554Y018642D02*
X021109Y018642D01*
X021109Y020642D02*
X020554Y020642D01*
D17*
X017331Y019142D03*
X017331Y018142D03*
X017331Y017142D03*
X017331Y016142D03*
X017331Y015142D03*
X016331Y015142D03*
X016331Y016142D03*
X016331Y017142D03*
X016331Y018142D03*
X016331Y019142D03*
D18*
X020831Y021642D03*
X021831Y021642D03*
X021831Y032642D03*
X020831Y032642D03*
X019831Y032642D03*
X018831Y032642D03*
X017831Y032642D03*
X016831Y032642D03*
X015831Y032642D03*
X014831Y032642D03*
X013831Y032642D03*
X012831Y032642D03*
X011831Y032642D03*
X010831Y032642D03*
X009831Y032642D03*
X008831Y032642D03*
X007831Y032642D03*
X006831Y032642D03*
X005831Y032642D03*
X004831Y032642D03*
X003831Y032642D03*
X002831Y032642D03*
X002831Y021642D03*
X003831Y021642D03*
D19*
X005481Y035248D02*
X006181Y035248D01*
X006181Y037611D02*
X005481Y037611D01*
X003902Y036760D02*
X003902Y036060D01*
D20*
X005331Y040572D02*
X005331Y041212D01*
X006331Y041212D02*
X006331Y040572D01*
X007331Y040572D02*
X007331Y041212D01*
X008331Y041212D02*
X008331Y040572D01*
X009331Y040572D02*
X009331Y041212D01*
X008901Y036142D02*
X008261Y036142D01*
X008261Y035142D02*
X008901Y035142D01*
X015331Y046322D02*
X015331Y046962D01*
X016331Y046962D02*
X016331Y046322D01*
X017331Y046322D02*
X017331Y046962D01*
X018331Y046962D02*
X018331Y046322D01*
X019331Y046322D02*
X019331Y046962D01*
X021581Y038712D02*
X021581Y038072D01*
X021581Y036712D02*
X021581Y036072D01*
X022581Y037072D02*
X022581Y037712D01*
D21*
X001481Y039370D02*
X001481Y013292D01*
X004812Y013292D01*
X005600Y014080D01*
X010718Y014080D01*
X011505Y014867D01*
X013204Y014867D01*
X013292Y014779D01*
X013992Y014080D01*
X019110Y014080D01*
X019198Y013992D01*
X019897Y013292D01*
X023228Y013292D01*
X023228Y039370D01*
X001481Y039370D01*
X001481Y039343D02*
X023228Y039343D01*
X023228Y039245D02*
X001481Y039245D01*
X001481Y039146D02*
X003242Y039146D01*
X003278Y039161D02*
X003179Y039120D01*
X003103Y039044D01*
X003062Y038946D01*
X003062Y038839D01*
X003103Y038740D01*
X003179Y038664D01*
X003278Y038623D01*
X003385Y038623D01*
X003483Y038664D01*
X003521Y038702D01*
X004641Y038702D01*
X004641Y034813D01*
X004752Y034702D01*
X005141Y034313D01*
X005141Y034164D01*
X005082Y034223D01*
X004939Y034282D01*
X004224Y034282D01*
X004080Y034223D01*
X004021Y034164D01*
X004021Y035611D01*
X004163Y035670D01*
X004292Y035799D01*
X004362Y035968D01*
X004362Y036851D01*
X004292Y037020D01*
X004163Y037150D01*
X003993Y037220D01*
X003810Y037220D01*
X003641Y037150D01*
X003512Y037020D01*
X003442Y036851D01*
X003442Y035968D01*
X003512Y035799D01*
X003641Y035670D01*
X003641Y033721D01*
X003252Y033332D01*
X002252Y033332D01*
X002141Y033221D01*
X001641Y032721D01*
X001641Y017313D01*
X001752Y017202D01*
X001931Y017024D01*
X001851Y016945D01*
X001851Y016340D01*
X002279Y015912D01*
X002883Y015912D01*
X003311Y016340D01*
X003311Y016945D01*
X002883Y017372D01*
X002279Y017372D01*
X002199Y017293D01*
X002021Y017471D01*
X002021Y032563D01*
X002410Y032952D01*
X002441Y032952D01*
X002441Y032387D01*
X002385Y032411D01*
X002278Y032411D01*
X002179Y032370D01*
X002103Y032294D01*
X002062Y032196D01*
X002062Y032089D01*
X002103Y031990D01*
X002171Y031922D01*
X002171Y021326D01*
X003942Y019555D01*
X003941Y019554D01*
X003941Y019231D01*
X004170Y019002D01*
X004493Y019002D01*
X004721Y019231D01*
X004721Y019554D01*
X004493Y019782D01*
X004170Y019782D01*
X004168Y019781D01*
X002697Y021252D01*
X003157Y021252D01*
X003221Y021317D01*
X003221Y021968D01*
X003157Y022032D01*
X002991Y022032D01*
X002991Y023914D01*
X003000Y023891D01*
X003110Y023781D01*
X003254Y023722D01*
X003409Y023722D01*
X003552Y023781D01*
X003662Y023891D01*
X003721Y024035D01*
X003721Y024750D01*
X003662Y024893D01*
X003552Y025003D01*
X003409Y025062D01*
X003254Y025062D01*
X003110Y025003D01*
X003000Y024893D01*
X002991Y024870D01*
X002991Y026914D01*
X003000Y026891D01*
X003110Y026781D01*
X003254Y026722D01*
X003409Y026722D01*
X003552Y026781D01*
X003662Y026891D01*
X003721Y027035D01*
X003721Y027750D01*
X003703Y027794D01*
X003941Y027556D01*
X003941Y027035D01*
X004000Y026891D01*
X004110Y026781D01*
X004254Y026722D01*
X004409Y026722D01*
X004552Y026781D01*
X004662Y026891D01*
X004721Y027035D01*
X004721Y027750D01*
X004662Y027893D01*
X004552Y028003D01*
X004409Y028062D01*
X004254Y028062D01*
X004110Y028003D01*
X004028Y027921D01*
X003491Y028458D01*
X003491Y031826D01*
X003897Y032232D01*
X003917Y032252D01*
X004157Y032252D01*
X004221Y032317D01*
X004221Y032968D01*
X004157Y033032D01*
X003506Y033032D01*
X003441Y032968D01*
X003441Y032317D01*
X003485Y032272D01*
X003171Y031958D01*
X003171Y028326D01*
X003453Y028044D01*
X003409Y028062D01*
X003254Y028062D01*
X003110Y028003D01*
X003000Y027893D01*
X002991Y027870D01*
X002991Y028422D01*
X003059Y028490D01*
X003100Y028589D01*
X003100Y028696D01*
X003059Y028794D01*
X002983Y028870D01*
X002885Y028911D01*
X002778Y028911D01*
X002679Y028870D01*
X002603Y028794D01*
X002562Y028696D01*
X002562Y028589D01*
X002603Y028490D01*
X002671Y028422D01*
X002671Y022032D01*
X002506Y022032D01*
X002491Y022018D01*
X002491Y031922D01*
X002559Y031990D01*
X002600Y032089D01*
X002600Y032196D01*
X002576Y032252D01*
X003157Y032252D01*
X003221Y032317D01*
X003221Y032952D01*
X003410Y032952D01*
X003910Y033452D01*
X004021Y033563D01*
X004021Y033621D01*
X004080Y033561D01*
X004224Y033502D01*
X004939Y033502D01*
X005082Y033561D01*
X005141Y033621D01*
X005141Y033069D01*
X005131Y033072D01*
X004861Y033072D01*
X004861Y032672D01*
X004801Y032672D01*
X004801Y032612D01*
X004861Y032612D01*
X004861Y032212D01*
X005131Y032212D01*
X005141Y032215D01*
X005141Y031220D01*
X005111Y031250D01*
X005056Y031290D01*
X004996Y031321D01*
X004932Y031342D01*
X004865Y031352D01*
X004861Y031352D01*
X004861Y030672D01*
X005261Y030672D01*
X005261Y030943D01*
X005441Y030763D01*
X005441Y030285D01*
X005500Y030141D01*
X005610Y030031D01*
X005754Y029972D01*
X005909Y029972D01*
X006052Y030031D01*
X006162Y030141D01*
X006171Y030164D01*
X006171Y028028D01*
X006110Y028003D01*
X006000Y027893D01*
X005941Y027750D01*
X005941Y027035D01*
X006000Y026891D01*
X006110Y026781D01*
X006254Y026722D01*
X006409Y026722D01*
X006552Y026781D01*
X006662Y026891D01*
X006721Y027035D01*
X006721Y027750D01*
X006662Y027893D01*
X006552Y028003D01*
X006491Y028028D01*
X006491Y030164D01*
X006500Y030141D01*
X006610Y030031D01*
X006754Y029972D01*
X006909Y029972D01*
X007052Y030031D01*
X007162Y030141D01*
X007221Y030285D01*
X007221Y031000D01*
X007162Y031143D01*
X007052Y031253D01*
X006909Y031312D01*
X006754Y031312D01*
X006610Y031253D01*
X006500Y031143D01*
X006491Y031120D01*
X006491Y032076D01*
X006667Y032252D01*
X007157Y032252D01*
X007221Y032317D01*
X007221Y032968D01*
X007157Y033032D01*
X006506Y033032D01*
X006441Y032968D01*
X006441Y032478D01*
X006265Y032302D01*
X006171Y032208D01*
X006171Y031120D01*
X006162Y031143D01*
X006052Y031253D01*
X005909Y031312D01*
X005754Y031312D01*
X005610Y031253D01*
X005550Y031192D01*
X005521Y031221D01*
X005521Y032215D01*
X005531Y032212D01*
X005801Y032212D01*
X005801Y032612D01*
X005861Y032612D01*
X005861Y032212D01*
X006131Y032212D01*
X006169Y032222D01*
X006203Y032242D01*
X006231Y032270D01*
X006251Y032304D01*
X006261Y032342D01*
X006261Y032612D01*
X005861Y032612D01*
X005861Y032672D01*
X006261Y032672D01*
X006261Y032942D01*
X006251Y032980D01*
X006231Y033014D01*
X006203Y033042D01*
X006169Y033062D01*
X006131Y033072D01*
X005861Y033072D01*
X005861Y032672D01*
X005801Y032672D01*
X005801Y033072D01*
X005531Y033072D01*
X005521Y033069D01*
X005521Y034471D01*
X005021Y034971D01*
X005021Y035050D01*
X005053Y034986D01*
X005100Y034923D01*
X005155Y034867D01*
X005219Y034821D01*
X005289Y034785D01*
X005364Y034761D01*
X005442Y034748D01*
X005801Y034748D01*
X005801Y035218D01*
X005861Y035218D01*
X005861Y034748D01*
X006220Y034748D01*
X006298Y034761D01*
X006373Y034785D01*
X006443Y034821D01*
X006507Y034867D01*
X006562Y034923D01*
X006609Y034986D01*
X006644Y035056D01*
X006645Y035059D01*
X007891Y033813D01*
X007926Y033778D01*
X007970Y033671D01*
X008080Y033561D01*
X008224Y033502D01*
X008939Y033502D01*
X009082Y033561D01*
X009192Y033671D01*
X009251Y033815D01*
X009251Y033970D01*
X009192Y034113D01*
X009082Y034223D01*
X008939Y034282D01*
X008224Y034282D01*
X008080Y034223D01*
X008050Y034192D01*
X007021Y035221D01*
X007021Y036689D01*
X006466Y037245D01*
X006571Y037350D01*
X006641Y037519D01*
X006641Y037702D01*
X006571Y037871D01*
X006442Y038001D01*
X006273Y038071D01*
X005390Y038071D01*
X005221Y038001D01*
X005091Y037871D01*
X005021Y037702D01*
X005021Y037519D01*
X005091Y037350D01*
X005221Y037221D01*
X005390Y037151D01*
X006022Y037151D01*
X006641Y036532D01*
X006641Y035447D01*
X006609Y035510D01*
X006562Y035574D01*
X006507Y035630D01*
X006443Y035676D01*
X006373Y035712D01*
X006298Y035736D01*
X006220Y035748D01*
X005861Y035748D01*
X005861Y035278D01*
X005801Y035278D01*
X005801Y035748D01*
X005442Y035748D01*
X005364Y035736D01*
X005289Y035712D01*
X005219Y035676D01*
X005155Y035630D01*
X005100Y035574D01*
X005053Y035510D01*
X005021Y035447D01*
X005021Y038702D01*
X015752Y038702D01*
X018141Y036313D01*
X018141Y033032D01*
X017506Y033032D01*
X017491Y033018D01*
X017491Y033146D01*
X017681Y033146D01*
X017864Y033222D01*
X018005Y033363D01*
X018081Y033546D01*
X018081Y034525D01*
X018005Y034709D01*
X017864Y034850D01*
X017681Y034926D01*
X017482Y034926D01*
X017298Y034850D01*
X017157Y034709D01*
X017081Y034525D01*
X017081Y033546D01*
X017157Y033363D01*
X017171Y033349D01*
X017171Y033018D01*
X017157Y033032D01*
X016667Y033032D01*
X016241Y033458D01*
X016241Y033458D01*
X016147Y033552D01*
X011515Y033552D01*
X011421Y033458D01*
X010995Y033032D01*
X010506Y033032D01*
X010441Y032968D01*
X010441Y032317D01*
X010506Y032252D01*
X011157Y032252D01*
X011221Y032317D01*
X011221Y032806D01*
X011647Y033232D01*
X016015Y033232D01*
X016441Y032806D01*
X016441Y032317D01*
X016506Y032252D01*
X017157Y032252D01*
X017171Y032267D01*
X017171Y030076D01*
X017265Y029982D01*
X017312Y029935D01*
X017312Y029839D01*
X017353Y029740D01*
X017429Y029664D01*
X017528Y029623D01*
X017635Y029623D01*
X017733Y029664D01*
X017809Y029740D01*
X017850Y029839D01*
X017850Y029946D01*
X017809Y030044D01*
X017733Y030120D01*
X017635Y030161D01*
X017539Y030161D01*
X017491Y030208D01*
X017491Y032267D01*
X017506Y032252D01*
X018141Y032252D01*
X018141Y028428D01*
X016703Y026990D01*
X016721Y027035D01*
X016721Y027750D01*
X016662Y027893D01*
X016552Y028003D01*
X016409Y028062D01*
X016254Y028062D01*
X016110Y028003D01*
X016000Y027893D01*
X015941Y027750D01*
X015941Y027035D01*
X016000Y026891D01*
X016052Y026839D01*
X015265Y026052D01*
X009765Y026052D01*
X008671Y024958D01*
X008671Y024870D01*
X008662Y024893D01*
X008552Y025003D01*
X008409Y025062D01*
X008254Y025062D01*
X008110Y025003D01*
X008000Y024893D01*
X007941Y024750D01*
X007941Y024228D01*
X007921Y024208D01*
X007921Y018802D01*
X007911Y018802D01*
X007741Y018632D01*
X007741Y024208D01*
X007721Y024228D01*
X007721Y024750D01*
X007662Y024893D01*
X007552Y025003D01*
X007409Y025062D01*
X007254Y025062D01*
X007110Y025003D01*
X007000Y024893D01*
X006941Y024750D01*
X006941Y024035D01*
X006960Y023990D01*
X006721Y024228D01*
X006721Y024750D01*
X006662Y024893D01*
X006552Y025003D01*
X006409Y025062D01*
X006254Y025062D01*
X006110Y025003D01*
X006000Y024893D01*
X005941Y024750D01*
X005941Y024035D01*
X005960Y023990D01*
X005721Y024228D01*
X005721Y024750D01*
X005662Y024893D01*
X005552Y025003D01*
X005409Y025062D01*
X005254Y025062D01*
X005110Y025003D01*
X005000Y024893D01*
X004941Y024750D01*
X004941Y024035D01*
X005000Y023891D01*
X005110Y023781D01*
X005254Y023722D01*
X005409Y023722D01*
X005552Y023781D01*
X005634Y023863D01*
X006171Y023326D01*
X006171Y017326D01*
X006265Y017232D01*
X006765Y016732D01*
X006841Y016732D01*
X006671Y016562D01*
X006671Y016222D01*
X006911Y015982D01*
X007251Y015982D01*
X007258Y015989D01*
X007421Y015826D01*
X007515Y015732D01*
X008397Y015732D01*
X008897Y016232D01*
X008991Y016326D01*
X008991Y023914D01*
X009000Y023891D01*
X009110Y023781D01*
X009254Y023722D01*
X009409Y023722D01*
X009552Y023781D01*
X009662Y023891D01*
X009721Y024035D01*
X009721Y024750D01*
X009662Y024893D01*
X009552Y025003D01*
X009409Y025062D01*
X009254Y025062D01*
X009209Y025044D01*
X009897Y025732D01*
X015397Y025732D01*
X016387Y026722D01*
X016409Y026722D01*
X016552Y026781D01*
X016662Y026891D01*
X016671Y026914D01*
X016671Y025612D01*
X016603Y025544D01*
X016562Y025446D01*
X016562Y025339D01*
X016603Y025240D01*
X016679Y025164D01*
X016778Y025123D01*
X016885Y025123D01*
X016983Y025164D01*
X017059Y025240D01*
X017100Y025339D01*
X017100Y025446D01*
X017059Y025544D01*
X016991Y025612D01*
X016991Y026826D01*
X018310Y028145D01*
X020391Y026063D01*
X020502Y025952D01*
X021208Y025952D01*
X021220Y025921D01*
X021330Y025811D01*
X021474Y025752D01*
X022189Y025752D01*
X022332Y025811D01*
X022391Y025871D01*
X022391Y025470D01*
X022336Y025510D01*
X022276Y025541D01*
X022212Y025562D01*
X022145Y025572D01*
X021861Y025572D01*
X021861Y025172D01*
X021801Y025172D01*
X021801Y025112D01*
X021861Y025112D01*
X021861Y024712D01*
X022145Y024712D01*
X022212Y024723D01*
X022276Y024744D01*
X022336Y024774D01*
X022391Y024814D01*
X022391Y024721D01*
X019752Y022082D01*
X015021Y022082D01*
X014983Y022120D01*
X014885Y022161D01*
X014778Y022161D01*
X014679Y022120D01*
X014603Y022044D01*
X014562Y021946D01*
X014562Y021839D01*
X014603Y021740D01*
X014679Y021664D01*
X014778Y021623D01*
X014885Y021623D01*
X014983Y021664D01*
X015021Y021702D01*
X019641Y021702D01*
X019641Y016721D01*
X019496Y016576D01*
X019496Y016719D01*
X019437Y016862D01*
X019328Y016971D01*
X019186Y017030D01*
X018477Y017030D01*
X018334Y016971D01*
X018225Y016862D01*
X018166Y016719D01*
X018166Y016565D01*
X018225Y016423D01*
X018316Y016332D01*
X017749Y016332D01*
X017509Y016572D01*
X017153Y016572D01*
X016913Y016332D01*
X016749Y016332D01*
X016509Y016572D01*
X016153Y016572D01*
X015901Y016320D01*
X015901Y015964D01*
X016153Y015712D01*
X016509Y015712D01*
X016749Y015952D01*
X016913Y015952D01*
X017153Y015712D01*
X017509Y015712D01*
X017749Y015952D01*
X019410Y015952D01*
X019521Y016063D01*
X019910Y016452D01*
X020021Y016563D01*
X020021Y021813D01*
X022771Y024563D01*
X022771Y032952D01*
X022809Y032990D01*
X022850Y033089D01*
X022850Y033196D01*
X022809Y033294D01*
X022733Y033370D01*
X022635Y033411D01*
X022528Y033411D01*
X022429Y033370D01*
X022353Y033294D01*
X022312Y033196D01*
X022312Y033089D01*
X022353Y032990D01*
X022391Y032952D01*
X022391Y027414D01*
X022332Y027473D01*
X022189Y027532D01*
X021474Y027532D01*
X021330Y027473D01*
X021220Y027363D01*
X021161Y027220D01*
X021161Y027065D01*
X021220Y026921D01*
X021330Y026811D01*
X021474Y026752D01*
X022189Y026752D01*
X022332Y026811D01*
X022391Y026871D01*
X022391Y026414D01*
X022332Y026473D01*
X022189Y026532D01*
X021474Y026532D01*
X021330Y026473D01*
X021220Y026363D01*
X021208Y026332D01*
X020660Y026332D01*
X018521Y028471D01*
X018521Y032252D01*
X019157Y032252D01*
X019221Y032317D01*
X019221Y032968D01*
X019157Y033032D01*
X018521Y033032D01*
X018521Y036471D01*
X016021Y038971D01*
X015910Y039082D01*
X003521Y039082D01*
X003483Y039120D01*
X003385Y039161D01*
X003278Y039161D01*
X003420Y039146D02*
X023228Y039146D01*
X023228Y039048D02*
X021854Y039048D01*
X021825Y039077D02*
X021667Y039142D01*
X021496Y039142D01*
X021338Y039077D01*
X021217Y038956D01*
X021151Y038798D01*
X021151Y038188D01*
X020765Y037802D01*
X020671Y037708D01*
X020671Y033826D01*
X021171Y033326D01*
X021171Y033018D01*
X021157Y033032D01*
X020506Y033032D01*
X020491Y033018D01*
X020491Y036352D01*
X019238Y037605D01*
X019254Y037612D01*
X019395Y037753D01*
X019471Y037936D01*
X019471Y038135D01*
X019395Y038319D01*
X019254Y038460D01*
X019071Y038536D01*
X018092Y038536D01*
X017908Y038460D01*
X017767Y038319D01*
X017691Y038135D01*
X017691Y037936D01*
X017767Y037753D01*
X017908Y037612D01*
X018092Y037536D01*
X018855Y037536D01*
X020171Y036220D01*
X020171Y033018D01*
X020157Y033032D01*
X019506Y033032D01*
X019441Y032968D01*
X019441Y032317D01*
X019506Y032252D01*
X020157Y032252D01*
X020171Y032267D01*
X020171Y032126D01*
X020265Y032032D01*
X020921Y031376D01*
X020921Y029662D01*
X020853Y029594D01*
X020812Y029496D01*
X020812Y029389D01*
X020853Y029290D01*
X020929Y029214D01*
X021028Y029173D01*
X021135Y029173D01*
X021233Y029214D01*
X021309Y029290D01*
X021350Y029389D01*
X021350Y029496D01*
X021309Y029594D01*
X021241Y029662D01*
X021241Y031508D01*
X020491Y032258D01*
X020491Y032267D01*
X020506Y032252D01*
X021086Y032252D01*
X021062Y032196D01*
X021062Y032089D01*
X021103Y031990D01*
X021179Y031914D01*
X021278Y031873D01*
X021385Y031873D01*
X021483Y031914D01*
X021559Y031990D01*
X021600Y032089D01*
X021600Y032196D01*
X021576Y032252D01*
X022157Y032252D01*
X022221Y032317D01*
X022221Y032968D01*
X022157Y033032D01*
X021506Y033032D01*
X021491Y033018D01*
X021491Y033458D01*
X021397Y033552D01*
X020991Y033958D01*
X020991Y037576D01*
X021230Y037815D01*
X021338Y037708D01*
X021496Y037642D01*
X021667Y037642D01*
X021825Y037708D01*
X021946Y037829D01*
X022011Y037987D01*
X022011Y038798D01*
X021946Y038956D01*
X021825Y039077D01*
X021948Y038949D02*
X023228Y038949D01*
X023228Y038851D02*
X021989Y038851D01*
X022011Y038752D02*
X023228Y038752D01*
X023228Y038654D02*
X022011Y038654D01*
X022011Y038555D02*
X023228Y038555D01*
X023228Y038457D02*
X022011Y038457D01*
X022011Y038358D02*
X023228Y038358D01*
X023228Y038260D02*
X022011Y038260D01*
X022011Y038161D02*
X022442Y038161D01*
X022471Y038171D02*
X022401Y038148D01*
X022335Y038114D01*
X022275Y038071D01*
X022223Y038018D01*
X022179Y037958D01*
X022146Y037893D01*
X022123Y037822D01*
X022111Y037749D01*
X022111Y037442D01*
X022531Y037442D01*
X022531Y037342D01*
X022631Y037342D01*
X022631Y036604D01*
X022691Y036614D01*
X022762Y036637D01*
X022827Y036670D01*
X022887Y036714D01*
X022940Y036766D01*
X022983Y036826D01*
X023017Y036892D01*
X023040Y036962D01*
X023051Y037035D01*
X023051Y037342D01*
X022631Y037342D01*
X022631Y037442D01*
X023051Y037442D01*
X023051Y037749D01*
X023040Y037822D01*
X023017Y037893D01*
X022983Y037958D01*
X022940Y038018D01*
X022887Y038071D01*
X022827Y038114D01*
X022762Y038148D01*
X022691Y038171D01*
X022631Y038180D01*
X022631Y037442D01*
X022531Y037442D01*
X022531Y038180D01*
X022471Y038171D01*
X022531Y038161D02*
X022631Y038161D01*
X022720Y038161D02*
X023228Y038161D01*
X023228Y038063D02*
X022895Y038063D01*
X022979Y037964D02*
X023228Y037964D01*
X023228Y037866D02*
X023025Y037866D01*
X023048Y037767D02*
X023228Y037767D01*
X023228Y037669D02*
X023051Y037669D01*
X023051Y037570D02*
X023228Y037570D01*
X023228Y037472D02*
X023051Y037472D01*
X023051Y037275D02*
X023228Y037275D01*
X023228Y037373D02*
X022631Y037373D01*
X022631Y037275D02*
X022531Y037275D01*
X022531Y037342D02*
X022531Y036604D01*
X022471Y036614D01*
X022401Y036637D01*
X022335Y036670D01*
X022275Y036714D01*
X022223Y036766D01*
X022179Y036826D01*
X022146Y036892D01*
X022123Y036962D01*
X022111Y037035D01*
X022111Y037342D01*
X022531Y037342D01*
X022531Y037373D02*
X020991Y037373D01*
X020991Y037275D02*
X022111Y037275D01*
X022111Y037176D02*
X021656Y037176D01*
X021631Y037176D02*
X021531Y037176D01*
X021531Y037180D02*
X021471Y037171D01*
X021401Y037148D01*
X021335Y037114D01*
X021275Y037071D01*
X021223Y037018D01*
X021179Y036958D01*
X021146Y036893D01*
X021123Y036822D01*
X021111Y036749D01*
X021111Y036442D01*
X021531Y036442D01*
X021531Y036342D01*
X021631Y036342D01*
X021631Y035604D01*
X021691Y035614D01*
X021762Y035637D01*
X021827Y035670D01*
X021887Y035714D01*
X021940Y035766D01*
X021983Y035826D01*
X022017Y035892D01*
X022040Y035962D01*
X022051Y036035D01*
X022051Y036342D01*
X021631Y036342D01*
X021631Y036442D01*
X022051Y036442D01*
X022051Y036749D01*
X022040Y036822D01*
X022017Y036893D01*
X021983Y036958D01*
X021940Y037018D01*
X021887Y037071D01*
X021827Y037114D01*
X021762Y037148D01*
X021691Y037171D01*
X021631Y037180D01*
X021631Y036442D01*
X021531Y036442D01*
X021531Y037180D01*
X021507Y037176D02*
X020991Y037176D01*
X020991Y037078D02*
X021285Y037078D01*
X021194Y036979D02*
X020991Y036979D01*
X020991Y036881D02*
X021142Y036881D01*
X021116Y036782D02*
X020991Y036782D01*
X020991Y036684D02*
X021111Y036684D01*
X021111Y036585D02*
X020991Y036585D01*
X020991Y036487D02*
X021111Y036487D01*
X021111Y036342D02*
X021111Y036035D01*
X021123Y035962D01*
X021146Y035892D01*
X021179Y035826D01*
X021223Y035766D01*
X021275Y035714D01*
X021335Y035670D01*
X021401Y035637D01*
X021471Y035614D01*
X021531Y035604D01*
X021531Y036342D01*
X021111Y036342D01*
X021111Y036290D02*
X020991Y036290D01*
X020991Y036388D02*
X021531Y036388D01*
X021531Y036290D02*
X021631Y036290D01*
X021631Y036388D02*
X023228Y036388D01*
X023228Y036290D02*
X022051Y036290D01*
X022051Y036191D02*
X023228Y036191D01*
X023228Y036093D02*
X022051Y036093D01*
X022045Y035994D02*
X023228Y035994D01*
X023228Y035896D02*
X022018Y035896D01*
X021962Y035797D02*
X023228Y035797D01*
X023228Y035699D02*
X021867Y035699D01*
X021631Y035699D02*
X021531Y035699D01*
X021531Y035797D02*
X021631Y035797D01*
X021631Y035896D02*
X021531Y035896D01*
X021531Y035994D02*
X021631Y035994D01*
X021631Y036093D02*
X021531Y036093D01*
X021531Y036191D02*
X021631Y036191D01*
X021631Y036487D02*
X021531Y036487D01*
X021531Y036585D02*
X021631Y036585D01*
X021631Y036684D02*
X021531Y036684D01*
X021531Y036782D02*
X021631Y036782D01*
X021631Y036881D02*
X021531Y036881D01*
X021531Y036979D02*
X021631Y036979D01*
X021631Y037078D02*
X021531Y037078D01*
X021878Y037078D02*
X022111Y037078D01*
X022120Y036979D02*
X021968Y036979D01*
X022021Y036881D02*
X022151Y036881D01*
X022211Y036782D02*
X022046Y036782D01*
X022051Y036684D02*
X022316Y036684D01*
X022531Y036684D02*
X022631Y036684D01*
X022631Y036782D02*
X022531Y036782D01*
X022531Y036881D02*
X022631Y036881D01*
X022631Y036979D02*
X022531Y036979D01*
X022531Y037078D02*
X022631Y037078D01*
X022631Y037176D02*
X022531Y037176D01*
X022531Y037472D02*
X022631Y037472D01*
X022631Y037570D02*
X022531Y037570D01*
X022531Y037669D02*
X022631Y037669D01*
X022631Y037767D02*
X022531Y037767D01*
X022531Y037866D02*
X022631Y037866D01*
X022631Y037964D02*
X022531Y037964D01*
X022531Y038063D02*
X022631Y038063D01*
X022267Y038063D02*
X022011Y038063D01*
X022002Y037964D02*
X022183Y037964D01*
X022137Y037866D02*
X021961Y037866D01*
X021884Y037767D02*
X022114Y037767D01*
X022111Y037669D02*
X021731Y037669D01*
X022111Y037570D02*
X020991Y037570D01*
X020991Y037472D02*
X022111Y037472D01*
X022051Y036585D02*
X023228Y036585D01*
X023228Y036487D02*
X022051Y036487D01*
X022846Y036684D02*
X023228Y036684D01*
X023228Y036782D02*
X022951Y036782D01*
X023011Y036881D02*
X023228Y036881D01*
X023228Y036979D02*
X023042Y036979D01*
X023051Y037078D02*
X023228Y037078D01*
X023228Y037176D02*
X023051Y037176D01*
X023228Y035600D02*
X020991Y035600D01*
X020991Y035502D02*
X023228Y035502D01*
X023228Y035403D02*
X020991Y035403D01*
X020991Y035305D02*
X023228Y035305D01*
X023228Y035206D02*
X020991Y035206D01*
X020991Y035108D02*
X023228Y035108D01*
X023228Y035009D02*
X020991Y035009D01*
X020991Y034911D02*
X022005Y034911D01*
X022089Y034946D02*
X021889Y034863D01*
X021736Y034710D01*
X021654Y034510D01*
X021654Y034294D01*
X021736Y034094D01*
X021889Y033941D01*
X022089Y033858D01*
X022305Y033858D01*
X022505Y033941D01*
X022658Y034094D01*
X022741Y034294D01*
X022741Y034510D01*
X022658Y034710D01*
X022505Y034863D01*
X022305Y034946D01*
X022089Y034946D01*
X021839Y034812D02*
X020991Y034812D01*
X020991Y034714D02*
X021740Y034714D01*
X021697Y034615D02*
X020991Y034615D01*
X020991Y034517D02*
X021656Y034517D01*
X021654Y034418D02*
X020991Y034418D01*
X020991Y034320D02*
X021654Y034320D01*
X021684Y034221D02*
X020991Y034221D01*
X020991Y034123D02*
X021724Y034123D01*
X021806Y034024D02*
X020991Y034024D01*
X021024Y033926D02*
X021926Y033926D01*
X021491Y033433D02*
X023228Y033433D01*
X023228Y033335D02*
X022769Y033335D01*
X022833Y033236D02*
X023228Y033236D01*
X023228Y033138D02*
X022850Y033138D01*
X022829Y033039D02*
X023228Y033039D01*
X023228Y032941D02*
X022771Y032941D01*
X022771Y032842D02*
X023228Y032842D01*
X023228Y032744D02*
X022771Y032744D01*
X022771Y032645D02*
X023228Y032645D01*
X023228Y032547D02*
X022771Y032547D01*
X022771Y032448D02*
X023228Y032448D01*
X023228Y032350D02*
X022771Y032350D01*
X022771Y032251D02*
X023228Y032251D01*
X023228Y032153D02*
X022771Y032153D01*
X022771Y032054D02*
X023228Y032054D01*
X023228Y031956D02*
X022771Y031956D01*
X022771Y031857D02*
X023228Y031857D01*
X023228Y031759D02*
X022771Y031759D01*
X022771Y031660D02*
X023228Y031660D01*
X023228Y031562D02*
X022771Y031562D01*
X022771Y031463D02*
X023228Y031463D01*
X023228Y031365D02*
X022771Y031365D01*
X022771Y031266D02*
X023228Y031266D01*
X023228Y031168D02*
X022771Y031168D01*
X022771Y031069D02*
X023228Y031069D01*
X023228Y030971D02*
X022771Y030971D01*
X022771Y030872D02*
X023228Y030872D01*
X023228Y030774D02*
X022771Y030774D01*
X022771Y030675D02*
X023228Y030675D01*
X023228Y030577D02*
X022771Y030577D01*
X022771Y030478D02*
X023228Y030478D01*
X023228Y030380D02*
X022771Y030380D01*
X022771Y030281D02*
X023228Y030281D01*
X023228Y030183D02*
X022771Y030183D01*
X022771Y030084D02*
X023228Y030084D01*
X023228Y029986D02*
X022771Y029986D01*
X022771Y029887D02*
X023228Y029887D01*
X023228Y029789D02*
X022771Y029789D01*
X022771Y029690D02*
X023228Y029690D01*
X023228Y029592D02*
X022771Y029592D01*
X022771Y029493D02*
X023228Y029493D01*
X023228Y029395D02*
X022771Y029395D01*
X022771Y029296D02*
X023228Y029296D01*
X023228Y029198D02*
X022771Y029198D01*
X022771Y029099D02*
X023228Y029099D01*
X023228Y029001D02*
X022771Y029001D01*
X022771Y028902D02*
X023228Y028902D01*
X023228Y028804D02*
X022771Y028804D01*
X022771Y028705D02*
X023228Y028705D01*
X023228Y028607D02*
X022771Y028607D01*
X022771Y028508D02*
X023228Y028508D01*
X023228Y028410D02*
X022771Y028410D01*
X022771Y028311D02*
X023228Y028311D01*
X023228Y028213D02*
X022771Y028213D01*
X022771Y028114D02*
X023228Y028114D01*
X023228Y028016D02*
X022771Y028016D01*
X022771Y027917D02*
X023228Y027917D01*
X023228Y027819D02*
X022771Y027819D01*
X022771Y027720D02*
X023228Y027720D01*
X023228Y027622D02*
X022771Y027622D01*
X022771Y027523D02*
X023228Y027523D01*
X023228Y027425D02*
X022771Y027425D01*
X022771Y027326D02*
X023228Y027326D01*
X023228Y027228D02*
X022771Y027228D01*
X022771Y027129D02*
X023228Y027129D01*
X023228Y027031D02*
X022771Y027031D01*
X022771Y026932D02*
X023228Y026932D01*
X023228Y026834D02*
X022771Y026834D01*
X022771Y026735D02*
X023228Y026735D01*
X023228Y026637D02*
X022771Y026637D01*
X022771Y026538D02*
X023228Y026538D01*
X023228Y026440D02*
X022771Y026440D01*
X022771Y026341D02*
X023228Y026341D01*
X023228Y026243D02*
X022771Y026243D01*
X022771Y026144D02*
X023228Y026144D01*
X023228Y026046D02*
X022771Y026046D01*
X022771Y025947D02*
X023228Y025947D01*
X023228Y025849D02*
X022771Y025849D01*
X022771Y025750D02*
X023228Y025750D01*
X023228Y025652D02*
X022771Y025652D01*
X022771Y025553D02*
X023228Y025553D01*
X023228Y025455D02*
X022771Y025455D01*
X022771Y025356D02*
X023228Y025356D01*
X023228Y025258D02*
X022771Y025258D01*
X022771Y025159D02*
X023228Y025159D01*
X023228Y025061D02*
X022771Y025061D01*
X022771Y024962D02*
X023228Y024962D01*
X023228Y024864D02*
X022771Y024864D01*
X022771Y024765D02*
X023228Y024765D01*
X023228Y024667D02*
X022771Y024667D01*
X022771Y024568D02*
X023228Y024568D01*
X023228Y024470D02*
X022677Y024470D01*
X022579Y024371D02*
X023228Y024371D01*
X023228Y024273D02*
X022480Y024273D01*
X022382Y024174D02*
X023228Y024174D01*
X023228Y024076D02*
X022283Y024076D01*
X022185Y023977D02*
X023228Y023977D01*
X023228Y023879D02*
X022086Y023879D01*
X021988Y023780D02*
X023228Y023780D01*
X023228Y023682D02*
X021889Y023682D01*
X021791Y023583D02*
X023228Y023583D01*
X023228Y023485D02*
X021692Y023485D01*
X021594Y023386D02*
X023228Y023386D01*
X023228Y023288D02*
X021495Y023288D01*
X021397Y023189D02*
X023228Y023189D01*
X023228Y023091D02*
X021298Y023091D01*
X021200Y022992D02*
X023228Y022992D01*
X023228Y022894D02*
X021101Y022894D01*
X021003Y022795D02*
X023228Y022795D01*
X023228Y022697D02*
X020904Y022697D01*
X020806Y022598D02*
X023228Y022598D01*
X023228Y022500D02*
X020707Y022500D01*
X020609Y022401D02*
X023228Y022401D01*
X023228Y022303D02*
X020510Y022303D01*
X020412Y022204D02*
X023228Y022204D01*
X023228Y022106D02*
X020313Y022106D01*
X020215Y022007D02*
X020481Y022007D01*
X020506Y022032D02*
X020441Y021968D01*
X020441Y021317D01*
X020506Y021252D01*
X021157Y021252D01*
X021221Y021317D01*
X021221Y021968D01*
X021157Y022032D01*
X020506Y022032D01*
X020441Y021909D02*
X020116Y021909D01*
X020021Y021810D02*
X020441Y021810D01*
X020441Y021712D02*
X020021Y021712D01*
X020021Y021613D02*
X020441Y021613D01*
X020441Y021515D02*
X020021Y021515D01*
X020021Y021416D02*
X020441Y021416D01*
X020441Y021318D02*
X020021Y021318D01*
X020021Y021219D02*
X022028Y021219D01*
X021995Y021252D02*
X022421Y020826D01*
X022421Y016708D01*
X020265Y014552D01*
X014147Y014552D01*
X013397Y015302D01*
X006647Y015302D01*
X005741Y016208D01*
X005741Y019958D01*
X005647Y020052D01*
X004221Y021478D01*
X004221Y021968D01*
X004157Y022032D01*
X003506Y022032D01*
X003441Y021968D01*
X003441Y021317D01*
X003506Y021252D01*
X003995Y021252D01*
X004465Y020782D01*
X004170Y020782D01*
X003941Y020554D01*
X003941Y020231D01*
X004170Y020002D01*
X004493Y020002D01*
X004721Y020231D01*
X004721Y020526D01*
X005421Y019826D01*
X005421Y016076D01*
X006421Y015076D01*
X006515Y014982D01*
X013265Y014982D01*
X013921Y014326D01*
X014015Y014232D01*
X020397Y014232D01*
X022647Y016482D01*
X022741Y016576D01*
X022741Y020958D01*
X022221Y021478D01*
X022221Y021968D01*
X022157Y022032D01*
X021506Y022032D01*
X021441Y021968D01*
X021441Y021317D01*
X021506Y021252D01*
X021995Y021252D01*
X022126Y021121D02*
X020021Y021121D01*
X020021Y021022D02*
X020459Y021022D01*
X020477Y021030D02*
X020334Y020971D01*
X020225Y020862D01*
X020166Y020719D01*
X020166Y020565D01*
X020225Y020423D01*
X020334Y020314D01*
X020477Y020255D01*
X021186Y020255D01*
X021328Y020314D01*
X021437Y020423D01*
X021496Y020565D01*
X021496Y020719D01*
X021437Y020862D01*
X021328Y020971D01*
X021186Y021030D01*
X020477Y021030D01*
X020287Y020924D02*
X020021Y020924D01*
X020021Y020825D02*
X020210Y020825D01*
X020169Y020727D02*
X020021Y020727D01*
X020021Y020628D02*
X020166Y020628D01*
X020181Y020530D02*
X020021Y020530D01*
X020021Y020431D02*
X020222Y020431D01*
X020315Y020333D02*
X020021Y020333D01*
X020021Y020234D02*
X022421Y020234D01*
X022421Y020136D02*
X020021Y020136D01*
X020021Y020037D02*
X022421Y020037D01*
X022421Y019939D02*
X020021Y019939D01*
X020021Y019840D02*
X022421Y019840D01*
X022421Y019742D02*
X020021Y019742D01*
X020021Y019643D02*
X022421Y019643D01*
X022421Y019545D02*
X020021Y019545D01*
X020021Y019446D02*
X022421Y019446D01*
X022421Y019348D02*
X020021Y019348D01*
X020021Y019249D02*
X022421Y019249D01*
X022421Y019151D02*
X020021Y019151D01*
X020021Y019052D02*
X022421Y019052D01*
X022421Y018954D02*
X021345Y018954D01*
X021328Y018971D02*
X021186Y019030D01*
X020477Y019030D01*
X020334Y018971D01*
X020225Y018862D01*
X020166Y018719D01*
X020166Y018565D01*
X020225Y018423D01*
X020334Y018314D01*
X020477Y018255D01*
X021186Y018255D01*
X021328Y018314D01*
X021437Y018423D01*
X021496Y018565D01*
X021496Y018719D01*
X021437Y018862D01*
X021328Y018971D01*
X021440Y018855D02*
X022421Y018855D01*
X022421Y018757D02*
X021481Y018757D01*
X021496Y018658D02*
X022421Y018658D01*
X022421Y018560D02*
X021494Y018560D01*
X021453Y018461D02*
X022421Y018461D01*
X022421Y018363D02*
X021377Y018363D01*
X021209Y018264D02*
X022421Y018264D01*
X022421Y018166D02*
X020021Y018166D01*
X020021Y018264D02*
X020454Y018264D01*
X020285Y018363D02*
X020021Y018363D01*
X020021Y018461D02*
X020209Y018461D01*
X020168Y018560D02*
X020021Y018560D01*
X020021Y018658D02*
X020166Y018658D01*
X020182Y018757D02*
X020021Y018757D01*
X020021Y018855D02*
X020222Y018855D01*
X020317Y018954D02*
X020021Y018954D01*
X019641Y018954D02*
X019345Y018954D01*
X019328Y018971D02*
X019186Y019030D01*
X018477Y019030D01*
X018334Y018971D01*
X018225Y018862D01*
X018166Y018719D01*
X018166Y018565D01*
X018225Y018423D01*
X018334Y018314D01*
X018477Y018255D01*
X019186Y018255D01*
X019328Y018314D01*
X019437Y018423D01*
X019496Y018565D01*
X019496Y018719D01*
X019437Y018862D01*
X019328Y018971D01*
X019440Y018855D02*
X019641Y018855D01*
X019641Y018757D02*
X019481Y018757D01*
X019496Y018658D02*
X019641Y018658D01*
X019641Y018560D02*
X019494Y018560D01*
X019453Y018461D02*
X019641Y018461D01*
X019641Y018363D02*
X019377Y018363D01*
X019209Y018264D02*
X019641Y018264D01*
X019641Y018166D02*
X017761Y018166D01*
X017761Y018264D02*
X018454Y018264D01*
X018285Y018363D02*
X017719Y018363D01*
X017761Y018320D02*
X017509Y018572D01*
X017153Y018572D01*
X016901Y018320D01*
X016901Y017964D01*
X017153Y017712D01*
X017509Y017712D01*
X017761Y017964D01*
X017761Y018320D01*
X017620Y018461D02*
X018209Y018461D01*
X018168Y018560D02*
X017522Y018560D01*
X017509Y018712D02*
X017761Y018964D01*
X017761Y019320D01*
X017509Y019572D01*
X017153Y019572D01*
X016901Y019320D01*
X016901Y018964D01*
X017153Y018712D01*
X017509Y018712D01*
X017554Y018757D02*
X018182Y018757D01*
X018166Y018658D02*
X013521Y018658D01*
X013521Y018560D02*
X016141Y018560D01*
X016153Y018572D02*
X015913Y018332D01*
X015752Y018332D01*
X014721Y017301D01*
X014721Y018000D01*
X014662Y018143D01*
X014552Y018253D01*
X014409Y018312D01*
X014254Y018312D01*
X014110Y018253D01*
X014000Y018143D01*
X013941Y018000D01*
X013941Y017832D01*
X013721Y017832D01*
X013721Y018000D01*
X013662Y018143D01*
X013552Y018253D01*
X013521Y018266D01*
X013521Y023769D01*
X013552Y023781D01*
X013662Y023891D01*
X013721Y024035D01*
X013721Y024750D01*
X013662Y024893D01*
X013552Y025003D01*
X013409Y025062D01*
X013254Y025062D01*
X013110Y025003D01*
X013000Y024893D01*
X012941Y024750D01*
X012941Y024035D01*
X013000Y023891D01*
X013110Y023781D01*
X013141Y023769D01*
X013141Y019164D01*
X013052Y019253D01*
X012909Y019312D01*
X012754Y019312D01*
X012610Y019253D01*
X012521Y019164D01*
X012521Y023769D01*
X012552Y023781D01*
X012662Y023891D01*
X012721Y024035D01*
X012721Y024750D01*
X012662Y024893D01*
X012552Y025003D01*
X012409Y025062D01*
X012254Y025062D01*
X012110Y025003D01*
X012000Y024893D01*
X011941Y024750D01*
X011941Y024035D01*
X012000Y023891D01*
X012110Y023781D01*
X012141Y023769D01*
X012141Y019164D01*
X012052Y019253D01*
X011909Y019312D01*
X011754Y019312D01*
X011610Y019253D01*
X011521Y019164D01*
X011521Y020452D01*
X011559Y020490D01*
X011600Y020589D01*
X011600Y020696D01*
X011559Y020794D01*
X011521Y020832D01*
X011521Y023769D01*
X011552Y023781D01*
X011662Y023891D01*
X011721Y024035D01*
X011721Y024750D01*
X011662Y024893D01*
X011552Y025003D01*
X011409Y025062D01*
X011254Y025062D01*
X011110Y025003D01*
X011000Y024893D01*
X010941Y024750D01*
X010941Y024035D01*
X011000Y023891D01*
X011110Y023781D01*
X011141Y023769D01*
X011141Y020832D01*
X011103Y020794D01*
X011062Y020696D01*
X011062Y020589D01*
X011103Y020490D01*
X011141Y020452D01*
X011141Y018266D01*
X011110Y018253D01*
X011000Y018143D01*
X010941Y018000D01*
X010941Y017285D01*
X011000Y017141D01*
X011110Y017031D01*
X011254Y016972D01*
X011409Y016972D01*
X011552Y017031D01*
X011662Y017141D01*
X011721Y017285D01*
X011721Y017986D01*
X011754Y017972D01*
X011909Y017972D01*
X011941Y017986D01*
X011941Y017285D01*
X012000Y017141D01*
X012110Y017031D01*
X012254Y016972D01*
X012409Y016972D01*
X012461Y016994D01*
X012675Y016780D01*
X012610Y016753D01*
X012500Y016643D01*
X012441Y016500D01*
X012441Y015785D01*
X012500Y015641D01*
X012610Y015531D01*
X012754Y015472D01*
X012909Y015472D01*
X013052Y015531D01*
X013162Y015641D01*
X013221Y015785D01*
X013221Y016500D01*
X013162Y016643D01*
X013103Y016702D01*
X013560Y016702D01*
X013500Y016643D01*
X013441Y016500D01*
X013441Y015785D01*
X013500Y015641D01*
X013610Y015531D01*
X013754Y015472D01*
X013909Y015472D01*
X014052Y015531D01*
X014162Y015641D01*
X014221Y015785D01*
X014221Y016500D01*
X014162Y016643D01*
X014103Y016702D01*
X014660Y016702D01*
X014771Y016813D01*
X015910Y017952D01*
X015913Y017952D01*
X016153Y017712D01*
X016509Y017712D01*
X016761Y017964D01*
X016761Y018320D01*
X016509Y018572D01*
X016153Y018572D01*
X016153Y018712D02*
X015901Y018964D01*
X015901Y019320D01*
X016153Y019572D01*
X016509Y019572D01*
X016761Y019320D01*
X016761Y018964D01*
X016509Y018712D01*
X016153Y018712D01*
X016108Y018757D02*
X013521Y018757D01*
X013521Y018855D02*
X016010Y018855D01*
X015911Y018954D02*
X013521Y018954D01*
X013521Y019052D02*
X015901Y019052D01*
X015901Y019151D02*
X013521Y019151D01*
X013521Y019249D02*
X015901Y019249D01*
X015929Y019348D02*
X013521Y019348D01*
X013521Y019446D02*
X016027Y019446D01*
X016126Y019545D02*
X013521Y019545D01*
X013521Y019643D02*
X019641Y019643D01*
X019641Y019545D02*
X017537Y019545D01*
X017635Y019446D02*
X019641Y019446D01*
X019641Y019348D02*
X017734Y019348D01*
X017761Y019249D02*
X019641Y019249D01*
X019641Y019151D02*
X017761Y019151D01*
X017761Y019052D02*
X019641Y019052D01*
X019641Y019742D02*
X013521Y019742D01*
X013521Y019840D02*
X019641Y019840D01*
X019641Y019939D02*
X013521Y019939D01*
X013521Y020037D02*
X019641Y020037D01*
X019641Y020136D02*
X013521Y020136D01*
X013521Y020234D02*
X019641Y020234D01*
X019641Y020333D02*
X019347Y020333D01*
X019328Y020314D02*
X019437Y020423D01*
X019496Y020565D01*
X019496Y020719D01*
X019437Y020862D01*
X019328Y020971D01*
X019186Y021030D01*
X018477Y021030D01*
X018334Y020971D01*
X018225Y020862D01*
X018166Y020719D01*
X018166Y020565D01*
X018225Y020423D01*
X018334Y020314D01*
X018477Y020255D01*
X019186Y020255D01*
X019328Y020314D01*
X019441Y020431D02*
X019641Y020431D01*
X019641Y020530D02*
X019481Y020530D01*
X019496Y020628D02*
X019641Y020628D01*
X019641Y020727D02*
X019493Y020727D01*
X019452Y020825D02*
X019641Y020825D01*
X019641Y020924D02*
X019375Y020924D01*
X019204Y021022D02*
X019641Y021022D01*
X019641Y021121D02*
X013521Y021121D01*
X013521Y021219D02*
X019641Y021219D01*
X019641Y021318D02*
X013521Y021318D01*
X013521Y021416D02*
X019641Y021416D01*
X019641Y021515D02*
X013521Y021515D01*
X013521Y021613D02*
X019641Y021613D01*
X019776Y022106D02*
X014998Y022106D01*
X014665Y022106D02*
X013521Y022106D01*
X013521Y022204D02*
X019874Y022204D01*
X019973Y022303D02*
X013521Y022303D01*
X013521Y022401D02*
X020071Y022401D01*
X020170Y022500D02*
X013521Y022500D01*
X013521Y022598D02*
X020268Y022598D01*
X020367Y022697D02*
X013521Y022697D01*
X013521Y022795D02*
X020465Y022795D01*
X020564Y022894D02*
X013521Y022894D01*
X013521Y022992D02*
X020662Y022992D01*
X020761Y023091D02*
X013521Y023091D01*
X013521Y023189D02*
X020859Y023189D01*
X020958Y023288D02*
X013521Y023288D01*
X013521Y023386D02*
X021056Y023386D01*
X021155Y023485D02*
X018150Y023485D01*
X018147Y023482D02*
X018397Y023732D01*
X018417Y023752D01*
X018493Y023752D01*
X018721Y023981D01*
X018721Y024304D01*
X018493Y024532D01*
X018170Y024532D01*
X017941Y024304D01*
X017941Y023981D01*
X018067Y023854D01*
X018015Y023802D01*
X016573Y023802D01*
X016662Y023891D01*
X016721Y024035D01*
X016721Y024750D01*
X016662Y024893D01*
X016552Y025003D01*
X016409Y025062D01*
X016254Y025062D01*
X016110Y025003D01*
X016000Y024893D01*
X015941Y024750D01*
X015941Y024035D01*
X016000Y023891D01*
X016090Y023802D01*
X015647Y023802D01*
X015610Y023839D01*
X015662Y023891D01*
X015721Y024035D01*
X015721Y024750D01*
X015662Y024893D01*
X015552Y025003D01*
X015409Y025062D01*
X015254Y025062D01*
X015110Y025003D01*
X015000Y024893D01*
X014941Y024750D01*
X014941Y024035D01*
X015000Y023891D01*
X015110Y023781D01*
X015254Y023722D01*
X015275Y023722D01*
X015421Y023576D01*
X015515Y023482D01*
X018147Y023482D01*
X018248Y023583D02*
X021253Y023583D01*
X021352Y023682D02*
X018347Y023682D01*
X018521Y023780D02*
X021450Y023780D01*
X021549Y023879D02*
X018619Y023879D01*
X018718Y023977D02*
X021647Y023977D01*
X021746Y024076D02*
X018721Y024076D01*
X018721Y024174D02*
X021844Y024174D01*
X021943Y024273D02*
X018721Y024273D01*
X018654Y024371D02*
X022041Y024371D01*
X022140Y024470D02*
X018555Y024470D01*
X018604Y024568D02*
X018115Y024568D01*
X018107Y024470D02*
X018017Y024470D01*
X018009Y024462D02*
X018261Y024714D01*
X018261Y024862D01*
X017861Y024862D01*
X017861Y024462D01*
X018009Y024462D01*
X018009Y024371D02*
X016721Y024371D01*
X016721Y024273D02*
X017941Y024273D01*
X017941Y024174D02*
X016721Y024174D01*
X016721Y024076D02*
X017941Y024076D01*
X017945Y023977D02*
X016697Y023977D01*
X016649Y023879D02*
X018043Y023879D01*
X018081Y023642D02*
X018331Y023892D01*
X018331Y024142D01*
X018670Y024502D02*
X018441Y024731D01*
X018441Y025054D01*
X018670Y025282D01*
X018993Y025282D01*
X019221Y025054D01*
X019221Y024731D01*
X018993Y024502D01*
X018670Y024502D01*
X018505Y024667D02*
X018214Y024667D01*
X018261Y024765D02*
X018441Y024765D01*
X018441Y024864D02*
X017861Y024864D01*
X017861Y024862D02*
X017861Y024922D01*
X018261Y024922D01*
X018261Y025070D01*
X018009Y025322D01*
X017861Y025322D01*
X017861Y024922D01*
X017801Y024922D01*
X017801Y024862D01*
X017861Y024862D01*
X017801Y024862D02*
X017801Y024462D01*
X017653Y024462D01*
X017401Y024714D01*
X017401Y024862D01*
X017801Y024862D01*
X017801Y024864D02*
X016674Y024864D01*
X016715Y024765D02*
X017401Y024765D01*
X017448Y024667D02*
X016721Y024667D01*
X016721Y024568D02*
X017547Y024568D01*
X017645Y024470D02*
X016721Y024470D01*
X016593Y024962D02*
X017401Y024962D01*
X017401Y024922D02*
X017401Y025070D01*
X017653Y025322D01*
X017801Y025322D01*
X017801Y024922D01*
X017401Y024922D01*
X017401Y025061D02*
X016412Y025061D01*
X016250Y025061D02*
X015412Y025061D01*
X015250Y025061D02*
X014412Y025061D01*
X014409Y025062D02*
X014254Y025062D01*
X014110Y025003D01*
X014000Y024893D01*
X013941Y024750D01*
X013941Y024035D01*
X014000Y023891D01*
X014110Y023781D01*
X014254Y023722D01*
X014409Y023722D01*
X014552Y023781D01*
X014662Y023891D01*
X014721Y024035D01*
X014721Y024750D01*
X014662Y024893D01*
X014552Y025003D01*
X014409Y025062D01*
X014250Y025061D02*
X013412Y025061D01*
X013250Y025061D02*
X012412Y025061D01*
X012250Y025061D02*
X011412Y025061D01*
X011250Y025061D02*
X010516Y025061D01*
X010496Y025071D02*
X010432Y025092D01*
X010365Y025102D01*
X010361Y025102D01*
X010361Y024422D01*
X010761Y024422D01*
X010761Y024706D01*
X010751Y024773D01*
X010730Y024837D01*
X010699Y024897D01*
X010659Y024952D01*
X010611Y025000D01*
X010556Y025040D01*
X010496Y025071D01*
X010361Y025061D02*
X010301Y025061D01*
X010301Y025102D02*
X010297Y025102D01*
X010230Y025092D01*
X010166Y025071D01*
X010106Y025040D01*
X010051Y025000D01*
X010003Y024952D01*
X009963Y024897D01*
X009933Y024837D01*
X009912Y024773D01*
X009901Y024706D01*
X009901Y024422D01*
X010301Y024422D01*
X010301Y024362D01*
X010361Y024362D01*
X010361Y023682D01*
X010365Y023682D01*
X010432Y023693D01*
X010496Y023714D01*
X010556Y023744D01*
X010611Y023784D01*
X010659Y023832D01*
X010699Y023887D01*
X010730Y023947D01*
X010751Y024011D01*
X010761Y024078D01*
X010761Y024362D01*
X010361Y024362D01*
X010361Y024422D01*
X010301Y024422D01*
X010301Y025102D01*
X010301Y024962D02*
X010361Y024962D01*
X010361Y024864D02*
X010301Y024864D01*
X010301Y024765D02*
X010361Y024765D01*
X010361Y024667D02*
X010301Y024667D01*
X010301Y024568D02*
X010361Y024568D01*
X010361Y024470D02*
X010301Y024470D01*
X010301Y024371D02*
X009721Y024371D01*
X009721Y024273D02*
X009901Y024273D01*
X009901Y024362D02*
X009901Y024078D01*
X009912Y024011D01*
X009933Y023947D01*
X009963Y023887D01*
X010003Y023832D01*
X010051Y023784D01*
X010106Y023744D01*
X010166Y023714D01*
X010230Y023693D01*
X010297Y023682D01*
X010301Y023682D01*
X010301Y024362D01*
X009901Y024362D01*
X009901Y024470D02*
X009721Y024470D01*
X009721Y024568D02*
X009901Y024568D01*
X009901Y024667D02*
X009721Y024667D01*
X009715Y024765D02*
X009910Y024765D01*
X009946Y024864D02*
X009674Y024864D01*
X009593Y024962D02*
X010013Y024962D01*
X010146Y025061D02*
X009412Y025061D01*
X009324Y025159D02*
X016691Y025159D01*
X016596Y025258D02*
X009423Y025258D01*
X009521Y025356D02*
X016562Y025356D01*
X016566Y025455D02*
X009620Y025455D01*
X009718Y025553D02*
X016612Y025553D01*
X016671Y025652D02*
X009817Y025652D01*
X009831Y025892D02*
X008831Y024892D01*
X008831Y016392D01*
X008331Y015892D01*
X007581Y015892D01*
X007081Y016392D01*
X006796Y016097D02*
X005852Y016097D01*
X005754Y016196D02*
X006698Y016196D01*
X006671Y016294D02*
X005741Y016294D01*
X005741Y016393D02*
X006671Y016393D01*
X006671Y016491D02*
X005741Y016491D01*
X005741Y016590D02*
X006699Y016590D01*
X006797Y016688D02*
X005741Y016688D01*
X005741Y016787D02*
X006710Y016787D01*
X006612Y016885D02*
X005741Y016885D01*
X005741Y016984D02*
X006513Y016984D01*
X006415Y017082D02*
X005741Y017082D01*
X005741Y017181D02*
X006316Y017181D01*
X006218Y017279D02*
X005741Y017279D01*
X005741Y017378D02*
X006171Y017378D01*
X006171Y017476D02*
X005741Y017476D01*
X005741Y017575D02*
X006171Y017575D01*
X006171Y017673D02*
X005741Y017673D01*
X005741Y017772D02*
X006171Y017772D01*
X006171Y017870D02*
X005741Y017870D01*
X005741Y017969D02*
X006171Y017969D01*
X006171Y018067D02*
X005741Y018067D01*
X005741Y018166D02*
X006171Y018166D01*
X006171Y018264D02*
X005741Y018264D01*
X005741Y018363D02*
X006171Y018363D01*
X006171Y018461D02*
X005741Y018461D01*
X005741Y018560D02*
X006171Y018560D01*
X006171Y018658D02*
X005741Y018658D01*
X005741Y018757D02*
X006171Y018757D01*
X006171Y018855D02*
X005741Y018855D01*
X005741Y018954D02*
X006171Y018954D01*
X006171Y019052D02*
X005741Y019052D01*
X005741Y019151D02*
X006171Y019151D01*
X006171Y019249D02*
X005741Y019249D01*
X005741Y019348D02*
X006171Y019348D01*
X006171Y019446D02*
X005741Y019446D01*
X005741Y019545D02*
X006171Y019545D01*
X006171Y019643D02*
X005741Y019643D01*
X005741Y019742D02*
X006171Y019742D01*
X006171Y019840D02*
X005741Y019840D01*
X005741Y019939D02*
X006171Y019939D01*
X006171Y020037D02*
X005662Y020037D01*
X005564Y020136D02*
X006171Y020136D01*
X006171Y020234D02*
X005465Y020234D01*
X005367Y020333D02*
X006171Y020333D01*
X006171Y020431D02*
X005268Y020431D01*
X005170Y020530D02*
X006171Y020530D01*
X006171Y020628D02*
X005071Y020628D01*
X004973Y020727D02*
X006171Y020727D01*
X006171Y020825D02*
X004874Y020825D01*
X004776Y020924D02*
X006171Y020924D01*
X006171Y021022D02*
X004677Y021022D01*
X004579Y021121D02*
X006171Y021121D01*
X006171Y021219D02*
X004480Y021219D01*
X004382Y021318D02*
X006171Y021318D01*
X006171Y021416D02*
X004283Y021416D01*
X004221Y021515D02*
X006171Y021515D01*
X006171Y021613D02*
X004221Y021613D01*
X004221Y021712D02*
X006171Y021712D01*
X006171Y021810D02*
X004221Y021810D01*
X004221Y021909D02*
X006171Y021909D01*
X006171Y022007D02*
X004182Y022007D01*
X003831Y021642D02*
X005581Y019892D01*
X005581Y016142D01*
X006581Y015142D01*
X013331Y015142D01*
X014081Y014392D01*
X020331Y014392D01*
X022581Y016642D01*
X022581Y020892D01*
X021831Y021642D01*
X022221Y021613D02*
X023228Y021613D01*
X023228Y021515D02*
X022221Y021515D01*
X022283Y021416D02*
X023228Y021416D01*
X023228Y021318D02*
X022382Y021318D01*
X022480Y021219D02*
X023228Y021219D01*
X023228Y021121D02*
X022579Y021121D01*
X022677Y021022D02*
X023228Y021022D01*
X023228Y020924D02*
X022741Y020924D01*
X022741Y020825D02*
X023228Y020825D01*
X023228Y020727D02*
X022741Y020727D01*
X022741Y020628D02*
X023228Y020628D01*
X023228Y020530D02*
X022741Y020530D01*
X022741Y020431D02*
X023228Y020431D01*
X023228Y020333D02*
X022741Y020333D01*
X022741Y020234D02*
X023228Y020234D01*
X023228Y020136D02*
X022741Y020136D01*
X022741Y020037D02*
X023228Y020037D01*
X023228Y019939D02*
X022741Y019939D01*
X022741Y019840D02*
X023228Y019840D01*
X023228Y019742D02*
X022741Y019742D01*
X022741Y019643D02*
X023228Y019643D01*
X023228Y019545D02*
X022741Y019545D01*
X022741Y019446D02*
X023228Y019446D01*
X023228Y019348D02*
X022741Y019348D01*
X022741Y019249D02*
X023228Y019249D01*
X023228Y019151D02*
X022741Y019151D01*
X022741Y019052D02*
X023228Y019052D01*
X023228Y018954D02*
X022741Y018954D01*
X022741Y018855D02*
X023228Y018855D01*
X023228Y018757D02*
X022741Y018757D01*
X022741Y018658D02*
X023228Y018658D01*
X023228Y018560D02*
X022741Y018560D01*
X022741Y018461D02*
X023228Y018461D01*
X023228Y018363D02*
X022741Y018363D01*
X022741Y018264D02*
X023228Y018264D01*
X023228Y018166D02*
X022741Y018166D01*
X022741Y018067D02*
X023228Y018067D01*
X023228Y017969D02*
X022741Y017969D01*
X022741Y017870D02*
X023228Y017870D01*
X023228Y017772D02*
X022741Y017772D01*
X022741Y017673D02*
X023228Y017673D01*
X023228Y017575D02*
X022741Y017575D01*
X022741Y017476D02*
X023228Y017476D01*
X023228Y017378D02*
X022741Y017378D01*
X022741Y017279D02*
X023228Y017279D01*
X023228Y017181D02*
X022741Y017181D01*
X022741Y017082D02*
X023228Y017082D01*
X023228Y016984D02*
X022741Y016984D01*
X022741Y016885D02*
X023228Y016885D01*
X023228Y016787D02*
X022741Y016787D01*
X022741Y016688D02*
X023228Y016688D01*
X023228Y016590D02*
X022741Y016590D01*
X022656Y016491D02*
X023228Y016491D01*
X023228Y016393D02*
X022558Y016393D01*
X022459Y016294D02*
X023228Y016294D01*
X023228Y016196D02*
X022361Y016196D01*
X022262Y016097D02*
X023228Y016097D01*
X023228Y015999D02*
X022164Y015999D01*
X022065Y015900D02*
X023228Y015900D01*
X023228Y015802D02*
X021967Y015802D01*
X021868Y015703D02*
X023228Y015703D01*
X023228Y015605D02*
X021770Y015605D01*
X021671Y015506D02*
X023228Y015506D01*
X023228Y015408D02*
X021573Y015408D01*
X021474Y015309D02*
X023228Y015309D01*
X023228Y015211D02*
X021376Y015211D01*
X021277Y015112D02*
X023228Y015112D01*
X023228Y015014D02*
X021179Y015014D01*
X021080Y014915D02*
X023228Y014915D01*
X023228Y014817D02*
X022427Y014817D01*
X022505Y014784D02*
X022305Y014867D01*
X022089Y014867D01*
X021889Y014784D01*
X021736Y014631D01*
X021654Y014431D01*
X021654Y014215D01*
X021736Y014015D01*
X021889Y013862D01*
X022089Y013780D01*
X022305Y013780D01*
X022505Y013862D01*
X022658Y014015D01*
X022741Y014215D01*
X022741Y014431D01*
X022658Y014631D01*
X022505Y014784D01*
X022571Y014718D02*
X023228Y014718D01*
X023228Y014620D02*
X022663Y014620D01*
X022704Y014521D02*
X023228Y014521D01*
X023228Y014423D02*
X022741Y014423D01*
X022741Y014324D02*
X023228Y014324D01*
X023228Y014226D02*
X022741Y014226D01*
X022705Y014127D02*
X023228Y014127D01*
X023228Y014029D02*
X022664Y014029D01*
X022573Y013930D02*
X023228Y013930D01*
X023228Y013832D02*
X022431Y013832D01*
X021963Y013832D02*
X019358Y013832D01*
X019259Y013930D02*
X021821Y013930D01*
X021731Y014029D02*
X019161Y014029D01*
X019456Y013733D02*
X023228Y013733D01*
X023228Y013635D02*
X019555Y013635D01*
X019653Y013536D02*
X023228Y013536D01*
X023228Y013438D02*
X019752Y013438D01*
X019850Y013339D02*
X023228Y013339D01*
X021968Y014817D02*
X020982Y014817D01*
X020883Y014718D02*
X021823Y014718D01*
X021732Y014620D02*
X020785Y014620D01*
X020686Y014521D02*
X021691Y014521D01*
X021654Y014423D02*
X020588Y014423D01*
X020489Y014324D02*
X021654Y014324D01*
X021654Y014226D02*
X013846Y014226D01*
X013923Y014324D02*
X013747Y014324D01*
X013824Y014423D02*
X013649Y014423D01*
X013726Y014521D02*
X013550Y014521D01*
X013627Y014620D02*
X013452Y014620D01*
X013529Y014718D02*
X013353Y014718D01*
X013430Y014817D02*
X013255Y014817D01*
X013332Y014915D02*
X001481Y014915D01*
X001481Y014817D02*
X002283Y014817D01*
X002204Y014784D02*
X002404Y014867D01*
X002620Y014867D01*
X002820Y014784D01*
X002973Y014631D01*
X003056Y014431D01*
X003056Y014215D01*
X002973Y014015D01*
X002820Y013862D01*
X002620Y013780D01*
X002404Y013780D01*
X002204Y013862D01*
X002051Y014015D01*
X001969Y014215D01*
X001969Y014431D01*
X002051Y014631D01*
X002204Y014784D01*
X002138Y014718D02*
X001481Y014718D01*
X001481Y014620D02*
X002046Y014620D01*
X002006Y014521D02*
X001481Y014521D01*
X001481Y014423D02*
X001969Y014423D01*
X001969Y014324D02*
X001481Y014324D01*
X001481Y014226D02*
X001969Y014226D01*
X002005Y014127D02*
X001481Y014127D01*
X001481Y014029D02*
X002046Y014029D01*
X002136Y013930D02*
X001481Y013930D01*
X001481Y013832D02*
X002278Y013832D01*
X002746Y013832D02*
X005352Y013832D01*
X005450Y013930D02*
X002888Y013930D01*
X002979Y014029D02*
X005549Y014029D01*
X005253Y013733D02*
X001481Y013733D01*
X001481Y013635D02*
X005155Y013635D01*
X005056Y013536D02*
X001481Y013536D01*
X001481Y013438D02*
X004958Y013438D01*
X004859Y013339D02*
X001481Y013339D01*
X001481Y015014D02*
X006483Y015014D01*
X006385Y015112D02*
X001481Y015112D01*
X001481Y015211D02*
X006286Y015211D01*
X006188Y015309D02*
X001481Y015309D01*
X001481Y015408D02*
X006089Y015408D01*
X005991Y015506D02*
X001481Y015506D01*
X001481Y015605D02*
X005892Y015605D01*
X005794Y015703D02*
X001481Y015703D01*
X001481Y015802D02*
X005695Y015802D01*
X005597Y015900D02*
X004928Y015900D01*
X004900Y015872D02*
X005351Y016323D01*
X005351Y016592D01*
X004631Y016592D01*
X004631Y015872D01*
X004900Y015872D01*
X005027Y015999D02*
X005498Y015999D01*
X005421Y016097D02*
X005125Y016097D01*
X005224Y016196D02*
X005421Y016196D01*
X005421Y016294D02*
X005322Y016294D01*
X005351Y016393D02*
X005421Y016393D01*
X005421Y016491D02*
X005351Y016491D01*
X005351Y016590D02*
X005421Y016590D01*
X005421Y016688D02*
X004631Y016688D01*
X004631Y016692D02*
X005351Y016692D01*
X005351Y016961D01*
X004900Y017412D01*
X004631Y017412D01*
X004631Y016692D01*
X004631Y016592D01*
X004531Y016592D01*
X004531Y015872D01*
X004262Y015872D01*
X003811Y016323D01*
X003811Y016592D01*
X004531Y016592D01*
X004531Y016692D01*
X003811Y016692D01*
X003811Y016961D01*
X004262Y017412D01*
X004531Y017412D01*
X004531Y016692D01*
X004631Y016692D01*
X004631Y016787D02*
X004531Y016787D01*
X004531Y016885D02*
X004631Y016885D01*
X004631Y016984D02*
X004531Y016984D01*
X004531Y017082D02*
X004631Y017082D01*
X004631Y017181D02*
X004531Y017181D01*
X004531Y017279D02*
X004631Y017279D01*
X004631Y017378D02*
X004531Y017378D01*
X004935Y017378D02*
X005421Y017378D01*
X005421Y017476D02*
X002021Y017476D01*
X002021Y017575D02*
X005421Y017575D01*
X005421Y017673D02*
X002021Y017673D01*
X002021Y017772D02*
X005421Y017772D01*
X005421Y017870D02*
X002021Y017870D01*
X002021Y017969D02*
X005421Y017969D01*
X005421Y018067D02*
X002021Y018067D01*
X002021Y018166D02*
X005421Y018166D01*
X005421Y018264D02*
X002021Y018264D01*
X002021Y018363D02*
X005421Y018363D01*
X005421Y018461D02*
X002021Y018461D01*
X002021Y018560D02*
X005421Y018560D01*
X005421Y018658D02*
X002021Y018658D01*
X002021Y018757D02*
X005421Y018757D01*
X005421Y018855D02*
X002021Y018855D01*
X002021Y018954D02*
X005421Y018954D01*
X005421Y019052D02*
X004543Y019052D01*
X004641Y019151D02*
X005421Y019151D01*
X005421Y019249D02*
X004721Y019249D01*
X004721Y019348D02*
X005421Y019348D01*
X005421Y019446D02*
X004721Y019446D01*
X004721Y019545D02*
X005421Y019545D01*
X005421Y019643D02*
X004632Y019643D01*
X004533Y019742D02*
X005421Y019742D01*
X005407Y019840D02*
X004109Y019840D01*
X004011Y019939D02*
X005308Y019939D01*
X005210Y020037D02*
X004528Y020037D01*
X004626Y020136D02*
X005111Y020136D01*
X005013Y020234D02*
X004721Y020234D01*
X004721Y020333D02*
X004914Y020333D01*
X004816Y020431D02*
X004721Y020431D01*
X004422Y020825D02*
X003124Y020825D01*
X003026Y020924D02*
X004323Y020924D01*
X004225Y021022D02*
X002927Y021022D01*
X002829Y021121D02*
X004126Y021121D01*
X004028Y021219D02*
X002730Y021219D01*
X002475Y021022D02*
X002021Y021022D01*
X002021Y020924D02*
X002573Y020924D01*
X002672Y020825D02*
X002021Y020825D01*
X002021Y020727D02*
X002770Y020727D01*
X002869Y020628D02*
X002021Y020628D01*
X002021Y020530D02*
X002967Y020530D01*
X003066Y020431D02*
X002021Y020431D01*
X002021Y020333D02*
X003164Y020333D01*
X003263Y020234D02*
X002021Y020234D01*
X002021Y020136D02*
X003361Y020136D01*
X003460Y020037D02*
X002021Y020037D01*
X002021Y019939D02*
X003558Y019939D01*
X003657Y019840D02*
X002021Y019840D01*
X002021Y019742D02*
X003755Y019742D01*
X003854Y019643D02*
X002021Y019643D01*
X002021Y019545D02*
X003941Y019545D01*
X003941Y019446D02*
X002021Y019446D01*
X002021Y019348D02*
X003941Y019348D01*
X003941Y019249D02*
X002021Y019249D01*
X002021Y019151D02*
X004021Y019151D01*
X004120Y019052D02*
X002021Y019052D01*
X001641Y019052D02*
X001481Y019052D01*
X001481Y018954D02*
X001641Y018954D01*
X001641Y018855D02*
X001481Y018855D01*
X001481Y018757D02*
X001641Y018757D01*
X001641Y018658D02*
X001481Y018658D01*
X001481Y018560D02*
X001641Y018560D01*
X001641Y018461D02*
X001481Y018461D01*
X001481Y018363D02*
X001641Y018363D01*
X001641Y018264D02*
X001481Y018264D01*
X001481Y018166D02*
X001641Y018166D01*
X001641Y018067D02*
X001481Y018067D01*
X001481Y017969D02*
X001641Y017969D01*
X001641Y017870D02*
X001481Y017870D01*
X001481Y017772D02*
X001641Y017772D01*
X001641Y017673D02*
X001481Y017673D01*
X001481Y017575D02*
X001641Y017575D01*
X001641Y017476D02*
X001481Y017476D01*
X001481Y017378D02*
X001641Y017378D01*
X001675Y017279D02*
X001481Y017279D01*
X001481Y017181D02*
X001774Y017181D01*
X001872Y017082D02*
X001481Y017082D01*
X001481Y016984D02*
X001890Y016984D01*
X001851Y016885D02*
X001481Y016885D01*
X001481Y016787D02*
X001851Y016787D01*
X001851Y016688D02*
X001481Y016688D01*
X001481Y016590D02*
X001851Y016590D01*
X001851Y016491D02*
X001481Y016491D01*
X001481Y016393D02*
X001851Y016393D01*
X001897Y016294D02*
X001481Y016294D01*
X001481Y016196D02*
X001995Y016196D01*
X002094Y016097D02*
X001481Y016097D01*
X001481Y015999D02*
X002192Y015999D01*
X001481Y015900D02*
X004234Y015900D01*
X004136Y015999D02*
X002970Y015999D01*
X003068Y016097D02*
X004037Y016097D01*
X003939Y016196D02*
X003167Y016196D01*
X003265Y016294D02*
X003840Y016294D01*
X003811Y016393D02*
X003311Y016393D01*
X003311Y016491D02*
X003811Y016491D01*
X003811Y016590D02*
X003311Y016590D01*
X003311Y016688D02*
X004531Y016688D01*
X004531Y016590D02*
X004631Y016590D01*
X004631Y016491D02*
X004531Y016491D01*
X004531Y016393D02*
X004631Y016393D01*
X004631Y016294D02*
X004531Y016294D01*
X004531Y016196D02*
X004631Y016196D01*
X004631Y016097D02*
X004531Y016097D01*
X004531Y015999D02*
X004631Y015999D01*
X004631Y015900D02*
X004531Y015900D01*
X005230Y017082D02*
X005421Y017082D01*
X005421Y016984D02*
X005329Y016984D01*
X005351Y016885D02*
X005421Y016885D01*
X005421Y016787D02*
X005351Y016787D01*
X005421Y017181D02*
X005132Y017181D01*
X005033Y017279D02*
X005421Y017279D01*
X005951Y015999D02*
X006895Y015999D01*
X006542Y015408D02*
X015932Y015408D01*
X015861Y015337D02*
X015861Y015192D01*
X016281Y015192D01*
X016281Y015092D01*
X016381Y015092D01*
X016381Y014672D01*
X016526Y014672D01*
X016801Y014947D01*
X016801Y015092D01*
X016381Y015092D01*
X016381Y015192D01*
X016801Y015192D01*
X016801Y015337D01*
X016526Y015612D01*
X016381Y015612D01*
X016381Y015192D01*
X016281Y015192D01*
X016281Y015612D01*
X016136Y015612D01*
X015861Y015337D01*
X015861Y015309D02*
X006640Y015309D01*
X006443Y015506D02*
X010590Y015506D01*
X010606Y015494D02*
X010666Y015464D01*
X010730Y015443D01*
X010797Y015432D01*
X010801Y015432D01*
X010801Y016112D01*
X010861Y016112D01*
X010861Y015432D01*
X010865Y015432D01*
X010932Y015443D01*
X010996Y015464D01*
X011056Y015494D01*
X011111Y015534D01*
X011159Y015582D01*
X011199Y015637D01*
X011230Y015697D01*
X011251Y015761D01*
X011261Y015828D01*
X011261Y016112D01*
X010861Y016112D01*
X010861Y016172D01*
X011261Y016172D01*
X011261Y016456D01*
X011251Y016523D01*
X011230Y016587D01*
X011199Y016647D01*
X011159Y016702D01*
X011111Y016750D01*
X011056Y016790D01*
X010996Y016821D01*
X010932Y016842D01*
X010865Y016852D01*
X010861Y016852D01*
X010861Y016172D01*
X010801Y016172D01*
X010801Y016112D01*
X010401Y016112D01*
X010401Y015828D01*
X010412Y015761D01*
X010433Y015697D01*
X010463Y015637D01*
X010503Y015582D01*
X010551Y015534D01*
X010606Y015494D01*
X010487Y015605D02*
X006345Y015605D01*
X006246Y015703D02*
X010431Y015703D01*
X010405Y015802D02*
X008467Y015802D01*
X008565Y015900D02*
X010401Y015900D01*
X010401Y015999D02*
X008664Y015999D01*
X008762Y016097D02*
X010401Y016097D01*
X010401Y016172D02*
X010801Y016172D01*
X010801Y016852D01*
X010797Y016852D01*
X010730Y016842D01*
X010666Y016821D01*
X010606Y016790D01*
X010551Y016750D01*
X010503Y016702D01*
X010463Y016647D01*
X010433Y016587D01*
X010412Y016523D01*
X010401Y016456D01*
X010401Y016172D01*
X010401Y016196D02*
X008861Y016196D01*
X008959Y016294D02*
X010401Y016294D01*
X010401Y016393D02*
X008991Y016393D01*
X008991Y016491D02*
X010407Y016491D01*
X010434Y016590D02*
X008991Y016590D01*
X008991Y016688D02*
X010493Y016688D01*
X010601Y016787D02*
X008991Y016787D01*
X008991Y016885D02*
X012569Y016885D01*
X012471Y016984D02*
X012436Y016984D01*
X012226Y016984D02*
X011436Y016984D01*
X011603Y017082D02*
X012060Y017082D01*
X011984Y017181D02*
X011678Y017181D01*
X011719Y017279D02*
X011943Y017279D01*
X011941Y017378D02*
X011721Y017378D01*
X011721Y017476D02*
X011941Y017476D01*
X011941Y017575D02*
X011721Y017575D01*
X011721Y017673D02*
X011941Y017673D01*
X011941Y017772D02*
X011721Y017772D01*
X011721Y017870D02*
X011941Y017870D01*
X011941Y017969D02*
X011721Y017969D01*
X011138Y018264D02*
X010525Y018264D01*
X010552Y018253D02*
X010409Y018312D01*
X010254Y018312D01*
X010110Y018253D01*
X010000Y018143D01*
X009941Y018000D01*
X009941Y017285D01*
X010000Y017141D01*
X010110Y017031D01*
X010254Y016972D01*
X010409Y016972D01*
X010552Y017031D01*
X010662Y017141D01*
X010721Y017285D01*
X010721Y018000D01*
X010662Y018143D01*
X010552Y018253D01*
X010639Y018166D02*
X011023Y018166D01*
X010969Y018067D02*
X010693Y018067D01*
X010721Y017969D02*
X010941Y017969D01*
X010941Y017870D02*
X010721Y017870D01*
X010721Y017772D02*
X010941Y017772D01*
X010941Y017673D02*
X010721Y017673D01*
X010721Y017575D02*
X010941Y017575D01*
X010941Y017476D02*
X010721Y017476D01*
X010721Y017378D02*
X010941Y017378D01*
X010943Y017279D02*
X010719Y017279D01*
X010678Y017181D02*
X010984Y017181D01*
X011060Y017082D02*
X010603Y017082D01*
X010436Y016984D02*
X011226Y016984D01*
X011061Y016787D02*
X011692Y016787D01*
X011754Y016812D02*
X011610Y016753D01*
X011500Y016643D01*
X011441Y016500D01*
X011441Y015785D01*
X011500Y015641D01*
X011610Y015531D01*
X011754Y015472D01*
X011909Y015472D01*
X012052Y015531D01*
X012162Y015641D01*
X012221Y015785D01*
X012221Y016500D01*
X012162Y016643D01*
X012052Y016753D01*
X011909Y016812D01*
X011754Y016812D01*
X011970Y016787D02*
X012668Y016787D01*
X012546Y016688D02*
X012117Y016688D01*
X012184Y016590D02*
X012478Y016590D01*
X012441Y016491D02*
X012221Y016491D01*
X012221Y016393D02*
X012441Y016393D01*
X012441Y016294D02*
X012221Y016294D01*
X012221Y016196D02*
X012441Y016196D01*
X012441Y016097D02*
X012221Y016097D01*
X012221Y015999D02*
X012441Y015999D01*
X012441Y015900D02*
X012221Y015900D01*
X012221Y015802D02*
X012441Y015802D01*
X012475Y015703D02*
X012187Y015703D01*
X012125Y015605D02*
X012537Y015605D01*
X012671Y015506D02*
X011991Y015506D01*
X011671Y015506D02*
X011073Y015506D01*
X011176Y015605D02*
X011537Y015605D01*
X011475Y015703D02*
X011232Y015703D01*
X011257Y015802D02*
X011441Y015802D01*
X011441Y015900D02*
X011261Y015900D01*
X011261Y015999D02*
X011441Y015999D01*
X011441Y016097D02*
X011261Y016097D01*
X011261Y016196D02*
X011441Y016196D01*
X011441Y016294D02*
X011261Y016294D01*
X011261Y016393D02*
X011441Y016393D01*
X011441Y016491D02*
X011256Y016491D01*
X011228Y016590D02*
X011478Y016590D01*
X011546Y016688D02*
X011169Y016688D01*
X010861Y016688D02*
X010801Y016688D01*
X010801Y016590D02*
X010861Y016590D01*
X010861Y016491D02*
X010801Y016491D01*
X010801Y016393D02*
X010861Y016393D01*
X010861Y016294D02*
X010801Y016294D01*
X010801Y016196D02*
X010861Y016196D01*
X010861Y016097D02*
X010801Y016097D01*
X010801Y015999D02*
X010861Y015999D01*
X010861Y015900D02*
X010801Y015900D01*
X010801Y015802D02*
X010861Y015802D01*
X010861Y015703D02*
X010801Y015703D01*
X010801Y015605D02*
X010861Y015605D01*
X010861Y015506D02*
X010801Y015506D01*
X011455Y014817D02*
X002742Y014817D01*
X002886Y014718D02*
X011356Y014718D01*
X011258Y014620D02*
X002978Y014620D01*
X003019Y014521D02*
X011159Y014521D01*
X011061Y014423D02*
X003056Y014423D01*
X003056Y014324D02*
X010962Y014324D01*
X010864Y014226D02*
X003056Y014226D01*
X003019Y014127D02*
X010765Y014127D01*
X010801Y016787D02*
X010861Y016787D01*
X010226Y016984D02*
X008991Y016984D01*
X008991Y017082D02*
X010060Y017082D01*
X009984Y017181D02*
X008991Y017181D01*
X008991Y017279D02*
X009943Y017279D01*
X009941Y017378D02*
X008991Y017378D01*
X008991Y017476D02*
X009941Y017476D01*
X009941Y017575D02*
X008991Y017575D01*
X008991Y017673D02*
X009941Y017673D01*
X009941Y017772D02*
X008991Y017772D01*
X008991Y017870D02*
X009941Y017870D01*
X009941Y017969D02*
X008991Y017969D01*
X008991Y018067D02*
X009969Y018067D01*
X010023Y018166D02*
X008991Y018166D01*
X008991Y018264D02*
X010138Y018264D01*
X011141Y018363D02*
X008991Y018363D01*
X008991Y018461D02*
X011141Y018461D01*
X011141Y018560D02*
X008991Y018560D01*
X008991Y018658D02*
X011141Y018658D01*
X011141Y018757D02*
X008991Y018757D01*
X008991Y018855D02*
X011141Y018855D01*
X011141Y018954D02*
X008991Y018954D01*
X008991Y019052D02*
X011141Y019052D01*
X011141Y019151D02*
X008991Y019151D01*
X008991Y019249D02*
X011141Y019249D01*
X011141Y019348D02*
X008991Y019348D01*
X008991Y019446D02*
X011141Y019446D01*
X011141Y019545D02*
X008991Y019545D01*
X008991Y019643D02*
X011141Y019643D01*
X011141Y019742D02*
X008991Y019742D01*
X008991Y019840D02*
X011141Y019840D01*
X011141Y019939D02*
X008991Y019939D01*
X008991Y020037D02*
X011141Y020037D01*
X011141Y020136D02*
X008991Y020136D01*
X008991Y020234D02*
X011141Y020234D01*
X011141Y020333D02*
X008991Y020333D01*
X008991Y020431D02*
X011141Y020431D01*
X011087Y020530D02*
X008991Y020530D01*
X008991Y020628D02*
X011062Y020628D01*
X011075Y020727D02*
X008991Y020727D01*
X008991Y020825D02*
X011134Y020825D01*
X011141Y020924D02*
X008991Y020924D01*
X008991Y021022D02*
X011141Y021022D01*
X011141Y021121D02*
X008991Y021121D01*
X008991Y021219D02*
X011141Y021219D01*
X011141Y021318D02*
X008991Y021318D01*
X008991Y021416D02*
X011141Y021416D01*
X011141Y021515D02*
X008991Y021515D01*
X008991Y021613D02*
X011141Y021613D01*
X011141Y021712D02*
X008991Y021712D01*
X008991Y021810D02*
X011141Y021810D01*
X011141Y021909D02*
X008991Y021909D01*
X008991Y022007D02*
X011141Y022007D01*
X011141Y022106D02*
X008991Y022106D01*
X008991Y022204D02*
X011141Y022204D01*
X011141Y022303D02*
X008991Y022303D01*
X008991Y022401D02*
X011141Y022401D01*
X011141Y022500D02*
X008991Y022500D01*
X008991Y022598D02*
X011141Y022598D01*
X011141Y022697D02*
X008991Y022697D01*
X008991Y022795D02*
X011141Y022795D01*
X011141Y022894D02*
X008991Y022894D01*
X008991Y022992D02*
X011141Y022992D01*
X011141Y023091D02*
X008991Y023091D01*
X008991Y023189D02*
X011141Y023189D01*
X011141Y023288D02*
X008991Y023288D01*
X008991Y023386D02*
X011141Y023386D01*
X011141Y023485D02*
X008991Y023485D01*
X008991Y023583D02*
X011141Y023583D01*
X011141Y023682D02*
X008991Y023682D01*
X008991Y023780D02*
X009113Y023780D01*
X009013Y023879D02*
X008991Y023879D01*
X008671Y023879D02*
X008649Y023879D01*
X008662Y023891D02*
X008671Y023914D01*
X008671Y016458D01*
X008531Y016318D01*
X008531Y016352D01*
X008121Y016352D01*
X008121Y016432D01*
X008531Y016432D01*
X008531Y016579D01*
X008267Y016842D01*
X008121Y016842D01*
X008121Y016432D01*
X008041Y016432D01*
X008041Y016352D01*
X007631Y016352D01*
X007631Y016206D01*
X007785Y016052D01*
X007647Y016052D01*
X007484Y016215D01*
X007491Y016222D01*
X007491Y016562D01*
X007321Y016732D01*
X007647Y016732D01*
X007904Y016989D01*
X007911Y016982D01*
X008251Y016982D01*
X008491Y017222D01*
X008491Y017562D01*
X008251Y017802D01*
X007911Y017802D01*
X007671Y017562D01*
X007671Y017222D01*
X007678Y017215D01*
X007515Y017052D01*
X007321Y017052D01*
X007491Y017222D01*
X007491Y017562D01*
X007484Y017569D01*
X007647Y017732D01*
X007741Y017826D01*
X007741Y018152D01*
X007911Y017982D01*
X008251Y017982D01*
X008491Y018222D01*
X008491Y018562D01*
X008251Y018802D01*
X008241Y018802D01*
X008241Y023727D01*
X008254Y023722D01*
X008409Y023722D01*
X008552Y023781D01*
X008662Y023891D01*
X008671Y023780D02*
X008549Y023780D01*
X008671Y023682D02*
X008241Y023682D01*
X008241Y023583D02*
X008671Y023583D01*
X008671Y023485D02*
X008241Y023485D01*
X008241Y023386D02*
X008671Y023386D01*
X008671Y023288D02*
X008241Y023288D01*
X008241Y023189D02*
X008671Y023189D01*
X008671Y023091D02*
X008241Y023091D01*
X008241Y022992D02*
X008671Y022992D01*
X008671Y022894D02*
X008241Y022894D01*
X008241Y022795D02*
X008671Y022795D01*
X008671Y022697D02*
X008241Y022697D01*
X008241Y022598D02*
X008671Y022598D01*
X008671Y022500D02*
X008241Y022500D01*
X008241Y022401D02*
X008671Y022401D01*
X008671Y022303D02*
X008241Y022303D01*
X008241Y022204D02*
X008671Y022204D01*
X008671Y022106D02*
X008241Y022106D01*
X008241Y022007D02*
X008671Y022007D01*
X008671Y021909D02*
X008241Y021909D01*
X008241Y021810D02*
X008671Y021810D01*
X008671Y021712D02*
X008241Y021712D01*
X008241Y021613D02*
X008671Y021613D01*
X008671Y021515D02*
X008241Y021515D01*
X008241Y021416D02*
X008671Y021416D01*
X008671Y021318D02*
X008241Y021318D01*
X008241Y021219D02*
X008671Y021219D01*
X008671Y021121D02*
X008241Y021121D01*
X008241Y021022D02*
X008671Y021022D01*
X008671Y020924D02*
X008241Y020924D01*
X008241Y020825D02*
X008671Y020825D01*
X008671Y020727D02*
X008241Y020727D01*
X008241Y020628D02*
X008671Y020628D01*
X008671Y020530D02*
X008241Y020530D01*
X008241Y020431D02*
X008671Y020431D01*
X008671Y020333D02*
X008241Y020333D01*
X008241Y020234D02*
X008671Y020234D01*
X008671Y020136D02*
X008241Y020136D01*
X008241Y020037D02*
X008671Y020037D01*
X008671Y019939D02*
X008241Y019939D01*
X008241Y019840D02*
X008671Y019840D01*
X008671Y019742D02*
X008241Y019742D01*
X008241Y019643D02*
X008671Y019643D01*
X008671Y019545D02*
X008241Y019545D01*
X008241Y019446D02*
X008671Y019446D01*
X008671Y019348D02*
X008241Y019348D01*
X008241Y019249D02*
X008671Y019249D01*
X008671Y019151D02*
X008241Y019151D01*
X008241Y019052D02*
X008671Y019052D01*
X008671Y018954D02*
X008241Y018954D01*
X008241Y018855D02*
X008671Y018855D01*
X008671Y018757D02*
X008296Y018757D01*
X008395Y018658D02*
X008671Y018658D01*
X008671Y018560D02*
X008491Y018560D01*
X008491Y018461D02*
X008671Y018461D01*
X008671Y018363D02*
X008491Y018363D01*
X008491Y018264D02*
X008671Y018264D01*
X008671Y018166D02*
X008434Y018166D01*
X008336Y018067D02*
X008671Y018067D01*
X008671Y017969D02*
X007741Y017969D01*
X007741Y018067D02*
X007826Y018067D01*
X007741Y017870D02*
X008671Y017870D01*
X008671Y017772D02*
X008281Y017772D01*
X008380Y017673D02*
X008671Y017673D01*
X008671Y017575D02*
X008478Y017575D01*
X008491Y017476D02*
X008671Y017476D01*
X008671Y017378D02*
X008491Y017378D01*
X008491Y017279D02*
X008671Y017279D01*
X008671Y017181D02*
X008449Y017181D01*
X008351Y017082D02*
X008671Y017082D01*
X008671Y016984D02*
X008252Y016984D01*
X008323Y016787D02*
X008671Y016787D01*
X008671Y016885D02*
X007800Y016885D01*
X007895Y016842D02*
X007631Y016579D01*
X007631Y016432D01*
X008041Y016432D01*
X008041Y016842D01*
X007895Y016842D01*
X007839Y016787D02*
X007702Y016787D01*
X007741Y016688D02*
X007365Y016688D01*
X007463Y016590D02*
X007642Y016590D01*
X007631Y016491D02*
X007491Y016491D01*
X007491Y016393D02*
X008041Y016393D01*
X008121Y016393D02*
X008605Y016393D01*
X008671Y016491D02*
X008531Y016491D01*
X008520Y016590D02*
X008671Y016590D01*
X008671Y016688D02*
X008421Y016688D01*
X008121Y016688D02*
X008041Y016688D01*
X008041Y016590D02*
X008121Y016590D01*
X008121Y016491D02*
X008041Y016491D01*
X008041Y016787D02*
X008121Y016787D01*
X007910Y016984D02*
X007899Y016984D01*
X007643Y017181D02*
X007449Y017181D01*
X007491Y017279D02*
X007671Y017279D01*
X007671Y017378D02*
X007491Y017378D01*
X007491Y017476D02*
X007671Y017476D01*
X007684Y017575D02*
X007490Y017575D01*
X007588Y017673D02*
X007782Y017673D01*
X007687Y017772D02*
X007881Y017772D01*
X007581Y017892D02*
X007581Y024142D01*
X007331Y024392D01*
X007721Y024371D02*
X007941Y024371D01*
X007941Y024273D02*
X007721Y024273D01*
X007741Y024174D02*
X007921Y024174D01*
X007921Y024076D02*
X007741Y024076D01*
X007741Y023977D02*
X007921Y023977D01*
X007921Y023879D02*
X007741Y023879D01*
X007741Y023780D02*
X007921Y023780D01*
X007921Y023682D02*
X007741Y023682D01*
X007741Y023583D02*
X007921Y023583D01*
X007921Y023485D02*
X007741Y023485D01*
X007741Y023386D02*
X007921Y023386D01*
X007921Y023288D02*
X007741Y023288D01*
X007741Y023189D02*
X007921Y023189D01*
X007921Y023091D02*
X007741Y023091D01*
X007741Y022992D02*
X007921Y022992D01*
X007921Y022894D02*
X007741Y022894D01*
X007741Y022795D02*
X007921Y022795D01*
X007921Y022697D02*
X007741Y022697D01*
X007741Y022598D02*
X007921Y022598D01*
X007921Y022500D02*
X007741Y022500D01*
X007741Y022401D02*
X007921Y022401D01*
X007921Y022303D02*
X007741Y022303D01*
X007741Y022204D02*
X007921Y022204D01*
X007921Y022106D02*
X007741Y022106D01*
X007741Y022007D02*
X007921Y022007D01*
X007921Y021909D02*
X007741Y021909D01*
X007741Y021810D02*
X007921Y021810D01*
X007921Y021712D02*
X007741Y021712D01*
X007741Y021613D02*
X007921Y021613D01*
X007921Y021515D02*
X007741Y021515D01*
X007741Y021416D02*
X007921Y021416D01*
X007921Y021318D02*
X007741Y021318D01*
X007741Y021219D02*
X007921Y021219D01*
X007921Y021121D02*
X007741Y021121D01*
X007741Y021022D02*
X007921Y021022D01*
X007921Y020924D02*
X007741Y020924D01*
X007741Y020825D02*
X007921Y020825D01*
X007921Y020727D02*
X007741Y020727D01*
X007741Y020628D02*
X007921Y020628D01*
X007921Y020530D02*
X007741Y020530D01*
X007741Y020431D02*
X007921Y020431D01*
X007921Y020333D02*
X007741Y020333D01*
X007741Y020234D02*
X007921Y020234D01*
X007921Y020136D02*
X007741Y020136D01*
X007741Y020037D02*
X007921Y020037D01*
X007921Y019939D02*
X007741Y019939D01*
X007741Y019840D02*
X007921Y019840D01*
X007921Y019742D02*
X007741Y019742D01*
X007741Y019643D02*
X007921Y019643D01*
X007921Y019545D02*
X007741Y019545D01*
X007741Y019446D02*
X007921Y019446D01*
X007921Y019348D02*
X007741Y019348D01*
X007741Y019249D02*
X007921Y019249D01*
X007921Y019151D02*
X007741Y019151D01*
X007741Y019052D02*
X007921Y019052D01*
X007921Y018954D02*
X007741Y018954D01*
X007741Y018855D02*
X007921Y018855D01*
X007866Y018757D02*
X007741Y018757D01*
X007741Y018658D02*
X007767Y018658D01*
X008081Y018392D02*
X008081Y024142D01*
X008331Y024392D01*
X007941Y024470D02*
X007721Y024470D01*
X007721Y024568D02*
X007941Y024568D01*
X007941Y024667D02*
X007721Y024667D01*
X007715Y024765D02*
X007948Y024765D01*
X007988Y024864D02*
X007674Y024864D01*
X007593Y024962D02*
X008070Y024962D01*
X008250Y025061D02*
X007412Y025061D01*
X007250Y025061D02*
X006412Y025061D01*
X006250Y025061D02*
X005412Y025061D01*
X005250Y025061D02*
X004412Y025061D01*
X004409Y025062D02*
X004254Y025062D01*
X004110Y025003D01*
X004000Y024893D01*
X003941Y024750D01*
X003941Y024035D01*
X004000Y023891D01*
X004110Y023781D01*
X004254Y023722D01*
X004409Y023722D01*
X004552Y023781D01*
X004662Y023891D01*
X004721Y024035D01*
X004721Y024750D01*
X004662Y024893D01*
X004552Y025003D01*
X004409Y025062D01*
X004250Y025061D02*
X003412Y025061D01*
X003250Y025061D02*
X002991Y025061D01*
X002991Y025159D02*
X008872Y025159D01*
X008773Y025061D02*
X008412Y025061D01*
X008593Y024962D02*
X008675Y024962D01*
X008970Y025258D02*
X002991Y025258D01*
X002991Y025356D02*
X009069Y025356D01*
X009167Y025455D02*
X002991Y025455D01*
X002991Y025553D02*
X009266Y025553D01*
X009364Y025652D02*
X002991Y025652D01*
X002991Y025750D02*
X009463Y025750D01*
X009561Y025849D02*
X002991Y025849D01*
X002991Y025947D02*
X009660Y025947D01*
X009758Y026046D02*
X002991Y026046D01*
X002991Y026144D02*
X015357Y026144D01*
X015455Y026243D02*
X002991Y026243D01*
X002991Y026341D02*
X015554Y026341D01*
X015652Y026440D02*
X002991Y026440D01*
X002991Y026538D02*
X015751Y026538D01*
X015849Y026637D02*
X002991Y026637D01*
X002991Y026735D02*
X003222Y026735D01*
X003058Y026834D02*
X002991Y026834D01*
X002671Y026834D02*
X002491Y026834D01*
X002491Y026932D02*
X002671Y026932D01*
X002671Y027031D02*
X002491Y027031D01*
X002491Y027129D02*
X002671Y027129D01*
X002671Y027228D02*
X002491Y027228D01*
X002491Y027326D02*
X002671Y027326D01*
X002671Y027425D02*
X002491Y027425D01*
X002491Y027523D02*
X002671Y027523D01*
X002671Y027622D02*
X002491Y027622D01*
X002491Y027720D02*
X002671Y027720D01*
X002671Y027819D02*
X002491Y027819D01*
X002491Y027917D02*
X002671Y027917D01*
X002671Y028016D02*
X002491Y028016D01*
X002491Y028114D02*
X002671Y028114D01*
X002671Y028213D02*
X002491Y028213D01*
X002491Y028311D02*
X002671Y028311D01*
X002671Y028410D02*
X002491Y028410D01*
X002491Y028508D02*
X002596Y028508D01*
X002562Y028607D02*
X002491Y028607D01*
X002491Y028705D02*
X002566Y028705D01*
X002613Y028804D02*
X002491Y028804D01*
X002491Y028902D02*
X002757Y028902D01*
X002906Y028902D02*
X003171Y028902D01*
X003171Y028804D02*
X003050Y028804D01*
X003096Y028705D02*
X003171Y028705D01*
X003171Y028607D02*
X003100Y028607D01*
X003066Y028508D02*
X003171Y028508D01*
X003171Y028410D02*
X002991Y028410D01*
X002991Y028311D02*
X003186Y028311D01*
X003284Y028213D02*
X002991Y028213D01*
X002991Y028114D02*
X003383Y028114D01*
X003141Y028016D02*
X002991Y028016D01*
X002991Y027917D02*
X003025Y027917D01*
X003331Y028392D02*
X004331Y027392D01*
X004721Y027425D02*
X004941Y027425D01*
X004941Y027523D02*
X004721Y027523D01*
X004721Y027622D02*
X004941Y027622D01*
X004941Y027720D02*
X004721Y027720D01*
X004693Y027819D02*
X004970Y027819D01*
X004941Y027750D02*
X004941Y027035D01*
X005000Y026891D01*
X005110Y026781D01*
X005254Y026722D01*
X005409Y026722D01*
X005552Y026781D01*
X005662Y026891D01*
X005721Y027035D01*
X005721Y027750D01*
X005662Y027893D01*
X005552Y028003D01*
X005409Y028062D01*
X005254Y028062D01*
X005110Y028003D01*
X005000Y027893D01*
X004941Y027750D01*
X005025Y027917D02*
X004638Y027917D01*
X004521Y028016D02*
X005141Y028016D01*
X004941Y027326D02*
X004721Y027326D01*
X004721Y027228D02*
X004941Y027228D01*
X004941Y027129D02*
X004721Y027129D01*
X004719Y027031D02*
X004943Y027031D01*
X004984Y026932D02*
X004679Y026932D01*
X004604Y026834D02*
X005058Y026834D01*
X005222Y026735D02*
X004440Y026735D01*
X004222Y026735D02*
X003440Y026735D01*
X003604Y026834D02*
X004058Y026834D01*
X003984Y026932D02*
X003679Y026932D01*
X003719Y027031D02*
X003943Y027031D01*
X003941Y027129D02*
X003721Y027129D01*
X003721Y027228D02*
X003941Y027228D01*
X003941Y027326D02*
X003721Y027326D01*
X003721Y027425D02*
X003941Y027425D01*
X003941Y027523D02*
X003721Y027523D01*
X003721Y027622D02*
X003875Y027622D01*
X003777Y027720D02*
X003721Y027720D01*
X003934Y028016D02*
X004141Y028016D01*
X003835Y028114D02*
X006171Y028114D01*
X006171Y028213D02*
X003737Y028213D01*
X003638Y028311D02*
X006171Y028311D01*
X006171Y028410D02*
X003540Y028410D01*
X003491Y028508D02*
X006171Y028508D01*
X006171Y028607D02*
X003491Y028607D01*
X003491Y028705D02*
X006171Y028705D01*
X006171Y028804D02*
X003491Y028804D01*
X003491Y028902D02*
X006171Y028902D01*
X006171Y029001D02*
X003491Y029001D01*
X003491Y029099D02*
X006171Y029099D01*
X006171Y029198D02*
X003491Y029198D01*
X003491Y029296D02*
X006171Y029296D01*
X006171Y029395D02*
X003491Y029395D01*
X003491Y029493D02*
X006171Y029493D01*
X006171Y029592D02*
X003491Y029592D01*
X003491Y029690D02*
X006171Y029690D01*
X006171Y029789D02*
X003491Y029789D01*
X003491Y029887D02*
X006171Y029887D01*
X006171Y029986D02*
X005941Y029986D01*
X006105Y030084D02*
X006171Y030084D01*
X006491Y030084D02*
X006558Y030084D01*
X006491Y029986D02*
X006721Y029986D01*
X006941Y029986D02*
X011171Y029986D01*
X011171Y030084D02*
X007105Y030084D01*
X007179Y030183D02*
X011171Y030183D01*
X011171Y030281D02*
X007220Y030281D01*
X007221Y030380D02*
X011171Y030380D01*
X011171Y030478D02*
X007221Y030478D01*
X007221Y030577D02*
X011171Y030577D01*
X011171Y030675D02*
X007221Y030675D01*
X007221Y030774D02*
X011171Y030774D01*
X011171Y030872D02*
X007221Y030872D01*
X007221Y030971D02*
X011171Y030971D01*
X011171Y031069D02*
X007192Y031069D01*
X007137Y031168D02*
X011171Y031168D01*
X011171Y031266D02*
X007020Y031266D01*
X006643Y031266D02*
X006491Y031266D01*
X006491Y031168D02*
X006525Y031168D01*
X006491Y031365D02*
X011171Y031365D01*
X011171Y031463D02*
X006491Y031463D01*
X006491Y031562D02*
X011171Y031562D01*
X011171Y031660D02*
X006491Y031660D01*
X006491Y031759D02*
X011171Y031759D01*
X011171Y031857D02*
X006491Y031857D01*
X006491Y031956D02*
X011171Y031956D01*
X011171Y032054D02*
X006491Y032054D01*
X006568Y032153D02*
X011171Y032153D01*
X011171Y032208D02*
X011171Y028028D01*
X011110Y028003D01*
X011000Y027893D01*
X010941Y027750D01*
X010941Y027035D01*
X011000Y026891D01*
X011110Y026781D01*
X011254Y026722D01*
X011409Y026722D01*
X011552Y026781D01*
X011662Y026891D01*
X011721Y027035D01*
X011721Y027750D01*
X011662Y027893D01*
X011552Y028003D01*
X011491Y028028D01*
X011491Y032076D01*
X011667Y032252D01*
X012157Y032252D01*
X012221Y032317D01*
X012221Y032968D01*
X012157Y033032D01*
X011506Y033032D01*
X011441Y032968D01*
X011441Y032478D01*
X011265Y032302D01*
X011171Y032208D01*
X011214Y032251D02*
X006666Y032251D01*
X006411Y032448D02*
X006261Y032448D01*
X006261Y032350D02*
X006312Y032350D01*
X006214Y032251D02*
X006212Y032251D01*
X006171Y032153D02*
X005521Y032153D01*
X005521Y032054D02*
X006171Y032054D01*
X006171Y031956D02*
X005521Y031956D01*
X005521Y031857D02*
X006171Y031857D01*
X006171Y031759D02*
X005521Y031759D01*
X005521Y031660D02*
X006171Y031660D01*
X006171Y031562D02*
X005521Y031562D01*
X005521Y031463D02*
X006171Y031463D01*
X006171Y031365D02*
X005521Y031365D01*
X005521Y031266D02*
X005643Y031266D01*
X005332Y030872D02*
X005261Y030872D01*
X005261Y030774D02*
X005431Y030774D01*
X005441Y030675D02*
X005261Y030675D01*
X005261Y030612D02*
X004861Y030612D01*
X004861Y029932D01*
X004865Y029932D01*
X004932Y029943D01*
X004996Y029964D01*
X005056Y029994D01*
X005111Y030034D01*
X005159Y030082D01*
X005199Y030137D01*
X005230Y030197D01*
X005251Y030261D01*
X005261Y030328D01*
X005261Y030612D01*
X005261Y030577D02*
X005441Y030577D01*
X005441Y030478D02*
X005261Y030478D01*
X005261Y030380D02*
X005441Y030380D01*
X005443Y030281D02*
X005254Y030281D01*
X005222Y030183D02*
X005483Y030183D01*
X005558Y030084D02*
X005161Y030084D01*
X005039Y029986D02*
X005721Y029986D01*
X006491Y029887D02*
X011171Y029887D01*
X011171Y029789D02*
X006491Y029789D01*
X006491Y029690D02*
X011171Y029690D01*
X011171Y029592D02*
X006491Y029592D01*
X006491Y029493D02*
X011171Y029493D01*
X011171Y029395D02*
X006491Y029395D01*
X006491Y029296D02*
X011171Y029296D01*
X011171Y029198D02*
X009777Y029198D01*
X009752Y029223D02*
X009609Y029282D01*
X009454Y029282D01*
X009310Y029223D01*
X009200Y029113D01*
X009141Y028970D01*
X009141Y028815D01*
X009166Y028754D01*
X008455Y028043D01*
X008409Y028062D01*
X008254Y028062D01*
X008110Y028003D01*
X008000Y027893D01*
X007941Y027750D01*
X007941Y027035D01*
X008000Y026891D01*
X008110Y026781D01*
X008254Y026722D01*
X008409Y026722D01*
X008552Y026781D01*
X008662Y026891D01*
X008721Y027035D01*
X008721Y027750D01*
X008690Y027825D01*
X009393Y028527D01*
X009454Y028502D01*
X009609Y028502D01*
X009752Y028561D01*
X009862Y028671D01*
X009921Y028815D01*
X009921Y028970D01*
X009862Y029113D01*
X009752Y029223D01*
X009867Y029099D02*
X011171Y029099D01*
X011171Y029001D02*
X009908Y029001D01*
X009921Y028902D02*
X011171Y028902D01*
X011171Y028804D02*
X009917Y028804D01*
X009876Y028705D02*
X011171Y028705D01*
X011171Y028607D02*
X009797Y028607D01*
X009623Y028508D02*
X011171Y028508D01*
X011171Y028410D02*
X009275Y028410D01*
X009373Y028508D02*
X009439Y028508D01*
X009176Y028311D02*
X011171Y028311D01*
X011171Y028213D02*
X009078Y028213D01*
X008979Y028114D02*
X011171Y028114D01*
X011141Y028016D02*
X010521Y028016D01*
X010552Y028003D02*
X010409Y028062D01*
X010254Y028062D01*
X010110Y028003D01*
X010000Y027893D01*
X009941Y027750D01*
X009941Y027035D01*
X010000Y026891D01*
X010110Y026781D01*
X010254Y026722D01*
X010409Y026722D01*
X010552Y026781D01*
X010662Y026891D01*
X010721Y027035D01*
X010721Y027750D01*
X010662Y027893D01*
X010552Y028003D01*
X010638Y027917D02*
X011025Y027917D01*
X010970Y027819D02*
X010693Y027819D01*
X010721Y027720D02*
X010941Y027720D01*
X010941Y027622D02*
X010721Y027622D01*
X010721Y027523D02*
X010941Y027523D01*
X010941Y027425D02*
X010721Y027425D01*
X010721Y027326D02*
X010941Y027326D01*
X010941Y027228D02*
X010721Y027228D01*
X010721Y027129D02*
X010941Y027129D01*
X010943Y027031D02*
X010719Y027031D01*
X010679Y026932D02*
X010984Y026932D01*
X011058Y026834D02*
X010604Y026834D01*
X010440Y026735D02*
X011222Y026735D01*
X011440Y026735D02*
X012222Y026735D01*
X012254Y026722D02*
X012110Y026781D01*
X012000Y026891D01*
X011941Y027035D01*
X011941Y027750D01*
X012000Y027893D01*
X012110Y028003D01*
X012171Y028028D01*
X012171Y032208D01*
X012265Y032302D01*
X012441Y032478D01*
X012441Y032968D01*
X012506Y033032D01*
X013157Y033032D01*
X013221Y032968D01*
X013221Y032317D01*
X013157Y032252D01*
X012667Y032252D01*
X012491Y032076D01*
X012491Y028028D01*
X012552Y028003D01*
X012662Y027893D01*
X012721Y027750D01*
X012721Y027035D01*
X012662Y026891D01*
X012552Y026781D01*
X012409Y026722D01*
X012254Y026722D01*
X012440Y026735D02*
X013222Y026735D01*
X013254Y026722D02*
X013110Y026781D01*
X013000Y026891D01*
X012941Y027035D01*
X012941Y027750D01*
X013000Y027893D01*
X013110Y028003D01*
X013171Y028028D01*
X013171Y032208D01*
X013265Y032302D01*
X013441Y032478D01*
X013441Y032968D01*
X013506Y033032D01*
X014157Y033032D01*
X014221Y032968D01*
X014221Y032317D01*
X014157Y032252D01*
X013667Y032252D01*
X013491Y032076D01*
X013491Y028028D01*
X013552Y028003D01*
X013662Y027893D01*
X013721Y027750D01*
X013721Y027035D01*
X013662Y026891D01*
X013552Y026781D01*
X013409Y026722D01*
X013254Y026722D01*
X013440Y026735D02*
X014222Y026735D01*
X014254Y026722D02*
X014110Y026781D01*
X014000Y026891D01*
X013941Y027035D01*
X013941Y027750D01*
X014000Y027893D01*
X014110Y028003D01*
X014171Y028028D01*
X014171Y032208D01*
X014265Y032302D01*
X014441Y032478D01*
X014441Y032968D01*
X014506Y033032D01*
X015157Y033032D01*
X015221Y032968D01*
X015221Y032317D01*
X015157Y032252D01*
X014667Y032252D01*
X014491Y032076D01*
X014491Y028028D01*
X014552Y028003D01*
X014662Y027893D01*
X014721Y027750D01*
X014721Y027035D01*
X014662Y026891D01*
X014552Y026781D01*
X014409Y026722D01*
X014254Y026722D01*
X014440Y026735D02*
X015222Y026735D01*
X015254Y026722D02*
X015110Y026781D01*
X015000Y026891D01*
X014941Y027035D01*
X014941Y027750D01*
X015000Y027893D01*
X015110Y028003D01*
X015254Y028062D01*
X015409Y028062D01*
X015552Y028003D01*
X015662Y027893D01*
X015721Y027750D01*
X015721Y027035D01*
X015662Y026891D01*
X015552Y026781D01*
X015409Y026722D01*
X015254Y026722D01*
X015440Y026735D02*
X015948Y026735D01*
X016046Y026834D02*
X015604Y026834D01*
X015679Y026932D02*
X015984Y026932D01*
X015943Y027031D02*
X015719Y027031D01*
X015721Y027129D02*
X015941Y027129D01*
X015941Y027228D02*
X015721Y027228D01*
X015721Y027326D02*
X015941Y027326D01*
X015941Y027425D02*
X015721Y027425D01*
X015721Y027523D02*
X015941Y027523D01*
X015941Y027622D02*
X015721Y027622D01*
X015721Y027720D02*
X015941Y027720D01*
X015970Y027819D02*
X015693Y027819D01*
X015638Y027917D02*
X016025Y027917D01*
X016141Y028016D02*
X015521Y028016D01*
X015141Y028016D02*
X014521Y028016D01*
X014491Y028114D02*
X017827Y028114D01*
X017728Y028016D02*
X016521Y028016D01*
X016638Y027917D02*
X017630Y027917D01*
X017531Y027819D02*
X016693Y027819D01*
X016721Y027720D02*
X017433Y027720D01*
X017334Y027622D02*
X016721Y027622D01*
X016721Y027523D02*
X017236Y027523D01*
X017137Y027425D02*
X016721Y027425D01*
X016721Y027326D02*
X017039Y027326D01*
X016940Y027228D02*
X016721Y027228D01*
X016721Y027129D02*
X016842Y027129D01*
X016743Y027031D02*
X016719Y027031D01*
X016831Y026892D02*
X018331Y028392D01*
X018122Y028410D02*
X014491Y028410D01*
X014491Y028508D02*
X018141Y028508D01*
X018141Y028607D02*
X014491Y028607D01*
X014491Y028705D02*
X018141Y028705D01*
X018141Y028804D02*
X014491Y028804D01*
X014491Y028902D02*
X018141Y028902D01*
X018141Y029001D02*
X014491Y029001D01*
X014491Y029099D02*
X018141Y029099D01*
X018141Y029198D02*
X014491Y029198D01*
X014491Y029296D02*
X018141Y029296D01*
X018141Y029395D02*
X014491Y029395D01*
X014491Y029493D02*
X018141Y029493D01*
X018141Y029592D02*
X014491Y029592D01*
X014491Y029690D02*
X017403Y029690D01*
X017333Y029789D02*
X014491Y029789D01*
X014491Y029887D02*
X017312Y029887D01*
X017261Y029986D02*
X014491Y029986D01*
X014491Y030084D02*
X017171Y030084D01*
X017171Y030183D02*
X014491Y030183D01*
X014491Y030281D02*
X017171Y030281D01*
X017171Y030380D02*
X014491Y030380D01*
X014491Y030478D02*
X017171Y030478D01*
X017171Y030577D02*
X014491Y030577D01*
X014491Y030675D02*
X017171Y030675D01*
X017171Y030774D02*
X014491Y030774D01*
X014491Y030872D02*
X017171Y030872D01*
X017171Y030971D02*
X014491Y030971D01*
X014491Y031069D02*
X017171Y031069D01*
X017171Y031168D02*
X014491Y031168D01*
X014491Y031266D02*
X017171Y031266D01*
X017171Y031365D02*
X014491Y031365D01*
X014491Y031463D02*
X017171Y031463D01*
X017171Y031562D02*
X014491Y031562D01*
X014491Y031660D02*
X017171Y031660D01*
X017171Y031759D02*
X014491Y031759D01*
X014491Y031857D02*
X017171Y031857D01*
X017171Y031956D02*
X014491Y031956D01*
X014491Y032054D02*
X017171Y032054D01*
X017171Y032153D02*
X014568Y032153D01*
X014666Y032251D02*
X015450Y032251D01*
X015459Y032242D02*
X015493Y032222D01*
X015531Y032212D01*
X015801Y032212D01*
X015801Y032612D01*
X015861Y032612D01*
X015861Y032212D01*
X016131Y032212D01*
X016169Y032222D01*
X016203Y032242D01*
X016231Y032270D01*
X016251Y032304D01*
X016261Y032342D01*
X016261Y032612D01*
X015861Y032612D01*
X015861Y032672D01*
X016261Y032672D01*
X016261Y032942D01*
X016251Y032980D01*
X016231Y033014D01*
X016203Y033042D01*
X016169Y033062D01*
X016131Y033072D01*
X015861Y033072D01*
X015861Y032672D01*
X015801Y032672D01*
X015801Y032612D01*
X015401Y032612D01*
X015401Y032342D01*
X015411Y032304D01*
X015431Y032270D01*
X015459Y032242D01*
X015401Y032350D02*
X015221Y032350D01*
X015221Y032448D02*
X015401Y032448D01*
X015401Y032547D02*
X015221Y032547D01*
X015221Y032645D02*
X015801Y032645D01*
X015801Y032672D02*
X015401Y032672D01*
X015401Y032942D01*
X015411Y032980D01*
X015431Y033014D01*
X015459Y033042D01*
X015493Y033062D01*
X015531Y033072D01*
X015801Y033072D01*
X015801Y032672D01*
X015861Y032645D02*
X016441Y032645D01*
X016441Y032547D02*
X016261Y032547D01*
X016261Y032448D02*
X016441Y032448D01*
X016441Y032350D02*
X016261Y032350D01*
X016212Y032251D02*
X017171Y032251D01*
X016831Y032642D02*
X016081Y033392D01*
X011581Y033392D01*
X010831Y032642D01*
X011221Y032645D02*
X011441Y032645D01*
X011441Y032547D02*
X011221Y032547D01*
X011221Y032448D02*
X011411Y032448D01*
X011312Y032350D02*
X011221Y032350D01*
X011331Y032142D02*
X011331Y027392D01*
X011721Y027425D02*
X011941Y027425D01*
X011941Y027523D02*
X011721Y027523D01*
X011721Y027622D02*
X011941Y027622D01*
X011941Y027720D02*
X011721Y027720D01*
X011693Y027819D02*
X011970Y027819D01*
X012025Y027917D02*
X011638Y027917D01*
X011521Y028016D02*
X012141Y028016D01*
X012171Y028114D02*
X011491Y028114D01*
X011491Y028213D02*
X012171Y028213D01*
X012171Y028311D02*
X011491Y028311D01*
X011491Y028410D02*
X012171Y028410D01*
X012171Y028508D02*
X011491Y028508D01*
X011491Y028607D02*
X012171Y028607D01*
X012171Y028705D02*
X011491Y028705D01*
X011491Y028804D02*
X012171Y028804D01*
X012171Y028902D02*
X011491Y028902D01*
X011491Y029001D02*
X012171Y029001D01*
X012171Y029099D02*
X011491Y029099D01*
X011491Y029198D02*
X012171Y029198D01*
X012171Y029296D02*
X011491Y029296D01*
X011491Y029395D02*
X012171Y029395D01*
X012171Y029493D02*
X011491Y029493D01*
X011491Y029592D02*
X012171Y029592D01*
X012171Y029690D02*
X011491Y029690D01*
X011491Y029789D02*
X012171Y029789D01*
X012171Y029887D02*
X011491Y029887D01*
X011491Y029986D02*
X012171Y029986D01*
X012171Y030084D02*
X011491Y030084D01*
X011491Y030183D02*
X012171Y030183D01*
X012171Y030281D02*
X011491Y030281D01*
X011491Y030380D02*
X012171Y030380D01*
X012171Y030478D02*
X011491Y030478D01*
X011491Y030577D02*
X012171Y030577D01*
X012171Y030675D02*
X011491Y030675D01*
X011491Y030774D02*
X012171Y030774D01*
X012171Y030872D02*
X011491Y030872D01*
X011491Y030971D02*
X012171Y030971D01*
X012171Y031069D02*
X011491Y031069D01*
X011491Y031168D02*
X012171Y031168D01*
X012171Y031266D02*
X011491Y031266D01*
X011491Y031365D02*
X012171Y031365D01*
X012171Y031463D02*
X011491Y031463D01*
X011491Y031562D02*
X012171Y031562D01*
X012171Y031660D02*
X011491Y031660D01*
X011491Y031759D02*
X012171Y031759D01*
X012171Y031857D02*
X011491Y031857D01*
X011491Y031956D02*
X012171Y031956D01*
X012171Y032054D02*
X011491Y032054D01*
X011568Y032153D02*
X012171Y032153D01*
X012214Y032251D02*
X011666Y032251D01*
X011331Y032142D02*
X011831Y032642D01*
X012221Y032645D02*
X012441Y032645D01*
X012441Y032547D02*
X012221Y032547D01*
X012221Y032448D02*
X012411Y032448D01*
X012312Y032350D02*
X012221Y032350D01*
X012331Y032142D02*
X012331Y027392D01*
X012721Y027425D02*
X012941Y027425D01*
X012941Y027523D02*
X012721Y027523D01*
X012721Y027622D02*
X012941Y027622D01*
X012941Y027720D02*
X012721Y027720D01*
X012693Y027819D02*
X012970Y027819D01*
X013025Y027917D02*
X012638Y027917D01*
X012521Y028016D02*
X013141Y028016D01*
X013171Y028114D02*
X012491Y028114D01*
X012491Y028213D02*
X013171Y028213D01*
X013171Y028311D02*
X012491Y028311D01*
X012491Y028410D02*
X013171Y028410D01*
X013171Y028508D02*
X012491Y028508D01*
X012491Y028607D02*
X013171Y028607D01*
X013171Y028705D02*
X012491Y028705D01*
X012491Y028804D02*
X013171Y028804D01*
X013171Y028902D02*
X012491Y028902D01*
X012491Y029001D02*
X013171Y029001D01*
X013171Y029099D02*
X012491Y029099D01*
X012491Y029198D02*
X013171Y029198D01*
X013171Y029296D02*
X012491Y029296D01*
X012491Y029395D02*
X013171Y029395D01*
X013171Y029493D02*
X012491Y029493D01*
X012491Y029592D02*
X013171Y029592D01*
X013171Y029690D02*
X012491Y029690D01*
X012491Y029789D02*
X013171Y029789D01*
X013171Y029887D02*
X012491Y029887D01*
X012491Y029986D02*
X013171Y029986D01*
X013171Y030084D02*
X012491Y030084D01*
X012491Y030183D02*
X013171Y030183D01*
X013171Y030281D02*
X012491Y030281D01*
X012491Y030380D02*
X013171Y030380D01*
X013171Y030478D02*
X012491Y030478D01*
X012491Y030577D02*
X013171Y030577D01*
X013171Y030675D02*
X012491Y030675D01*
X012491Y030774D02*
X013171Y030774D01*
X013171Y030872D02*
X012491Y030872D01*
X012491Y030971D02*
X013171Y030971D01*
X013171Y031069D02*
X012491Y031069D01*
X012491Y031168D02*
X013171Y031168D01*
X013171Y031266D02*
X012491Y031266D01*
X012491Y031365D02*
X013171Y031365D01*
X013171Y031463D02*
X012491Y031463D01*
X012491Y031562D02*
X013171Y031562D01*
X013171Y031660D02*
X012491Y031660D01*
X012491Y031759D02*
X013171Y031759D01*
X013171Y031857D02*
X012491Y031857D01*
X012491Y031956D02*
X013171Y031956D01*
X013171Y032054D02*
X012491Y032054D01*
X012568Y032153D02*
X013171Y032153D01*
X013214Y032251D02*
X012666Y032251D01*
X012331Y032142D02*
X012831Y032642D01*
X013221Y032645D02*
X013441Y032645D01*
X013441Y032547D02*
X013221Y032547D01*
X013221Y032448D02*
X013411Y032448D01*
X013312Y032350D02*
X013221Y032350D01*
X013331Y032142D02*
X013331Y027392D01*
X013721Y027425D02*
X013941Y027425D01*
X013941Y027523D02*
X013721Y027523D01*
X013721Y027622D02*
X013941Y027622D01*
X013941Y027720D02*
X013721Y027720D01*
X013693Y027819D02*
X013970Y027819D01*
X014025Y027917D02*
X013638Y027917D01*
X013521Y028016D02*
X014141Y028016D01*
X014171Y028114D02*
X013491Y028114D01*
X013491Y028213D02*
X014171Y028213D01*
X014171Y028311D02*
X013491Y028311D01*
X013491Y028410D02*
X014171Y028410D01*
X014171Y028508D02*
X013491Y028508D01*
X013491Y028607D02*
X014171Y028607D01*
X014171Y028705D02*
X013491Y028705D01*
X013491Y028804D02*
X014171Y028804D01*
X014171Y028902D02*
X013491Y028902D01*
X013491Y029001D02*
X014171Y029001D01*
X014171Y029099D02*
X013491Y029099D01*
X013491Y029198D02*
X014171Y029198D01*
X014171Y029296D02*
X013491Y029296D01*
X013491Y029395D02*
X014171Y029395D01*
X014171Y029493D02*
X013491Y029493D01*
X013491Y029592D02*
X014171Y029592D01*
X014171Y029690D02*
X013491Y029690D01*
X013491Y029789D02*
X014171Y029789D01*
X014171Y029887D02*
X013491Y029887D01*
X013491Y029986D02*
X014171Y029986D01*
X014171Y030084D02*
X013491Y030084D01*
X013491Y030183D02*
X014171Y030183D01*
X014171Y030281D02*
X013491Y030281D01*
X013491Y030380D02*
X014171Y030380D01*
X014171Y030478D02*
X013491Y030478D01*
X013491Y030577D02*
X014171Y030577D01*
X014171Y030675D02*
X013491Y030675D01*
X013491Y030774D02*
X014171Y030774D01*
X014171Y030872D02*
X013491Y030872D01*
X013491Y030971D02*
X014171Y030971D01*
X014171Y031069D02*
X013491Y031069D01*
X013491Y031168D02*
X014171Y031168D01*
X014171Y031266D02*
X013491Y031266D01*
X013491Y031365D02*
X014171Y031365D01*
X014171Y031463D02*
X013491Y031463D01*
X013491Y031562D02*
X014171Y031562D01*
X014171Y031660D02*
X013491Y031660D01*
X013491Y031759D02*
X014171Y031759D01*
X014171Y031857D02*
X013491Y031857D01*
X013491Y031956D02*
X014171Y031956D01*
X014171Y032054D02*
X013491Y032054D01*
X013568Y032153D02*
X014171Y032153D01*
X014214Y032251D02*
X013666Y032251D01*
X013331Y032142D02*
X013831Y032642D01*
X014221Y032645D02*
X014441Y032645D01*
X014441Y032547D02*
X014221Y032547D01*
X014221Y032448D02*
X014411Y032448D01*
X014312Y032350D02*
X014221Y032350D01*
X014331Y032142D02*
X014331Y027392D01*
X014721Y027425D02*
X014941Y027425D01*
X014941Y027523D02*
X014721Y027523D01*
X014721Y027622D02*
X014941Y027622D01*
X014941Y027720D02*
X014721Y027720D01*
X014693Y027819D02*
X014970Y027819D01*
X015025Y027917D02*
X014638Y027917D01*
X014491Y028213D02*
X017925Y028213D01*
X018024Y028311D02*
X014491Y028311D01*
X014721Y027326D02*
X014941Y027326D01*
X014941Y027228D02*
X014721Y027228D01*
X014721Y027129D02*
X014941Y027129D01*
X014943Y027031D02*
X014719Y027031D01*
X014679Y026932D02*
X014984Y026932D01*
X015058Y026834D02*
X014604Y026834D01*
X014058Y026834D02*
X013604Y026834D01*
X013679Y026932D02*
X013984Y026932D01*
X013943Y027031D02*
X013719Y027031D01*
X013721Y027129D02*
X013941Y027129D01*
X013941Y027228D02*
X013721Y027228D01*
X013721Y027326D02*
X013941Y027326D01*
X013058Y026834D02*
X012604Y026834D01*
X012679Y026932D02*
X012984Y026932D01*
X012943Y027031D02*
X012719Y027031D01*
X012721Y027129D02*
X012941Y027129D01*
X012941Y027228D02*
X012721Y027228D01*
X012721Y027326D02*
X012941Y027326D01*
X012058Y026834D02*
X011604Y026834D01*
X011679Y026932D02*
X011984Y026932D01*
X011943Y027031D02*
X011719Y027031D01*
X011721Y027129D02*
X011941Y027129D01*
X011941Y027228D02*
X011721Y027228D01*
X011721Y027326D02*
X011941Y027326D01*
X012070Y024962D02*
X011593Y024962D01*
X011674Y024864D02*
X011988Y024864D01*
X011948Y024765D02*
X011715Y024765D01*
X011721Y024667D02*
X011941Y024667D01*
X011941Y024568D02*
X011721Y024568D01*
X011721Y024470D02*
X011941Y024470D01*
X011941Y024371D02*
X011721Y024371D01*
X011721Y024273D02*
X011941Y024273D01*
X011941Y024174D02*
X011721Y024174D01*
X011721Y024076D02*
X011941Y024076D01*
X011965Y023977D02*
X011697Y023977D01*
X011649Y023879D02*
X012013Y023879D01*
X012113Y023780D02*
X011549Y023780D01*
X011521Y023682D02*
X012141Y023682D01*
X012141Y023583D02*
X011521Y023583D01*
X011521Y023485D02*
X012141Y023485D01*
X012141Y023386D02*
X011521Y023386D01*
X011521Y023288D02*
X012141Y023288D01*
X012141Y023189D02*
X011521Y023189D01*
X011521Y023091D02*
X012141Y023091D01*
X012141Y022992D02*
X011521Y022992D01*
X011521Y022894D02*
X012141Y022894D01*
X012141Y022795D02*
X011521Y022795D01*
X011521Y022697D02*
X012141Y022697D01*
X012141Y022598D02*
X011521Y022598D01*
X011521Y022500D02*
X012141Y022500D01*
X012141Y022401D02*
X011521Y022401D01*
X011521Y022303D02*
X012141Y022303D01*
X012141Y022204D02*
X011521Y022204D01*
X011521Y022106D02*
X012141Y022106D01*
X012141Y022007D02*
X011521Y022007D01*
X011521Y021909D02*
X012141Y021909D01*
X012141Y021810D02*
X011521Y021810D01*
X011521Y021712D02*
X012141Y021712D01*
X012141Y021613D02*
X011521Y021613D01*
X011521Y021515D02*
X012141Y021515D01*
X012141Y021416D02*
X011521Y021416D01*
X011521Y021318D02*
X012141Y021318D01*
X012141Y021219D02*
X011521Y021219D01*
X011521Y021121D02*
X012141Y021121D01*
X012141Y021022D02*
X011521Y021022D01*
X011521Y020924D02*
X012141Y020924D01*
X012141Y020825D02*
X011528Y020825D01*
X011587Y020727D02*
X012141Y020727D01*
X012141Y020628D02*
X011600Y020628D01*
X011575Y020530D02*
X012141Y020530D01*
X012141Y020431D02*
X011521Y020431D01*
X011521Y020333D02*
X012141Y020333D01*
X012141Y020234D02*
X011521Y020234D01*
X011521Y020136D02*
X012141Y020136D01*
X012141Y020037D02*
X011521Y020037D01*
X011521Y019939D02*
X012141Y019939D01*
X012141Y019840D02*
X011521Y019840D01*
X011521Y019742D02*
X012141Y019742D01*
X012141Y019643D02*
X011521Y019643D01*
X011521Y019545D02*
X012141Y019545D01*
X012141Y019446D02*
X011521Y019446D01*
X011521Y019348D02*
X012141Y019348D01*
X012141Y019249D02*
X012056Y019249D01*
X011607Y019249D02*
X011521Y019249D01*
X012521Y019249D02*
X012607Y019249D01*
X012521Y019348D02*
X013141Y019348D01*
X013141Y019446D02*
X012521Y019446D01*
X012521Y019545D02*
X013141Y019545D01*
X013141Y019643D02*
X012521Y019643D01*
X012521Y019742D02*
X013141Y019742D01*
X013141Y019840D02*
X012521Y019840D01*
X012521Y019939D02*
X013141Y019939D01*
X013141Y020037D02*
X012521Y020037D01*
X012521Y020136D02*
X013141Y020136D01*
X013141Y020234D02*
X012521Y020234D01*
X012521Y020333D02*
X013141Y020333D01*
X013141Y020431D02*
X012521Y020431D01*
X012521Y020530D02*
X013141Y020530D01*
X013141Y020628D02*
X012521Y020628D01*
X012521Y020727D02*
X013141Y020727D01*
X013141Y020825D02*
X012521Y020825D01*
X012521Y020924D02*
X013141Y020924D01*
X013141Y021022D02*
X012521Y021022D01*
X012521Y021121D02*
X013141Y021121D01*
X013141Y021219D02*
X012521Y021219D01*
X012521Y021318D02*
X013141Y021318D01*
X013141Y021416D02*
X012521Y021416D01*
X012521Y021515D02*
X013141Y021515D01*
X013141Y021613D02*
X012521Y021613D01*
X012521Y021712D02*
X013141Y021712D01*
X013141Y021810D02*
X012521Y021810D01*
X012521Y021909D02*
X013141Y021909D01*
X013141Y022007D02*
X012521Y022007D01*
X012521Y022106D02*
X013141Y022106D01*
X013141Y022204D02*
X012521Y022204D01*
X012521Y022303D02*
X013141Y022303D01*
X013141Y022401D02*
X012521Y022401D01*
X012521Y022500D02*
X013141Y022500D01*
X013141Y022598D02*
X012521Y022598D01*
X012521Y022697D02*
X013141Y022697D01*
X013141Y022795D02*
X012521Y022795D01*
X012521Y022894D02*
X013141Y022894D01*
X013141Y022992D02*
X012521Y022992D01*
X012521Y023091D02*
X013141Y023091D01*
X013141Y023189D02*
X012521Y023189D01*
X012521Y023288D02*
X013141Y023288D01*
X013141Y023386D02*
X012521Y023386D01*
X012521Y023485D02*
X013141Y023485D01*
X013141Y023583D02*
X012521Y023583D01*
X012521Y023682D02*
X013141Y023682D01*
X013113Y023780D02*
X012549Y023780D01*
X012649Y023879D02*
X013013Y023879D01*
X012965Y023977D02*
X012697Y023977D01*
X012721Y024076D02*
X012941Y024076D01*
X012941Y024174D02*
X012721Y024174D01*
X012721Y024273D02*
X012941Y024273D01*
X012941Y024371D02*
X012721Y024371D01*
X012721Y024470D02*
X012941Y024470D01*
X012941Y024568D02*
X012721Y024568D01*
X012721Y024667D02*
X012941Y024667D01*
X012948Y024765D02*
X012715Y024765D01*
X012674Y024864D02*
X012988Y024864D01*
X013070Y024962D02*
X012593Y024962D01*
X013593Y024962D02*
X014070Y024962D01*
X013988Y024864D02*
X013674Y024864D01*
X013715Y024765D02*
X013948Y024765D01*
X013941Y024667D02*
X013721Y024667D01*
X013721Y024568D02*
X013941Y024568D01*
X013941Y024470D02*
X013721Y024470D01*
X013721Y024371D02*
X013941Y024371D01*
X013941Y024273D02*
X013721Y024273D01*
X013721Y024174D02*
X013941Y024174D01*
X013941Y024076D02*
X013721Y024076D01*
X013697Y023977D02*
X013965Y023977D01*
X014013Y023879D02*
X013649Y023879D01*
X013549Y023780D02*
X014113Y023780D01*
X014549Y023780D02*
X015113Y023780D01*
X015013Y023879D02*
X014649Y023879D01*
X014697Y023977D02*
X014965Y023977D01*
X014941Y024076D02*
X014721Y024076D01*
X014721Y024174D02*
X014941Y024174D01*
X014941Y024273D02*
X014721Y024273D01*
X014721Y024371D02*
X014941Y024371D01*
X014941Y024470D02*
X014721Y024470D01*
X014721Y024568D02*
X014941Y024568D01*
X014941Y024667D02*
X014721Y024667D01*
X014715Y024765D02*
X014948Y024765D01*
X014988Y024864D02*
X014674Y024864D01*
X014593Y024962D02*
X015070Y024962D01*
X015415Y025750D02*
X016671Y025750D01*
X016671Y025849D02*
X015514Y025849D01*
X015612Y025947D02*
X016671Y025947D01*
X016671Y026046D02*
X015711Y026046D01*
X015809Y026144D02*
X016671Y026144D01*
X016671Y026243D02*
X015908Y026243D01*
X016006Y026341D02*
X016671Y026341D01*
X016671Y026440D02*
X016105Y026440D01*
X016203Y026538D02*
X016671Y026538D01*
X016671Y026637D02*
X016302Y026637D01*
X016440Y026735D02*
X016671Y026735D01*
X016671Y026834D02*
X016604Y026834D01*
X016831Y026892D02*
X016831Y025392D01*
X017066Y025258D02*
X017589Y025258D01*
X017490Y025159D02*
X016971Y025159D01*
X017100Y025356D02*
X021178Y025356D01*
X021183Y025367D02*
X021153Y025307D01*
X021132Y025243D01*
X021121Y025176D01*
X021121Y025172D01*
X021801Y025172D01*
X021801Y025572D01*
X021517Y025572D01*
X021450Y025562D01*
X021386Y025541D01*
X021326Y025510D01*
X021271Y025470D01*
X021223Y025422D01*
X021183Y025367D01*
X021256Y025455D02*
X017096Y025455D01*
X017050Y025553D02*
X021425Y025553D01*
X021293Y025849D02*
X016991Y025849D01*
X016991Y025947D02*
X021210Y025947D01*
X021211Y026341D02*
X020651Y026341D01*
X020552Y026440D02*
X021297Y026440D01*
X021308Y026834D02*
X020158Y026834D01*
X020060Y026932D02*
X021216Y026932D01*
X021175Y027031D02*
X019961Y027031D01*
X019863Y027129D02*
X021161Y027129D01*
X021164Y027228D02*
X019764Y027228D01*
X019666Y027326D02*
X021205Y027326D01*
X021282Y027425D02*
X019567Y027425D01*
X019469Y027523D02*
X021452Y027523D01*
X022210Y027523D02*
X022391Y027523D01*
X022380Y027425D02*
X022391Y027425D01*
X022391Y027622D02*
X019370Y027622D01*
X019272Y027720D02*
X022391Y027720D01*
X022391Y027819D02*
X019173Y027819D01*
X019075Y027917D02*
X022391Y027917D01*
X022391Y028016D02*
X018976Y028016D01*
X018928Y028123D02*
X019035Y028123D01*
X019133Y028164D01*
X019209Y028240D01*
X019250Y028339D01*
X019250Y028435D01*
X019791Y028976D01*
X019791Y031422D01*
X019859Y031490D01*
X019900Y031589D01*
X019900Y031696D01*
X019859Y031794D01*
X019783Y031870D01*
X019685Y031911D01*
X019578Y031911D01*
X019479Y031870D01*
X019403Y031794D01*
X019362Y031696D01*
X019362Y031589D01*
X019403Y031490D01*
X019471Y031422D01*
X019471Y029108D01*
X019024Y028661D01*
X018928Y028661D01*
X018829Y028620D01*
X018753Y028544D01*
X018712Y028446D01*
X018712Y028339D01*
X018753Y028240D01*
X018829Y028164D01*
X018928Y028123D01*
X018878Y028114D02*
X022391Y028114D01*
X022391Y028213D02*
X019182Y028213D01*
X019238Y028311D02*
X022391Y028311D01*
X022391Y028410D02*
X019250Y028410D01*
X019323Y028508D02*
X022391Y028508D01*
X022391Y028607D02*
X019422Y028607D01*
X019520Y028705D02*
X022391Y028705D01*
X022391Y028804D02*
X019619Y028804D01*
X019717Y028902D02*
X022391Y028902D01*
X022391Y029001D02*
X019791Y029001D01*
X019791Y029099D02*
X022391Y029099D01*
X022391Y029198D02*
X021193Y029198D01*
X021312Y029296D02*
X022391Y029296D01*
X022391Y029395D02*
X021350Y029395D01*
X021350Y029493D02*
X022391Y029493D01*
X022391Y029592D02*
X021310Y029592D01*
X021241Y029690D02*
X022391Y029690D01*
X022391Y029789D02*
X021241Y029789D01*
X021241Y029887D02*
X022391Y029887D01*
X022391Y029986D02*
X021241Y029986D01*
X021241Y030084D02*
X022391Y030084D01*
X022391Y030183D02*
X021241Y030183D01*
X021241Y030281D02*
X022391Y030281D01*
X022391Y030380D02*
X021241Y030380D01*
X021241Y030478D02*
X022391Y030478D01*
X022391Y030577D02*
X021241Y030577D01*
X021241Y030675D02*
X022391Y030675D01*
X022391Y030774D02*
X021241Y030774D01*
X021241Y030872D02*
X022391Y030872D01*
X022391Y030971D02*
X021241Y030971D01*
X021241Y031069D02*
X022391Y031069D01*
X022391Y031168D02*
X021241Y031168D01*
X021241Y031266D02*
X022391Y031266D01*
X022391Y031365D02*
X021241Y031365D01*
X021241Y031463D02*
X022391Y031463D01*
X022391Y031562D02*
X021188Y031562D01*
X021089Y031660D02*
X022391Y031660D01*
X022391Y031759D02*
X020991Y031759D01*
X020892Y031857D02*
X022391Y031857D01*
X022391Y031956D02*
X021525Y031956D01*
X021586Y032054D02*
X022391Y032054D01*
X022391Y032153D02*
X021600Y032153D01*
X021577Y032251D02*
X022391Y032251D01*
X022391Y032350D02*
X022221Y032350D01*
X022221Y032448D02*
X022391Y032448D01*
X022391Y032547D02*
X022221Y032547D01*
X022221Y032645D02*
X022391Y032645D01*
X022391Y032744D02*
X022221Y032744D01*
X022221Y032842D02*
X022391Y032842D01*
X022391Y032941D02*
X022221Y032941D01*
X022333Y033039D02*
X021491Y033039D01*
X021491Y033138D02*
X022312Y033138D01*
X022329Y033236D02*
X021491Y033236D01*
X021491Y033335D02*
X022394Y033335D01*
X022468Y033926D02*
X023228Y033926D01*
X023228Y034024D02*
X022588Y034024D01*
X022670Y034123D02*
X023228Y034123D01*
X023228Y034221D02*
X022711Y034221D01*
X022741Y034320D02*
X023228Y034320D01*
X023228Y034418D02*
X022741Y034418D01*
X022738Y034517D02*
X023228Y034517D01*
X023228Y034615D02*
X022697Y034615D01*
X022654Y034714D02*
X023228Y034714D01*
X023228Y034812D02*
X022556Y034812D01*
X022390Y034911D02*
X023228Y034911D01*
X023228Y033827D02*
X021122Y033827D01*
X021221Y033729D02*
X023228Y033729D01*
X023228Y033630D02*
X021319Y033630D01*
X021418Y033532D02*
X023228Y033532D01*
X021331Y033392D02*
X021331Y032142D01*
X021137Y031956D02*
X020794Y031956D01*
X020695Y032054D02*
X021077Y032054D01*
X021062Y032153D02*
X020597Y032153D01*
X020498Y032251D02*
X021085Y032251D01*
X021171Y033039D02*
X020491Y033039D01*
X020491Y033138D02*
X021171Y033138D01*
X021171Y033236D02*
X020491Y033236D01*
X020491Y033335D02*
X021162Y033335D01*
X021064Y033433D02*
X020491Y033433D01*
X020491Y033532D02*
X020965Y033532D01*
X020867Y033630D02*
X020491Y033630D01*
X020491Y033729D02*
X020768Y033729D01*
X020671Y033827D02*
X020491Y033827D01*
X020491Y033926D02*
X020671Y033926D01*
X020671Y034024D02*
X020491Y034024D01*
X020491Y034123D02*
X020671Y034123D01*
X020671Y034221D02*
X020491Y034221D01*
X020491Y034320D02*
X020671Y034320D01*
X020671Y034418D02*
X020491Y034418D01*
X020491Y034517D02*
X020671Y034517D01*
X020671Y034615D02*
X020491Y034615D01*
X020491Y034714D02*
X020671Y034714D01*
X020671Y034812D02*
X020491Y034812D01*
X020491Y034911D02*
X020671Y034911D01*
X020671Y035009D02*
X020491Y035009D01*
X020491Y035108D02*
X020671Y035108D01*
X020671Y035206D02*
X020491Y035206D01*
X020491Y035305D02*
X020671Y035305D01*
X020671Y035403D02*
X020491Y035403D01*
X020491Y035502D02*
X020671Y035502D01*
X020671Y035600D02*
X020491Y035600D01*
X020491Y035699D02*
X020671Y035699D01*
X020671Y035797D02*
X020491Y035797D01*
X020491Y035896D02*
X020671Y035896D01*
X020671Y035994D02*
X020491Y035994D01*
X020491Y036093D02*
X020671Y036093D01*
X020671Y036191D02*
X020491Y036191D01*
X020491Y036290D02*
X020671Y036290D01*
X020671Y036388D02*
X020455Y036388D01*
X020357Y036487D02*
X020671Y036487D01*
X020671Y036585D02*
X020258Y036585D01*
X020160Y036684D02*
X020671Y036684D01*
X020671Y036782D02*
X020061Y036782D01*
X019963Y036881D02*
X020671Y036881D01*
X020671Y036979D02*
X019864Y036979D01*
X019766Y037078D02*
X020671Y037078D01*
X020671Y037176D02*
X019667Y037176D01*
X019569Y037275D02*
X020671Y037275D01*
X020671Y037373D02*
X019470Y037373D01*
X019372Y037472D02*
X020671Y037472D01*
X020671Y037570D02*
X019273Y037570D01*
X019311Y037669D02*
X020671Y037669D01*
X020730Y037767D02*
X019401Y037767D01*
X019442Y037866D02*
X020828Y037866D01*
X020927Y037964D02*
X019471Y037964D01*
X019471Y038063D02*
X021025Y038063D01*
X021124Y038161D02*
X019460Y038161D01*
X019420Y038260D02*
X021151Y038260D01*
X021151Y038358D02*
X019356Y038358D01*
X019257Y038457D02*
X021151Y038457D01*
X021151Y038555D02*
X016437Y038555D01*
X016535Y038457D02*
X017905Y038457D01*
X017806Y038358D02*
X016634Y038358D01*
X016732Y038260D02*
X017743Y038260D01*
X017702Y038161D02*
X016831Y038161D01*
X016929Y038063D02*
X017691Y038063D01*
X017691Y037964D02*
X017028Y037964D01*
X017126Y037866D02*
X017720Y037866D01*
X017761Y037767D02*
X017225Y037767D01*
X017323Y037669D02*
X017851Y037669D01*
X018009Y037570D02*
X017422Y037570D01*
X017520Y037472D02*
X018919Y037472D01*
X019017Y037373D02*
X017619Y037373D01*
X017717Y037275D02*
X019116Y037275D01*
X019214Y037176D02*
X017816Y037176D01*
X017914Y037078D02*
X019313Y037078D01*
X019411Y036979D02*
X018013Y036979D01*
X018111Y036881D02*
X019510Y036881D01*
X019608Y036782D02*
X018210Y036782D01*
X018308Y036684D02*
X019707Y036684D01*
X019805Y036585D02*
X018407Y036585D01*
X018505Y036487D02*
X019904Y036487D01*
X020002Y036388D02*
X018521Y036388D01*
X018521Y036290D02*
X020101Y036290D01*
X020171Y036191D02*
X018521Y036191D01*
X018521Y036093D02*
X020171Y036093D01*
X020171Y035994D02*
X018521Y035994D01*
X018521Y035896D02*
X020171Y035896D01*
X020171Y035797D02*
X018521Y035797D01*
X018521Y035699D02*
X020171Y035699D01*
X020171Y035600D02*
X018521Y035600D01*
X018521Y035502D02*
X020171Y035502D01*
X020171Y035403D02*
X018521Y035403D01*
X018521Y035305D02*
X020171Y035305D01*
X020171Y035206D02*
X018521Y035206D01*
X018521Y035108D02*
X020171Y035108D01*
X020171Y035009D02*
X018521Y035009D01*
X018521Y034911D02*
X019343Y034911D01*
X019374Y034926D02*
X019298Y034888D01*
X019229Y034838D01*
X019169Y034778D01*
X019119Y034709D01*
X019081Y034633D01*
X019054Y034552D01*
X019041Y034468D01*
X019041Y034086D01*
X019531Y034086D01*
X019531Y034965D01*
X019455Y034953D01*
X019374Y034926D01*
X019531Y034911D02*
X019631Y034911D01*
X019631Y034965D02*
X019631Y034086D01*
X019531Y034086D01*
X019531Y033986D01*
X019041Y033986D01*
X019041Y033603D01*
X019054Y033519D01*
X019081Y033439D01*
X019119Y033363D01*
X019169Y033294D01*
X019229Y033234D01*
X019298Y033184D01*
X019374Y033145D01*
X019455Y033119D01*
X019531Y033107D01*
X019531Y033986D01*
X019631Y033986D01*
X019631Y034086D01*
X020121Y034086D01*
X020121Y034468D01*
X020108Y034552D01*
X020082Y034633D01*
X020043Y034709D01*
X019993Y034778D01*
X019933Y034838D01*
X019864Y034888D01*
X019788Y034926D01*
X019708Y034953D01*
X019631Y034965D01*
X019631Y034812D02*
X019531Y034812D01*
X019531Y034714D02*
X019631Y034714D01*
X019631Y034615D02*
X019531Y034615D01*
X019531Y034517D02*
X019631Y034517D01*
X019631Y034418D02*
X019531Y034418D01*
X019531Y034320D02*
X019631Y034320D01*
X019631Y034221D02*
X019531Y034221D01*
X019531Y034123D02*
X019631Y034123D01*
X019631Y034024D02*
X020171Y034024D01*
X020121Y033986D02*
X019631Y033986D01*
X019631Y033107D01*
X019708Y033119D01*
X019788Y033145D01*
X019864Y033184D01*
X019933Y033234D01*
X019993Y033294D01*
X020043Y033363D01*
X020082Y033439D01*
X020108Y033519D01*
X020121Y033603D01*
X020121Y033986D01*
X020121Y033926D02*
X020171Y033926D01*
X020171Y033827D02*
X020121Y033827D01*
X020121Y033729D02*
X020171Y033729D01*
X020171Y033630D02*
X020121Y033630D01*
X020110Y033532D02*
X020171Y033532D01*
X020171Y033433D02*
X020079Y033433D01*
X020023Y033335D02*
X020171Y033335D01*
X020171Y033236D02*
X019935Y033236D01*
X019765Y033138D02*
X020171Y033138D01*
X020171Y033039D02*
X018521Y033039D01*
X018521Y033138D02*
X019398Y033138D01*
X019531Y033138D02*
X019631Y033138D01*
X019631Y033236D02*
X019531Y033236D01*
X019531Y033335D02*
X019631Y033335D01*
X019631Y033433D02*
X019531Y033433D01*
X019531Y033532D02*
X019631Y033532D01*
X019631Y033630D02*
X019531Y033630D01*
X019531Y033729D02*
X019631Y033729D01*
X019631Y033827D02*
X019531Y033827D01*
X019531Y033926D02*
X019631Y033926D01*
X019531Y034024D02*
X018521Y034024D01*
X018521Y033926D02*
X019041Y033926D01*
X019041Y033827D02*
X018521Y033827D01*
X018521Y033729D02*
X019041Y033729D01*
X019041Y033630D02*
X018521Y033630D01*
X018521Y033532D02*
X019052Y033532D01*
X019083Y033433D02*
X018521Y033433D01*
X018521Y033335D02*
X019140Y033335D01*
X019227Y033236D02*
X018521Y033236D01*
X018141Y033236D02*
X017879Y033236D01*
X017977Y033335D02*
X018141Y033335D01*
X018141Y033433D02*
X018034Y033433D01*
X018075Y033532D02*
X018141Y033532D01*
X018141Y033630D02*
X018081Y033630D01*
X018081Y033729D02*
X018141Y033729D01*
X018141Y033827D02*
X018081Y033827D01*
X018081Y033926D02*
X018141Y033926D01*
X018141Y034024D02*
X018081Y034024D01*
X018081Y034123D02*
X018141Y034123D01*
X018141Y034221D02*
X018081Y034221D01*
X018081Y034320D02*
X018141Y034320D01*
X018141Y034418D02*
X018081Y034418D01*
X018081Y034517D02*
X018141Y034517D01*
X018141Y034615D02*
X018044Y034615D01*
X018000Y034714D02*
X018141Y034714D01*
X018141Y034812D02*
X017902Y034812D01*
X017717Y034911D02*
X018141Y034911D01*
X018141Y035009D02*
X009311Y035009D01*
X009331Y035057D02*
X009331Y035228D01*
X009266Y035386D01*
X009145Y035507D01*
X008987Y035572D01*
X008176Y035572D01*
X008018Y035507D01*
X007897Y035386D01*
X007831Y035228D01*
X007831Y035057D01*
X007897Y034899D01*
X008018Y034778D01*
X008176Y034712D01*
X008987Y034712D01*
X009145Y034778D01*
X009266Y034899D01*
X009331Y035057D01*
X009331Y035108D02*
X018141Y035108D01*
X018141Y035206D02*
X009331Y035206D01*
X009299Y035305D02*
X018141Y035305D01*
X018141Y035403D02*
X009248Y035403D01*
X009150Y035502D02*
X018141Y035502D01*
X018141Y035600D02*
X007021Y035600D01*
X007021Y035502D02*
X008013Y035502D01*
X007914Y035403D02*
X007021Y035403D01*
X007021Y035305D02*
X007863Y035305D01*
X007831Y035206D02*
X007036Y035206D01*
X007134Y035108D02*
X007831Y035108D01*
X007851Y035009D02*
X007233Y035009D01*
X007331Y034911D02*
X007892Y034911D01*
X007983Y034812D02*
X007430Y034812D01*
X007528Y034714D02*
X008172Y034714D01*
X007824Y034418D02*
X017081Y034418D01*
X017081Y034320D02*
X007922Y034320D01*
X008021Y034221D02*
X008079Y034221D01*
X007779Y033926D02*
X005521Y033926D01*
X005521Y034024D02*
X007680Y034024D01*
X007582Y034123D02*
X005521Y034123D01*
X005521Y034221D02*
X007483Y034221D01*
X007385Y034320D02*
X005521Y034320D01*
X005521Y034418D02*
X007286Y034418D01*
X007188Y034517D02*
X005475Y034517D01*
X005377Y034615D02*
X007089Y034615D01*
X006991Y034714D02*
X005278Y034714D01*
X005236Y034812D02*
X005180Y034812D01*
X005112Y034911D02*
X005081Y034911D01*
X005042Y035009D02*
X005021Y035009D01*
X004839Y034615D02*
X004021Y034615D01*
X004021Y034517D02*
X004938Y034517D01*
X005036Y034418D02*
X004021Y034418D01*
X004021Y034320D02*
X005135Y034320D01*
X005141Y034221D02*
X005084Y034221D01*
X005521Y033827D02*
X007877Y033827D01*
X007947Y033729D02*
X005521Y033729D01*
X005521Y033630D02*
X008012Y033630D01*
X008152Y033532D02*
X005521Y033532D01*
X005521Y033433D02*
X011396Y033433D01*
X011421Y033458D02*
X011421Y033458D01*
X011494Y033532D02*
X009010Y033532D01*
X009151Y033630D02*
X017081Y033630D01*
X017087Y033532D02*
X016168Y033532D01*
X016266Y033433D02*
X017128Y033433D01*
X017171Y033335D02*
X016365Y033335D01*
X016463Y033236D02*
X017171Y033236D01*
X017171Y033138D02*
X016562Y033138D01*
X016660Y033039D02*
X017171Y033039D01*
X017491Y033039D02*
X018141Y033039D01*
X018141Y033138D02*
X017491Y033138D01*
X017331Y033786D02*
X017581Y034036D01*
X017331Y033786D02*
X017331Y030142D01*
X017581Y029892D01*
X017829Y029789D02*
X018141Y029789D01*
X018141Y029887D02*
X017850Y029887D01*
X017833Y029986D02*
X018141Y029986D01*
X018141Y030084D02*
X017769Y030084D01*
X017517Y030183D02*
X018141Y030183D01*
X018141Y030281D02*
X017491Y030281D01*
X017491Y030380D02*
X018141Y030380D01*
X018141Y030478D02*
X017491Y030478D01*
X017491Y030577D02*
X018141Y030577D01*
X018141Y030675D02*
X017491Y030675D01*
X017491Y030774D02*
X018141Y030774D01*
X018141Y030872D02*
X017491Y030872D01*
X017491Y030971D02*
X018141Y030971D01*
X018141Y031069D02*
X017491Y031069D01*
X017491Y031168D02*
X018141Y031168D01*
X018141Y031266D02*
X017491Y031266D01*
X017491Y031365D02*
X018141Y031365D01*
X018141Y031463D02*
X017491Y031463D01*
X017491Y031562D02*
X018141Y031562D01*
X018141Y031660D02*
X017491Y031660D01*
X017491Y031759D02*
X018141Y031759D01*
X018141Y031857D02*
X017491Y031857D01*
X017491Y031956D02*
X018141Y031956D01*
X018141Y032054D02*
X017491Y032054D01*
X017491Y032153D02*
X018141Y032153D01*
X018141Y032251D02*
X017491Y032251D01*
X017081Y033729D02*
X009216Y033729D01*
X009251Y033827D02*
X017081Y033827D01*
X017081Y033926D02*
X009251Y033926D01*
X009229Y034024D02*
X017081Y034024D01*
X017081Y034123D02*
X009182Y034123D01*
X009084Y034221D02*
X017081Y034221D01*
X017081Y034517D02*
X007725Y034517D01*
X007627Y034615D02*
X017118Y034615D01*
X017162Y034714D02*
X008990Y034714D01*
X009179Y034812D02*
X017260Y034812D01*
X017445Y034911D02*
X009271Y034911D01*
X008987Y035712D02*
X009145Y035778D01*
X009266Y035899D01*
X009331Y036057D01*
X009331Y036228D01*
X009266Y036386D01*
X009145Y036507D01*
X008987Y036572D01*
X008176Y036572D01*
X008018Y036507D01*
X007897Y036386D01*
X007831Y036228D01*
X007831Y036057D01*
X007897Y035899D01*
X008018Y035778D01*
X008176Y035712D01*
X008987Y035712D01*
X009164Y035797D02*
X018141Y035797D01*
X018141Y035699D02*
X007021Y035699D01*
X007021Y035797D02*
X007998Y035797D01*
X007899Y035896D02*
X007021Y035896D01*
X007021Y035994D02*
X007857Y035994D01*
X007831Y036093D02*
X007021Y036093D01*
X007021Y036191D02*
X007831Y036191D01*
X007857Y036290D02*
X007021Y036290D01*
X007021Y036388D02*
X007899Y036388D01*
X007998Y036487D02*
X007021Y036487D01*
X007021Y036585D02*
X017869Y036585D01*
X017771Y036684D02*
X013625Y036684D01*
X013615Y036682D02*
X013682Y036693D01*
X013746Y036714D01*
X013806Y036744D01*
X013861Y036784D01*
X013909Y036832D01*
X013949Y036887D01*
X013980Y036947D01*
X014001Y037011D01*
X014011Y037078D01*
X014011Y037362D01*
X013611Y037362D01*
X013611Y036682D01*
X013615Y036682D01*
X013611Y036684D02*
X013551Y036684D01*
X013551Y036682D02*
X013551Y037362D01*
X013611Y037362D01*
X013611Y037422D01*
X014011Y037422D01*
X014011Y037706D01*
X014001Y037773D01*
X013980Y037837D01*
X013949Y037897D01*
X013909Y037952D01*
X013861Y038000D01*
X013806Y038040D01*
X013746Y038071D01*
X013682Y038092D01*
X013615Y038102D01*
X013611Y038102D01*
X013611Y037422D01*
X013551Y037422D01*
X013551Y037362D01*
X013151Y037362D01*
X013151Y037078D01*
X013162Y037011D01*
X013183Y036947D01*
X013213Y036887D01*
X013253Y036832D01*
X013301Y036784D01*
X013356Y036744D01*
X013416Y036714D01*
X013480Y036693D01*
X013547Y036682D01*
X013551Y036682D01*
X013537Y036684D02*
X011625Y036684D01*
X011615Y036682D02*
X011682Y036693D01*
X011746Y036714D01*
X011806Y036744D01*
X011861Y036784D01*
X011909Y036832D01*
X011949Y036887D01*
X011980Y036947D01*
X012001Y037011D01*
X012011Y037078D01*
X012011Y037362D01*
X011611Y037362D01*
X011611Y036682D01*
X011615Y036682D01*
X011611Y036684D02*
X011551Y036684D01*
X011551Y036682D02*
X011551Y037362D01*
X011611Y037362D01*
X011611Y037422D01*
X012011Y037422D01*
X012011Y037706D01*
X012001Y037773D01*
X011980Y037837D01*
X011949Y037897D01*
X011909Y037952D01*
X011861Y038000D01*
X011806Y038040D01*
X011746Y038071D01*
X011682Y038092D01*
X011615Y038102D01*
X011611Y038102D01*
X011611Y037422D01*
X011551Y037422D01*
X011551Y037362D01*
X011151Y037362D01*
X011151Y037078D01*
X011162Y037011D01*
X011183Y036947D01*
X011213Y036887D01*
X011253Y036832D01*
X011301Y036784D01*
X011356Y036744D01*
X011416Y036714D01*
X011480Y036693D01*
X011547Y036682D01*
X011551Y036682D01*
X011537Y036684D02*
X007021Y036684D01*
X006928Y036782D02*
X009359Y036782D01*
X009360Y036781D02*
X009504Y036722D01*
X009659Y036722D01*
X009802Y036781D01*
X009912Y036891D01*
X009971Y037035D01*
X009971Y037750D01*
X009912Y037893D01*
X009802Y038003D01*
X009659Y038062D01*
X009504Y038062D01*
X009360Y038003D01*
X009250Y037893D01*
X009191Y037750D01*
X009191Y037035D01*
X009250Y036891D01*
X009360Y036781D01*
X009261Y036881D02*
X006830Y036881D01*
X006731Y036979D02*
X009214Y036979D01*
X009191Y037078D02*
X006633Y037078D01*
X006534Y037176D02*
X009191Y037176D01*
X009191Y037275D02*
X006496Y037275D01*
X006581Y037373D02*
X009191Y037373D01*
X009191Y037472D02*
X006621Y037472D01*
X006641Y037570D02*
X009191Y037570D01*
X009191Y037669D02*
X006641Y037669D01*
X006614Y037767D02*
X009198Y037767D01*
X009239Y037866D02*
X006573Y037866D01*
X006478Y037964D02*
X009322Y037964D01*
X009841Y037964D02*
X010322Y037964D01*
X010360Y038003D02*
X010250Y037893D01*
X010191Y037750D01*
X010191Y037035D01*
X010250Y036891D01*
X010360Y036781D01*
X010504Y036722D01*
X010659Y036722D01*
X010802Y036781D01*
X010912Y036891D01*
X010971Y037035D01*
X010971Y037750D01*
X010912Y037893D01*
X010802Y038003D01*
X010659Y038062D01*
X010504Y038062D01*
X010360Y038003D01*
X010239Y037866D02*
X009923Y037866D01*
X009964Y037767D02*
X010198Y037767D01*
X010191Y037669D02*
X009971Y037669D01*
X009971Y037570D02*
X010191Y037570D01*
X010191Y037472D02*
X009971Y037472D01*
X009971Y037373D02*
X010191Y037373D01*
X010191Y037275D02*
X009971Y037275D01*
X009971Y037176D02*
X010191Y037176D01*
X010191Y037078D02*
X009971Y037078D01*
X009948Y036979D02*
X010214Y036979D01*
X010261Y036881D02*
X009901Y036881D01*
X009803Y036782D02*
X010359Y036782D01*
X010803Y036782D02*
X011304Y036782D01*
X011218Y036881D02*
X010901Y036881D01*
X010948Y036979D02*
X011172Y036979D01*
X011151Y037078D02*
X010971Y037078D01*
X010971Y037176D02*
X011151Y037176D01*
X011151Y037275D02*
X010971Y037275D01*
X010971Y037373D02*
X011551Y037373D01*
X011551Y037422D02*
X011151Y037422D01*
X011151Y037706D01*
X011162Y037773D01*
X011183Y037837D01*
X011213Y037897D01*
X011253Y037952D01*
X011301Y038000D01*
X011356Y038040D01*
X011416Y038071D01*
X011480Y038092D01*
X011547Y038102D01*
X011551Y038102D01*
X011551Y037422D01*
X011551Y037472D02*
X011611Y037472D01*
X011611Y037570D02*
X011551Y037570D01*
X011551Y037669D02*
X011611Y037669D01*
X011611Y037767D02*
X011551Y037767D01*
X011551Y037866D02*
X011611Y037866D01*
X011611Y037964D02*
X011551Y037964D01*
X011551Y038063D02*
X011611Y038063D01*
X011762Y038063D02*
X013400Y038063D01*
X013416Y038071D02*
X013356Y038040D01*
X013301Y038000D01*
X013253Y037952D01*
X013213Y037897D01*
X013183Y037837D01*
X013162Y037773D01*
X013151Y037706D01*
X013151Y037422D01*
X013551Y037422D01*
X013551Y038102D01*
X013547Y038102D01*
X013480Y038092D01*
X013416Y038071D01*
X013551Y038063D02*
X013611Y038063D01*
X013611Y037964D02*
X013551Y037964D01*
X013551Y037866D02*
X013611Y037866D01*
X013611Y037767D02*
X013551Y037767D01*
X013551Y037669D02*
X013611Y037669D01*
X013611Y037570D02*
X013551Y037570D01*
X013551Y037472D02*
X013611Y037472D01*
X013611Y037373D02*
X014191Y037373D01*
X014191Y037275D02*
X014011Y037275D01*
X014011Y037176D02*
X014191Y037176D01*
X014191Y037078D02*
X014011Y037078D01*
X013990Y036979D02*
X014214Y036979D01*
X014191Y037035D02*
X014250Y036891D01*
X014360Y036781D01*
X014504Y036722D01*
X014659Y036722D01*
X014802Y036781D01*
X014912Y036891D01*
X014971Y037035D01*
X014971Y037750D01*
X014912Y037893D01*
X014802Y038003D01*
X014659Y038062D01*
X014504Y038062D01*
X014360Y038003D01*
X014250Y037893D01*
X014191Y037750D01*
X014191Y037035D01*
X014261Y036881D02*
X013944Y036881D01*
X013859Y036782D02*
X014359Y036782D01*
X014803Y036782D02*
X017672Y036782D01*
X017574Y036881D02*
X014901Y036881D01*
X014948Y036979D02*
X017475Y036979D01*
X017377Y037078D02*
X014971Y037078D01*
X014971Y037176D02*
X017278Y037176D01*
X017180Y037275D02*
X014971Y037275D01*
X014971Y037373D02*
X017081Y037373D01*
X016983Y037472D02*
X014971Y037472D01*
X014971Y037570D02*
X016884Y037570D01*
X016786Y037669D02*
X014971Y037669D01*
X014964Y037767D02*
X016687Y037767D01*
X016589Y037866D02*
X014923Y037866D01*
X014841Y037964D02*
X016490Y037964D01*
X016392Y038063D02*
X013762Y038063D01*
X013897Y037964D02*
X014322Y037964D01*
X014239Y037866D02*
X013965Y037866D01*
X014001Y037767D02*
X014198Y037767D01*
X014191Y037669D02*
X014011Y037669D01*
X014011Y037570D02*
X014191Y037570D01*
X014191Y037472D02*
X014011Y037472D01*
X013611Y037275D02*
X013551Y037275D01*
X013551Y037373D02*
X011611Y037373D01*
X011611Y037275D02*
X011551Y037275D01*
X011551Y037176D02*
X011611Y037176D01*
X011611Y037078D02*
X011551Y037078D01*
X011551Y036979D02*
X011611Y036979D01*
X011611Y036881D02*
X011551Y036881D01*
X011551Y036782D02*
X011611Y036782D01*
X011859Y036782D02*
X013304Y036782D01*
X013218Y036881D02*
X011944Y036881D01*
X011990Y036979D02*
X013172Y036979D01*
X013151Y037078D02*
X012011Y037078D01*
X012011Y037176D02*
X013151Y037176D01*
X013151Y037275D02*
X012011Y037275D01*
X012011Y037472D02*
X013151Y037472D01*
X013151Y037570D02*
X012011Y037570D01*
X012011Y037669D02*
X013151Y037669D01*
X013161Y037767D02*
X012001Y037767D01*
X011965Y037866D02*
X013197Y037866D01*
X013265Y037964D02*
X011897Y037964D01*
X011400Y038063D02*
X006292Y038063D01*
X006095Y037078D02*
X005021Y037078D01*
X005021Y037176D02*
X005328Y037176D01*
X005167Y037275D02*
X005021Y037275D01*
X005021Y037373D02*
X005082Y037373D01*
X005041Y037472D02*
X005021Y037472D01*
X005021Y037570D02*
X005021Y037570D01*
X005021Y037669D02*
X005021Y037669D01*
X005021Y037767D02*
X005048Y037767D01*
X005021Y037866D02*
X005089Y037866D01*
X005021Y037964D02*
X005184Y037964D01*
X005021Y038063D02*
X005370Y038063D01*
X005021Y038161D02*
X016293Y038161D01*
X016195Y038260D02*
X005021Y038260D01*
X005021Y038358D02*
X016096Y038358D01*
X015998Y038457D02*
X005021Y038457D01*
X005021Y038555D02*
X015899Y038555D01*
X015801Y038654D02*
X005021Y038654D01*
X004641Y038654D02*
X003458Y038654D01*
X003204Y038654D02*
X001481Y038654D01*
X001481Y038752D02*
X003098Y038752D01*
X003062Y038851D02*
X001481Y038851D01*
X001481Y038949D02*
X003064Y038949D01*
X003107Y039048D02*
X001481Y039048D01*
X001481Y038555D02*
X004641Y038555D01*
X004641Y038457D02*
X001481Y038457D01*
X001481Y038358D02*
X004641Y038358D01*
X004641Y038260D02*
X001481Y038260D01*
X001481Y038161D02*
X004641Y038161D01*
X004641Y038063D02*
X001481Y038063D01*
X001481Y037964D02*
X004641Y037964D01*
X004641Y037866D02*
X001481Y037866D01*
X001481Y037767D02*
X004641Y037767D01*
X004641Y037669D02*
X001481Y037669D01*
X001481Y037570D02*
X004641Y037570D01*
X004641Y037472D02*
X001481Y037472D01*
X001481Y037373D02*
X004641Y037373D01*
X004641Y037275D02*
X001481Y037275D01*
X001481Y037176D02*
X003705Y037176D01*
X003569Y037078D02*
X001481Y037078D01*
X001481Y036979D02*
X003495Y036979D01*
X003454Y036881D02*
X001481Y036881D01*
X001481Y036782D02*
X003442Y036782D01*
X003442Y036684D02*
X001481Y036684D01*
X001481Y036585D02*
X003442Y036585D01*
X003442Y036487D02*
X001481Y036487D01*
X001481Y036388D02*
X003442Y036388D01*
X003442Y036290D02*
X001481Y036290D01*
X001481Y036191D02*
X003442Y036191D01*
X003442Y036093D02*
X001481Y036093D01*
X001481Y035994D02*
X003442Y035994D01*
X003472Y035896D02*
X001481Y035896D01*
X001481Y035797D02*
X003514Y035797D01*
X003613Y035699D02*
X001481Y035699D01*
X001481Y035600D02*
X003641Y035600D01*
X003641Y035502D02*
X001481Y035502D01*
X001481Y035403D02*
X003641Y035403D01*
X003641Y035305D02*
X001481Y035305D01*
X001481Y035206D02*
X003641Y035206D01*
X003641Y035108D02*
X001481Y035108D01*
X001481Y035009D02*
X003641Y035009D01*
X003641Y034911D02*
X002705Y034911D01*
X002620Y034946D02*
X002404Y034946D01*
X002204Y034863D01*
X002051Y034710D01*
X001969Y034510D01*
X001969Y034294D01*
X002051Y034094D01*
X002204Y033941D01*
X002404Y033858D01*
X002620Y033858D01*
X002820Y033941D01*
X002973Y034094D01*
X003056Y034294D01*
X003056Y034510D01*
X002973Y034710D01*
X002820Y034863D01*
X002620Y034946D01*
X002871Y034812D02*
X003641Y034812D01*
X003641Y034714D02*
X002969Y034714D01*
X003012Y034615D02*
X003641Y034615D01*
X003641Y034517D02*
X003053Y034517D01*
X003056Y034418D02*
X003641Y034418D01*
X003641Y034320D02*
X003056Y034320D01*
X003026Y034221D02*
X003641Y034221D01*
X003641Y034123D02*
X002985Y034123D01*
X002903Y034024D02*
X003641Y034024D01*
X003641Y033926D02*
X002783Y033926D01*
X003353Y033433D02*
X001481Y033433D01*
X001481Y033335D02*
X003255Y033335D01*
X003452Y033532D02*
X001481Y033532D01*
X001481Y033630D02*
X003550Y033630D01*
X003641Y033729D02*
X001481Y033729D01*
X001481Y033827D02*
X003641Y033827D01*
X003989Y033532D02*
X004152Y033532D01*
X003891Y033433D02*
X005141Y033433D01*
X005141Y033335D02*
X003792Y033335D01*
X003694Y033236D02*
X005141Y033236D01*
X005141Y033138D02*
X003595Y033138D01*
X003497Y033039D02*
X004456Y033039D01*
X004459Y033042D02*
X004431Y033014D01*
X004411Y032980D01*
X004401Y032942D01*
X004401Y032672D01*
X004801Y032672D01*
X004801Y033072D01*
X004531Y033072D01*
X004493Y033062D01*
X004459Y033042D01*
X004401Y032941D02*
X004221Y032941D01*
X004221Y032842D02*
X004401Y032842D01*
X004401Y032744D02*
X004221Y032744D01*
X004221Y032645D02*
X004801Y032645D01*
X004801Y032612D02*
X004401Y032612D01*
X004401Y032342D01*
X004411Y032304D01*
X004431Y032270D01*
X004459Y032242D01*
X004493Y032222D01*
X004531Y032212D01*
X004801Y032212D01*
X004801Y032612D01*
X004801Y032547D02*
X004861Y032547D01*
X004861Y032448D02*
X004801Y032448D01*
X004801Y032350D02*
X004861Y032350D01*
X004861Y032251D02*
X004801Y032251D01*
X005141Y032153D02*
X003818Y032153D01*
X003916Y032251D02*
X004450Y032251D01*
X004401Y032350D02*
X004221Y032350D01*
X004221Y032448D02*
X004401Y032448D01*
X004401Y032547D02*
X004221Y032547D01*
X003831Y032642D02*
X003831Y032392D01*
X003331Y031892D01*
X003331Y028392D01*
X003171Y029001D02*
X002491Y029001D01*
X002491Y029099D02*
X003171Y029099D01*
X003171Y029198D02*
X002491Y029198D01*
X002491Y029296D02*
X003171Y029296D01*
X003171Y029395D02*
X002491Y029395D01*
X002491Y029493D02*
X003171Y029493D01*
X003171Y029592D02*
X002491Y029592D01*
X002491Y029690D02*
X003171Y029690D01*
X003171Y029789D02*
X002491Y029789D01*
X002491Y029887D02*
X003171Y029887D01*
X003171Y029986D02*
X002491Y029986D01*
X002491Y030084D02*
X003171Y030084D01*
X003171Y030183D02*
X002491Y030183D01*
X002491Y030281D02*
X003171Y030281D01*
X003171Y030380D02*
X002491Y030380D01*
X002491Y030478D02*
X003171Y030478D01*
X003171Y030577D02*
X002491Y030577D01*
X002491Y030675D02*
X003171Y030675D01*
X003171Y030774D02*
X002491Y030774D01*
X002491Y030872D02*
X003171Y030872D01*
X003171Y030971D02*
X002491Y030971D01*
X002491Y031069D02*
X003171Y031069D01*
X003171Y031168D02*
X002491Y031168D01*
X002491Y031266D02*
X003171Y031266D01*
X003171Y031365D02*
X002491Y031365D01*
X002491Y031463D02*
X003171Y031463D01*
X003171Y031562D02*
X002491Y031562D01*
X002491Y031660D02*
X003171Y031660D01*
X003171Y031759D02*
X002491Y031759D01*
X002491Y031857D02*
X003171Y031857D01*
X003171Y031956D02*
X002525Y031956D01*
X002586Y032054D02*
X003267Y032054D01*
X003365Y032153D02*
X002600Y032153D01*
X002577Y032251D02*
X003464Y032251D01*
X003441Y032350D02*
X003221Y032350D01*
X003221Y032448D02*
X003441Y032448D01*
X003441Y032547D02*
X003221Y032547D01*
X003221Y032645D02*
X003441Y032645D01*
X003441Y032744D02*
X003221Y032744D01*
X003221Y032842D02*
X003441Y032842D01*
X003441Y032941D02*
X003221Y032941D01*
X003719Y032054D02*
X005141Y032054D01*
X005141Y031956D02*
X003621Y031956D01*
X003522Y031857D02*
X005141Y031857D01*
X005141Y031759D02*
X003491Y031759D01*
X003491Y031660D02*
X005141Y031660D01*
X005141Y031562D02*
X003491Y031562D01*
X003491Y031463D02*
X005141Y031463D01*
X005141Y031365D02*
X003491Y031365D01*
X003491Y031266D02*
X004573Y031266D01*
X004551Y031250D02*
X004503Y031202D01*
X004463Y031147D01*
X004433Y031087D01*
X004412Y031023D01*
X004401Y030956D01*
X004401Y030672D01*
X004801Y030672D01*
X004801Y030612D01*
X004861Y030612D01*
X004861Y030672D01*
X004801Y030672D01*
X004801Y031352D01*
X004797Y031352D01*
X004730Y031342D01*
X004666Y031321D01*
X004606Y031290D01*
X004551Y031250D01*
X004478Y031168D02*
X003491Y031168D01*
X003491Y031069D02*
X004427Y031069D01*
X004403Y030971D02*
X003491Y030971D01*
X003491Y030872D02*
X004401Y030872D01*
X004401Y030774D02*
X003491Y030774D01*
X003491Y030675D02*
X004401Y030675D01*
X004401Y030612D02*
X004401Y030328D01*
X004412Y030261D01*
X004433Y030197D01*
X004463Y030137D01*
X004503Y030082D01*
X004551Y030034D01*
X004606Y029994D01*
X004666Y029964D01*
X004730Y029943D01*
X004797Y029932D01*
X004801Y029932D01*
X004801Y030612D01*
X004401Y030612D01*
X004401Y030577D02*
X003491Y030577D01*
X003491Y030478D02*
X004401Y030478D01*
X004401Y030380D02*
X003491Y030380D01*
X003491Y030281D02*
X004409Y030281D01*
X004440Y030183D02*
X003491Y030183D01*
X003491Y030084D02*
X004502Y030084D01*
X004623Y029986D02*
X003491Y029986D01*
X002831Y028642D02*
X002831Y021642D01*
X003221Y021613D02*
X003441Y021613D01*
X003441Y021515D02*
X003221Y021515D01*
X003221Y021416D02*
X003441Y021416D01*
X003441Y021318D02*
X003221Y021318D01*
X003221Y021712D02*
X003441Y021712D01*
X003441Y021810D02*
X003221Y021810D01*
X003221Y021909D02*
X003441Y021909D01*
X003481Y022007D02*
X003182Y022007D01*
X002991Y022106D02*
X006171Y022106D01*
X006171Y022204D02*
X002991Y022204D01*
X002991Y022303D02*
X006171Y022303D01*
X006171Y022401D02*
X002991Y022401D01*
X002991Y022500D02*
X006171Y022500D01*
X006171Y022598D02*
X002991Y022598D01*
X002991Y022697D02*
X006171Y022697D01*
X006171Y022795D02*
X002991Y022795D01*
X002991Y022894D02*
X006171Y022894D01*
X006171Y022992D02*
X002991Y022992D01*
X002991Y023091D02*
X006171Y023091D01*
X006171Y023189D02*
X002991Y023189D01*
X002991Y023288D02*
X006171Y023288D01*
X006111Y023386D02*
X002991Y023386D01*
X002991Y023485D02*
X006012Y023485D01*
X005914Y023583D02*
X002991Y023583D01*
X002991Y023682D02*
X005815Y023682D01*
X005717Y023780D02*
X005549Y023780D01*
X005874Y024076D02*
X005941Y024076D01*
X005941Y024174D02*
X005775Y024174D01*
X005721Y024273D02*
X005941Y024273D01*
X005941Y024371D02*
X005721Y024371D01*
X005721Y024470D02*
X005941Y024470D01*
X005941Y024568D02*
X005721Y024568D01*
X005721Y024667D02*
X005941Y024667D01*
X005948Y024765D02*
X005715Y024765D01*
X005674Y024864D02*
X005988Y024864D01*
X006070Y024962D02*
X005593Y024962D01*
X005070Y024962D02*
X004593Y024962D01*
X004674Y024864D02*
X004988Y024864D01*
X004948Y024765D02*
X004715Y024765D01*
X004721Y024667D02*
X004941Y024667D01*
X004941Y024568D02*
X004721Y024568D01*
X004721Y024470D02*
X004941Y024470D01*
X004941Y024371D02*
X004721Y024371D01*
X004721Y024273D02*
X004941Y024273D01*
X004941Y024174D02*
X004721Y024174D01*
X004721Y024076D02*
X004941Y024076D01*
X004965Y023977D02*
X004697Y023977D01*
X004649Y023879D02*
X005013Y023879D01*
X005113Y023780D02*
X004549Y023780D01*
X004113Y023780D02*
X003549Y023780D01*
X003649Y023879D02*
X004013Y023879D01*
X003965Y023977D02*
X003697Y023977D01*
X003721Y024076D02*
X003941Y024076D01*
X003941Y024174D02*
X003721Y024174D01*
X003721Y024273D02*
X003941Y024273D01*
X003941Y024371D02*
X003721Y024371D01*
X003721Y024470D02*
X003941Y024470D01*
X003941Y024568D02*
X003721Y024568D01*
X003721Y024667D02*
X003941Y024667D01*
X003948Y024765D02*
X003715Y024765D01*
X003674Y024864D02*
X003988Y024864D01*
X004070Y024962D02*
X003593Y024962D01*
X003070Y024962D02*
X002991Y024962D01*
X002671Y024962D02*
X002491Y024962D01*
X002491Y024864D02*
X002671Y024864D01*
X002671Y024765D02*
X002491Y024765D01*
X002491Y024667D02*
X002671Y024667D01*
X002671Y024568D02*
X002491Y024568D01*
X002491Y024470D02*
X002671Y024470D01*
X002671Y024371D02*
X002491Y024371D01*
X002491Y024273D02*
X002671Y024273D01*
X002671Y024174D02*
X002491Y024174D01*
X002491Y024076D02*
X002671Y024076D01*
X002671Y023977D02*
X002491Y023977D01*
X002491Y023879D02*
X002671Y023879D01*
X002671Y023780D02*
X002491Y023780D01*
X002491Y023682D02*
X002671Y023682D01*
X002671Y023583D02*
X002491Y023583D01*
X002491Y023485D02*
X002671Y023485D01*
X002671Y023386D02*
X002491Y023386D01*
X002491Y023288D02*
X002671Y023288D01*
X002671Y023189D02*
X002491Y023189D01*
X002491Y023091D02*
X002671Y023091D01*
X002671Y022992D02*
X002491Y022992D01*
X002491Y022894D02*
X002671Y022894D01*
X002671Y022795D02*
X002491Y022795D01*
X002491Y022697D02*
X002671Y022697D01*
X002671Y022598D02*
X002491Y022598D01*
X002491Y022500D02*
X002671Y022500D01*
X002671Y022401D02*
X002491Y022401D01*
X002491Y022303D02*
X002671Y022303D01*
X002671Y022204D02*
X002491Y022204D01*
X002491Y022106D02*
X002671Y022106D01*
X002171Y022106D02*
X002021Y022106D01*
X002021Y022204D02*
X002171Y022204D01*
X002171Y022303D02*
X002021Y022303D01*
X002021Y022401D02*
X002171Y022401D01*
X002171Y022500D02*
X002021Y022500D01*
X002021Y022598D02*
X002171Y022598D01*
X002171Y022697D02*
X002021Y022697D01*
X002021Y022795D02*
X002171Y022795D01*
X002171Y022894D02*
X002021Y022894D01*
X002021Y022992D02*
X002171Y022992D01*
X002171Y023091D02*
X002021Y023091D01*
X002021Y023189D02*
X002171Y023189D01*
X002171Y023288D02*
X002021Y023288D01*
X002021Y023386D02*
X002171Y023386D01*
X002171Y023485D02*
X002021Y023485D01*
X002021Y023583D02*
X002171Y023583D01*
X002171Y023682D02*
X002021Y023682D01*
X002021Y023780D02*
X002171Y023780D01*
X002171Y023879D02*
X002021Y023879D01*
X002021Y023977D02*
X002171Y023977D01*
X002171Y024076D02*
X002021Y024076D01*
X002021Y024174D02*
X002171Y024174D01*
X002171Y024273D02*
X002021Y024273D01*
X002021Y024371D02*
X002171Y024371D01*
X002171Y024470D02*
X002021Y024470D01*
X002021Y024568D02*
X002171Y024568D01*
X002171Y024667D02*
X002021Y024667D01*
X002021Y024765D02*
X002171Y024765D01*
X002171Y024864D02*
X002021Y024864D01*
X002021Y024962D02*
X002171Y024962D01*
X002171Y025061D02*
X002021Y025061D01*
X002021Y025159D02*
X002171Y025159D01*
X002171Y025258D02*
X002021Y025258D01*
X002021Y025356D02*
X002171Y025356D01*
X002171Y025455D02*
X002021Y025455D01*
X002021Y025553D02*
X002171Y025553D01*
X002171Y025652D02*
X002021Y025652D01*
X002021Y025750D02*
X002171Y025750D01*
X002171Y025849D02*
X002021Y025849D01*
X002021Y025947D02*
X002171Y025947D01*
X002171Y026046D02*
X002021Y026046D01*
X002021Y026144D02*
X002171Y026144D01*
X002171Y026243D02*
X002021Y026243D01*
X002021Y026341D02*
X002171Y026341D01*
X002171Y026440D02*
X002021Y026440D01*
X002021Y026538D02*
X002171Y026538D01*
X002171Y026637D02*
X002021Y026637D01*
X002021Y026735D02*
X002171Y026735D01*
X002171Y026834D02*
X002021Y026834D01*
X002021Y026932D02*
X002171Y026932D01*
X002171Y027031D02*
X002021Y027031D01*
X002021Y027129D02*
X002171Y027129D01*
X002171Y027228D02*
X002021Y027228D01*
X002021Y027326D02*
X002171Y027326D01*
X002171Y027425D02*
X002021Y027425D01*
X002021Y027523D02*
X002171Y027523D01*
X002171Y027622D02*
X002021Y027622D01*
X002021Y027720D02*
X002171Y027720D01*
X002171Y027819D02*
X002021Y027819D01*
X002021Y027917D02*
X002171Y027917D01*
X002171Y028016D02*
X002021Y028016D01*
X002021Y028114D02*
X002171Y028114D01*
X002171Y028213D02*
X002021Y028213D01*
X002021Y028311D02*
X002171Y028311D01*
X002171Y028410D02*
X002021Y028410D01*
X002021Y028508D02*
X002171Y028508D01*
X002171Y028607D02*
X002021Y028607D01*
X002021Y028705D02*
X002171Y028705D01*
X002171Y028804D02*
X002021Y028804D01*
X002021Y028902D02*
X002171Y028902D01*
X002171Y029001D02*
X002021Y029001D01*
X002021Y029099D02*
X002171Y029099D01*
X002171Y029198D02*
X002021Y029198D01*
X002021Y029296D02*
X002171Y029296D01*
X002171Y029395D02*
X002021Y029395D01*
X002021Y029493D02*
X002171Y029493D01*
X002171Y029592D02*
X002021Y029592D01*
X002021Y029690D02*
X002171Y029690D01*
X002171Y029789D02*
X002021Y029789D01*
X002021Y029887D02*
X002171Y029887D01*
X002171Y029986D02*
X002021Y029986D01*
X002021Y030084D02*
X002171Y030084D01*
X002171Y030183D02*
X002021Y030183D01*
X002021Y030281D02*
X002171Y030281D01*
X002171Y030380D02*
X002021Y030380D01*
X002021Y030478D02*
X002171Y030478D01*
X002171Y030577D02*
X002021Y030577D01*
X002021Y030675D02*
X002171Y030675D01*
X002171Y030774D02*
X002021Y030774D01*
X002021Y030872D02*
X002171Y030872D01*
X002171Y030971D02*
X002021Y030971D01*
X002021Y031069D02*
X002171Y031069D01*
X002171Y031168D02*
X002021Y031168D01*
X002021Y031266D02*
X002171Y031266D01*
X002171Y031365D02*
X002021Y031365D01*
X002021Y031463D02*
X002171Y031463D01*
X002171Y031562D02*
X002021Y031562D01*
X002021Y031660D02*
X002171Y031660D01*
X002171Y031759D02*
X002021Y031759D01*
X002021Y031857D02*
X002171Y031857D01*
X002137Y031956D02*
X002021Y031956D01*
X002021Y032054D02*
X002077Y032054D01*
X002062Y032153D02*
X002021Y032153D01*
X002021Y032251D02*
X002085Y032251D01*
X002021Y032350D02*
X002159Y032350D01*
X002021Y032448D02*
X002441Y032448D01*
X002441Y032547D02*
X002021Y032547D01*
X002103Y032645D02*
X002441Y032645D01*
X002441Y032744D02*
X002201Y032744D01*
X002300Y032842D02*
X002441Y032842D01*
X002441Y032941D02*
X002398Y032941D01*
X002156Y033236D02*
X001481Y033236D01*
X001481Y033138D02*
X002058Y033138D01*
X001959Y033039D02*
X001481Y033039D01*
X001481Y032941D02*
X001861Y032941D01*
X001762Y032842D02*
X001481Y032842D01*
X001481Y032744D02*
X001664Y032744D01*
X001641Y032645D02*
X001481Y032645D01*
X001481Y032547D02*
X001641Y032547D01*
X001641Y032448D02*
X001481Y032448D01*
X001481Y032350D02*
X001641Y032350D01*
X001641Y032251D02*
X001481Y032251D01*
X001481Y032153D02*
X001641Y032153D01*
X001641Y032054D02*
X001481Y032054D01*
X001481Y031956D02*
X001641Y031956D01*
X001641Y031857D02*
X001481Y031857D01*
X001481Y031759D02*
X001641Y031759D01*
X001641Y031660D02*
X001481Y031660D01*
X001481Y031562D02*
X001641Y031562D01*
X001641Y031463D02*
X001481Y031463D01*
X001481Y031365D02*
X001641Y031365D01*
X001641Y031266D02*
X001481Y031266D01*
X001481Y031168D02*
X001641Y031168D01*
X001641Y031069D02*
X001481Y031069D01*
X001481Y030971D02*
X001641Y030971D01*
X001641Y030872D02*
X001481Y030872D01*
X001481Y030774D02*
X001641Y030774D01*
X001641Y030675D02*
X001481Y030675D01*
X001481Y030577D02*
X001641Y030577D01*
X001641Y030478D02*
X001481Y030478D01*
X001481Y030380D02*
X001641Y030380D01*
X001641Y030281D02*
X001481Y030281D01*
X001481Y030183D02*
X001641Y030183D01*
X001641Y030084D02*
X001481Y030084D01*
X001481Y029986D02*
X001641Y029986D01*
X001641Y029887D02*
X001481Y029887D01*
X001481Y029789D02*
X001641Y029789D01*
X001641Y029690D02*
X001481Y029690D01*
X001481Y029592D02*
X001641Y029592D01*
X001641Y029493D02*
X001481Y029493D01*
X001481Y029395D02*
X001641Y029395D01*
X001641Y029296D02*
X001481Y029296D01*
X001481Y029198D02*
X001641Y029198D01*
X001641Y029099D02*
X001481Y029099D01*
X001481Y029001D02*
X001641Y029001D01*
X001641Y028902D02*
X001481Y028902D01*
X001481Y028804D02*
X001641Y028804D01*
X001641Y028705D02*
X001481Y028705D01*
X001481Y028607D02*
X001641Y028607D01*
X001641Y028508D02*
X001481Y028508D01*
X001481Y028410D02*
X001641Y028410D01*
X001641Y028311D02*
X001481Y028311D01*
X001481Y028213D02*
X001641Y028213D01*
X001641Y028114D02*
X001481Y028114D01*
X001481Y028016D02*
X001641Y028016D01*
X001641Y027917D02*
X001481Y027917D01*
X001481Y027819D02*
X001641Y027819D01*
X001641Y027720D02*
X001481Y027720D01*
X001481Y027622D02*
X001641Y027622D01*
X001641Y027523D02*
X001481Y027523D01*
X001481Y027425D02*
X001641Y027425D01*
X001641Y027326D02*
X001481Y027326D01*
X001481Y027228D02*
X001641Y027228D01*
X001641Y027129D02*
X001481Y027129D01*
X001481Y027031D02*
X001641Y027031D01*
X001641Y026932D02*
X001481Y026932D01*
X001481Y026834D02*
X001641Y026834D01*
X001641Y026735D02*
X001481Y026735D01*
X001481Y026637D02*
X001641Y026637D01*
X001641Y026538D02*
X001481Y026538D01*
X001481Y026440D02*
X001641Y026440D01*
X001641Y026341D02*
X001481Y026341D01*
X001481Y026243D02*
X001641Y026243D01*
X001641Y026144D02*
X001481Y026144D01*
X001481Y026046D02*
X001641Y026046D01*
X001641Y025947D02*
X001481Y025947D01*
X001481Y025849D02*
X001641Y025849D01*
X001641Y025750D02*
X001481Y025750D01*
X001481Y025652D02*
X001641Y025652D01*
X001641Y025553D02*
X001481Y025553D01*
X001481Y025455D02*
X001641Y025455D01*
X001641Y025356D02*
X001481Y025356D01*
X001481Y025258D02*
X001641Y025258D01*
X001641Y025159D02*
X001481Y025159D01*
X001481Y025061D02*
X001641Y025061D01*
X001641Y024962D02*
X001481Y024962D01*
X001481Y024864D02*
X001641Y024864D01*
X001641Y024765D02*
X001481Y024765D01*
X001481Y024667D02*
X001641Y024667D01*
X001641Y024568D02*
X001481Y024568D01*
X001481Y024470D02*
X001641Y024470D01*
X001641Y024371D02*
X001481Y024371D01*
X001481Y024273D02*
X001641Y024273D01*
X001641Y024174D02*
X001481Y024174D01*
X001481Y024076D02*
X001641Y024076D01*
X001641Y023977D02*
X001481Y023977D01*
X001481Y023879D02*
X001641Y023879D01*
X001641Y023780D02*
X001481Y023780D01*
X001481Y023682D02*
X001641Y023682D01*
X001641Y023583D02*
X001481Y023583D01*
X001481Y023485D02*
X001641Y023485D01*
X001641Y023386D02*
X001481Y023386D01*
X001481Y023288D02*
X001641Y023288D01*
X001641Y023189D02*
X001481Y023189D01*
X001481Y023091D02*
X001641Y023091D01*
X001641Y022992D02*
X001481Y022992D01*
X001481Y022894D02*
X001641Y022894D01*
X001641Y022795D02*
X001481Y022795D01*
X001481Y022697D02*
X001641Y022697D01*
X001641Y022598D02*
X001481Y022598D01*
X001481Y022500D02*
X001641Y022500D01*
X001641Y022401D02*
X001481Y022401D01*
X001481Y022303D02*
X001641Y022303D01*
X001641Y022204D02*
X001481Y022204D01*
X001481Y022106D02*
X001641Y022106D01*
X001641Y022007D02*
X001481Y022007D01*
X001481Y021909D02*
X001641Y021909D01*
X001641Y021810D02*
X001481Y021810D01*
X001481Y021712D02*
X001641Y021712D01*
X001641Y021613D02*
X001481Y021613D01*
X001481Y021515D02*
X001641Y021515D01*
X001641Y021416D02*
X001481Y021416D01*
X001481Y021318D02*
X001641Y021318D01*
X001641Y021219D02*
X001481Y021219D01*
X001481Y021121D02*
X001641Y021121D01*
X001641Y021022D02*
X001481Y021022D01*
X001481Y020924D02*
X001641Y020924D01*
X001641Y020825D02*
X001481Y020825D01*
X001481Y020727D02*
X001641Y020727D01*
X001641Y020628D02*
X001481Y020628D01*
X001481Y020530D02*
X001641Y020530D01*
X001641Y020431D02*
X001481Y020431D01*
X001481Y020333D02*
X001641Y020333D01*
X001641Y020234D02*
X001481Y020234D01*
X001481Y020136D02*
X001641Y020136D01*
X001641Y020037D02*
X001481Y020037D01*
X001481Y019939D02*
X001641Y019939D01*
X001641Y019840D02*
X001481Y019840D01*
X001481Y019742D02*
X001641Y019742D01*
X001641Y019643D02*
X001481Y019643D01*
X001481Y019545D02*
X001641Y019545D01*
X001641Y019446D02*
X001481Y019446D01*
X001481Y019348D02*
X001641Y019348D01*
X001641Y019249D02*
X001481Y019249D01*
X001481Y019151D02*
X001641Y019151D01*
X002114Y017378D02*
X004228Y017378D01*
X004129Y017279D02*
X002976Y017279D01*
X003075Y017181D02*
X004031Y017181D01*
X003932Y017082D02*
X003173Y017082D01*
X003272Y016984D02*
X003834Y016984D01*
X003811Y016885D02*
X003311Y016885D01*
X003311Y016787D02*
X003811Y016787D01*
X004331Y019392D02*
X002331Y021392D01*
X002331Y032142D01*
X002241Y033926D02*
X001481Y033926D01*
X001481Y034024D02*
X002121Y034024D01*
X002039Y034123D02*
X001481Y034123D01*
X001481Y034221D02*
X001999Y034221D01*
X001969Y034320D02*
X001481Y034320D01*
X001481Y034418D02*
X001969Y034418D01*
X001971Y034517D02*
X001481Y034517D01*
X001481Y034615D02*
X002012Y034615D01*
X002055Y034714D02*
X001481Y034714D01*
X001481Y034812D02*
X002154Y034812D01*
X002320Y034911D02*
X001481Y034911D01*
X004021Y034911D02*
X004641Y034911D01*
X004641Y035009D02*
X004021Y035009D01*
X004021Y035108D02*
X004641Y035108D01*
X004641Y035206D02*
X004021Y035206D01*
X004021Y035305D02*
X004641Y035305D01*
X004641Y035403D02*
X004021Y035403D01*
X004021Y035502D02*
X004641Y035502D01*
X004641Y035600D02*
X004021Y035600D01*
X004191Y035699D02*
X004641Y035699D01*
X004641Y035797D02*
X004290Y035797D01*
X004332Y035896D02*
X004641Y035896D01*
X004641Y035994D02*
X004362Y035994D01*
X004362Y036093D02*
X004641Y036093D01*
X004641Y036191D02*
X004362Y036191D01*
X004362Y036290D02*
X004641Y036290D01*
X004641Y036388D02*
X004362Y036388D01*
X004362Y036487D02*
X004641Y036487D01*
X004641Y036585D02*
X004362Y036585D01*
X004362Y036684D02*
X004641Y036684D01*
X004641Y036782D02*
X004362Y036782D01*
X004350Y036881D02*
X004641Y036881D01*
X004641Y036979D02*
X004309Y036979D01*
X004235Y037078D02*
X004641Y037078D01*
X004641Y037176D02*
X004099Y037176D01*
X005021Y036979D02*
X006194Y036979D01*
X006292Y036881D02*
X005021Y036881D01*
X005021Y036782D02*
X006391Y036782D01*
X006489Y036684D02*
X005021Y036684D01*
X005021Y036585D02*
X006588Y036585D01*
X006641Y036487D02*
X005021Y036487D01*
X005021Y036388D02*
X006641Y036388D01*
X006641Y036290D02*
X005021Y036290D01*
X005021Y036191D02*
X006641Y036191D01*
X006641Y036093D02*
X005021Y036093D01*
X005021Y035994D02*
X006641Y035994D01*
X006641Y035896D02*
X005021Y035896D01*
X005021Y035797D02*
X006641Y035797D01*
X006641Y035699D02*
X006399Y035699D01*
X006536Y035600D02*
X006641Y035600D01*
X006641Y035502D02*
X006613Y035502D01*
X006620Y035009D02*
X006695Y035009D01*
X006794Y034911D02*
X006550Y034911D01*
X006426Y034812D02*
X006892Y034812D01*
X005861Y034812D02*
X005801Y034812D01*
X005801Y034911D02*
X005861Y034911D01*
X005861Y035009D02*
X005801Y035009D01*
X005801Y035108D02*
X005861Y035108D01*
X005861Y035206D02*
X005801Y035206D01*
X005801Y035305D02*
X005861Y035305D01*
X005861Y035403D02*
X005801Y035403D01*
X005801Y035502D02*
X005861Y035502D01*
X005861Y035600D02*
X005801Y035600D01*
X005801Y035699D02*
X005861Y035699D01*
X005263Y035699D02*
X005021Y035699D01*
X005021Y035600D02*
X005126Y035600D01*
X005049Y035502D02*
X005021Y035502D01*
X004642Y034812D02*
X004021Y034812D01*
X004021Y034714D02*
X004741Y034714D01*
X004079Y034221D02*
X004021Y034221D01*
X004801Y033039D02*
X004861Y033039D01*
X004861Y032941D02*
X004801Y032941D01*
X004801Y032842D02*
X004861Y032842D01*
X004861Y032744D02*
X004801Y032744D01*
X005010Y033532D02*
X005141Y033532D01*
X005521Y033335D02*
X011297Y033335D01*
X011199Y033236D02*
X005521Y033236D01*
X005521Y033138D02*
X011100Y033138D01*
X011002Y033039D02*
X006206Y033039D01*
X006261Y032941D02*
X006441Y032941D01*
X006441Y032842D02*
X006261Y032842D01*
X006261Y032744D02*
X006441Y032744D01*
X006441Y032645D02*
X005861Y032645D01*
X005861Y032547D02*
X005801Y032547D01*
X005801Y032448D02*
X005861Y032448D01*
X005861Y032350D02*
X005801Y032350D01*
X005801Y032251D02*
X005861Y032251D01*
X005861Y032744D02*
X005801Y032744D01*
X005801Y032842D02*
X005861Y032842D01*
X005861Y032941D02*
X005801Y032941D01*
X005801Y033039D02*
X005861Y033039D01*
X006261Y032547D02*
X006441Y032547D01*
X006831Y032642D02*
X006331Y032142D01*
X006331Y027392D01*
X006721Y027425D02*
X006941Y027425D01*
X006941Y027523D02*
X006721Y027523D01*
X006721Y027622D02*
X006941Y027622D01*
X006941Y027720D02*
X006721Y027720D01*
X006693Y027819D02*
X006970Y027819D01*
X006941Y027750D02*
X006941Y027035D01*
X007000Y026891D01*
X007110Y026781D01*
X007254Y026722D01*
X007409Y026722D01*
X007552Y026781D01*
X007662Y026891D01*
X007721Y027035D01*
X007721Y027750D01*
X007662Y027893D01*
X007552Y028003D01*
X007491Y028028D01*
X007491Y028526D01*
X007493Y028527D01*
X007554Y028502D01*
X007709Y028502D01*
X007852Y028561D01*
X007962Y028671D01*
X008021Y028815D01*
X008021Y028970D01*
X007962Y029113D01*
X007852Y029223D01*
X007709Y029282D01*
X007554Y029282D01*
X007410Y029223D01*
X007300Y029113D01*
X007241Y028970D01*
X007241Y028815D01*
X007266Y028754D01*
X007171Y028658D01*
X007171Y028028D01*
X007110Y028003D01*
X007000Y027893D01*
X006941Y027750D01*
X007025Y027917D02*
X006638Y027917D01*
X006521Y028016D02*
X007141Y028016D01*
X007171Y028114D02*
X006491Y028114D01*
X006491Y028213D02*
X007171Y028213D01*
X007171Y028311D02*
X006491Y028311D01*
X006491Y028410D02*
X007171Y028410D01*
X007171Y028508D02*
X006491Y028508D01*
X006491Y028607D02*
X007171Y028607D01*
X007218Y028705D02*
X006491Y028705D01*
X006491Y028804D02*
X007246Y028804D01*
X007241Y028902D02*
X006491Y028902D01*
X006491Y029001D02*
X007254Y029001D01*
X007295Y029099D02*
X006491Y029099D01*
X006491Y029198D02*
X007385Y029198D01*
X007631Y028892D02*
X007331Y028592D01*
X007331Y027392D01*
X007721Y027425D02*
X007941Y027425D01*
X007941Y027523D02*
X007721Y027523D01*
X007721Y027622D02*
X007941Y027622D01*
X007941Y027720D02*
X007721Y027720D01*
X007693Y027819D02*
X007970Y027819D01*
X008025Y027917D02*
X007638Y027917D01*
X007521Y028016D02*
X008141Y028016D01*
X008331Y027692D02*
X009531Y028892D01*
X009285Y029198D02*
X007877Y029198D01*
X007967Y029099D02*
X009195Y029099D01*
X009154Y029001D02*
X008008Y029001D01*
X008021Y028902D02*
X009141Y028902D01*
X009146Y028804D02*
X008017Y028804D01*
X007976Y028705D02*
X009118Y028705D01*
X009019Y028607D02*
X007897Y028607D01*
X007723Y028508D02*
X008921Y028508D01*
X008822Y028410D02*
X007491Y028410D01*
X007491Y028508D02*
X007539Y028508D01*
X007491Y028311D02*
X008724Y028311D01*
X008625Y028213D02*
X007491Y028213D01*
X007491Y028114D02*
X008527Y028114D01*
X008782Y027917D02*
X008978Y027917D01*
X008963Y027897D02*
X008933Y027837D01*
X008912Y027773D01*
X008901Y027706D01*
X008901Y027422D01*
X009301Y027422D01*
X009301Y027362D01*
X009361Y027362D01*
X009361Y026682D01*
X009365Y026682D01*
X009432Y026693D01*
X009496Y026714D01*
X009556Y026744D01*
X009611Y026784D01*
X009659Y026832D01*
X009699Y026887D01*
X009730Y026947D01*
X009751Y027011D01*
X009761Y027078D01*
X009761Y027362D01*
X009361Y027362D01*
X009361Y027422D01*
X009761Y027422D01*
X009761Y027706D01*
X009751Y027773D01*
X009730Y027837D01*
X009699Y027897D01*
X009659Y027952D01*
X009611Y028000D01*
X009556Y028040D01*
X009496Y028071D01*
X009432Y028092D01*
X009365Y028102D01*
X009361Y028102D01*
X009361Y027422D01*
X009301Y027422D01*
X009301Y028102D01*
X009297Y028102D01*
X009230Y028092D01*
X009166Y028071D01*
X009106Y028040D01*
X009051Y028000D01*
X009003Y027952D01*
X008963Y027897D01*
X008927Y027819D02*
X008693Y027819D01*
X008721Y027720D02*
X008903Y027720D01*
X008901Y027622D02*
X008721Y027622D01*
X008721Y027523D02*
X008901Y027523D01*
X008901Y027425D02*
X008721Y027425D01*
X008721Y027326D02*
X008901Y027326D01*
X008901Y027362D02*
X008901Y027078D01*
X008912Y027011D01*
X008933Y026947D01*
X008963Y026887D01*
X009003Y026832D01*
X009051Y026784D01*
X009106Y026744D01*
X009166Y026714D01*
X009230Y026693D01*
X009297Y026682D01*
X009301Y026682D01*
X009301Y027362D01*
X008901Y027362D01*
X008901Y027228D02*
X008721Y027228D01*
X008721Y027129D02*
X008901Y027129D01*
X008909Y027031D02*
X008719Y027031D01*
X008679Y026932D02*
X008940Y026932D01*
X009002Y026834D02*
X008604Y026834D01*
X008440Y026735D02*
X009124Y026735D01*
X009301Y026735D02*
X009361Y026735D01*
X009361Y026834D02*
X009301Y026834D01*
X009301Y026932D02*
X009361Y026932D01*
X009361Y027031D02*
X009301Y027031D01*
X009301Y027129D02*
X009361Y027129D01*
X009361Y027228D02*
X009301Y027228D01*
X009301Y027326D02*
X009361Y027326D01*
X009361Y027425D02*
X009301Y027425D01*
X009301Y027523D02*
X009361Y027523D01*
X009361Y027622D02*
X009301Y027622D01*
X009301Y027720D02*
X009361Y027720D01*
X009361Y027819D02*
X009301Y027819D01*
X009301Y027917D02*
X009361Y027917D01*
X009361Y028016D02*
X009301Y028016D01*
X009072Y028016D02*
X008881Y028016D01*
X008331Y027692D02*
X008331Y027392D01*
X007941Y027326D02*
X007721Y027326D01*
X007721Y027228D02*
X007941Y027228D01*
X007941Y027129D02*
X007721Y027129D01*
X007719Y027031D02*
X007943Y027031D01*
X007984Y026932D02*
X007679Y026932D01*
X007604Y026834D02*
X008058Y026834D01*
X008222Y026735D02*
X007440Y026735D01*
X007222Y026735D02*
X006440Y026735D01*
X006604Y026834D02*
X007058Y026834D01*
X006984Y026932D02*
X006679Y026932D01*
X006719Y027031D02*
X006943Y027031D01*
X006941Y027129D02*
X006721Y027129D01*
X006721Y027228D02*
X006941Y027228D01*
X006941Y027326D02*
X006721Y027326D01*
X006222Y026735D02*
X005440Y026735D01*
X005604Y026834D02*
X006058Y026834D01*
X005984Y026932D02*
X005679Y026932D01*
X005719Y027031D02*
X005943Y027031D01*
X005941Y027129D02*
X005721Y027129D01*
X005721Y027228D02*
X005941Y027228D01*
X005941Y027326D02*
X005721Y027326D01*
X005721Y027425D02*
X005941Y027425D01*
X005941Y027523D02*
X005721Y027523D01*
X005721Y027622D02*
X005941Y027622D01*
X005941Y027720D02*
X005721Y027720D01*
X005693Y027819D02*
X005970Y027819D01*
X006025Y027917D02*
X005638Y027917D01*
X005521Y028016D02*
X006141Y028016D01*
X004861Y029986D02*
X004801Y029986D01*
X004801Y030084D02*
X004861Y030084D01*
X004861Y030183D02*
X004801Y030183D01*
X004801Y030281D02*
X004861Y030281D01*
X004861Y030380D02*
X004801Y030380D01*
X004801Y030478D02*
X004861Y030478D01*
X004861Y030577D02*
X004801Y030577D01*
X004801Y030675D02*
X004861Y030675D01*
X004861Y030774D02*
X004801Y030774D01*
X004801Y030872D02*
X004861Y030872D01*
X004861Y030971D02*
X004801Y030971D01*
X004801Y031069D02*
X004861Y031069D01*
X004861Y031168D02*
X004801Y031168D01*
X004801Y031266D02*
X004861Y031266D01*
X005089Y031266D02*
X005141Y031266D01*
X006020Y031266D02*
X006171Y031266D01*
X006171Y031168D02*
X006137Y031168D01*
X007221Y032350D02*
X007441Y032350D01*
X007441Y032317D02*
X007506Y032252D01*
X008157Y032252D01*
X008221Y032317D01*
X008221Y032482D01*
X008441Y032482D01*
X008441Y032317D01*
X008506Y032252D01*
X009157Y032252D01*
X009221Y032317D01*
X009221Y032482D01*
X009441Y032482D01*
X009441Y032317D01*
X009506Y032252D01*
X010157Y032252D01*
X010221Y032317D01*
X010221Y032968D01*
X010157Y033032D01*
X009506Y033032D01*
X009441Y032968D01*
X009441Y032802D01*
X009221Y032802D01*
X009221Y032968D01*
X009157Y033032D01*
X008506Y033032D01*
X008441Y032968D01*
X008441Y032802D01*
X008221Y032802D01*
X008221Y032968D01*
X008157Y033032D01*
X007506Y033032D01*
X007441Y032968D01*
X007441Y032317D01*
X007441Y032448D02*
X007221Y032448D01*
X007221Y032547D02*
X007441Y032547D01*
X007441Y032645D02*
X007221Y032645D01*
X007221Y032744D02*
X007441Y032744D01*
X007441Y032842D02*
X007221Y032842D01*
X007221Y032941D02*
X007441Y032941D01*
X007831Y032642D02*
X008831Y032642D01*
X009831Y032642D01*
X010221Y032645D02*
X010441Y032645D01*
X010441Y032547D02*
X010221Y032547D01*
X010221Y032448D02*
X010441Y032448D01*
X010441Y032350D02*
X010221Y032350D01*
X010221Y032744D02*
X010441Y032744D01*
X010441Y032842D02*
X010221Y032842D01*
X010221Y032941D02*
X010441Y032941D01*
X011221Y032744D02*
X011441Y032744D01*
X011441Y032842D02*
X011257Y032842D01*
X011356Y032941D02*
X011441Y032941D01*
X011454Y033039D02*
X015456Y033039D01*
X015401Y032941D02*
X015221Y032941D01*
X015221Y032842D02*
X015401Y032842D01*
X015401Y032744D02*
X015221Y032744D01*
X014831Y032642D02*
X014331Y032142D01*
X014221Y032744D02*
X014441Y032744D01*
X014441Y032842D02*
X014221Y032842D01*
X014221Y032941D02*
X014441Y032941D01*
X013441Y032941D02*
X013221Y032941D01*
X013221Y032842D02*
X013441Y032842D01*
X013441Y032744D02*
X013221Y032744D01*
X012441Y032744D02*
X012221Y032744D01*
X012221Y032842D02*
X012441Y032842D01*
X012441Y032941D02*
X012221Y032941D01*
X011553Y033138D02*
X016109Y033138D01*
X016206Y033039D02*
X016208Y033039D01*
X016261Y032941D02*
X016306Y032941D01*
X016261Y032842D02*
X016405Y032842D01*
X016441Y032744D02*
X016261Y032744D01*
X015861Y032744D02*
X015801Y032744D01*
X015801Y032842D02*
X015861Y032842D01*
X015861Y032941D02*
X015801Y032941D01*
X015801Y033039D02*
X015861Y033039D01*
X015861Y032547D02*
X015801Y032547D01*
X015801Y032448D02*
X015861Y032448D01*
X015861Y032350D02*
X015801Y032350D01*
X015801Y032251D02*
X015861Y032251D01*
X017759Y029690D02*
X018141Y029690D01*
X018521Y029690D02*
X019471Y029690D01*
X019471Y029592D02*
X018521Y029592D01*
X018521Y029493D02*
X019471Y029493D01*
X019471Y029395D02*
X018521Y029395D01*
X018521Y029296D02*
X019471Y029296D01*
X019471Y029198D02*
X018521Y029198D01*
X018521Y029099D02*
X019462Y029099D01*
X019363Y029001D02*
X018521Y029001D01*
X018521Y028902D02*
X019265Y028902D01*
X019166Y028804D02*
X018521Y028804D01*
X018521Y028705D02*
X019068Y028705D01*
X018816Y028607D02*
X018521Y028607D01*
X018521Y028508D02*
X018738Y028508D01*
X018712Y028410D02*
X018582Y028410D01*
X018681Y028311D02*
X018724Y028311D01*
X018779Y028213D02*
X018781Y028213D01*
X018981Y028392D02*
X019631Y029042D01*
X019631Y031642D01*
X019430Y031463D02*
X018521Y031463D01*
X018521Y031365D02*
X019471Y031365D01*
X019471Y031266D02*
X018521Y031266D01*
X018521Y031168D02*
X019471Y031168D01*
X019471Y031069D02*
X018521Y031069D01*
X018521Y030971D02*
X019471Y030971D01*
X019471Y030872D02*
X018521Y030872D01*
X018521Y030774D02*
X019471Y030774D01*
X019471Y030675D02*
X018521Y030675D01*
X018521Y030577D02*
X019471Y030577D01*
X019471Y030478D02*
X018521Y030478D01*
X018521Y030380D02*
X019471Y030380D01*
X019471Y030281D02*
X018521Y030281D01*
X018521Y030183D02*
X019471Y030183D01*
X019471Y030084D02*
X018521Y030084D01*
X018521Y029986D02*
X019471Y029986D01*
X019471Y029887D02*
X018521Y029887D01*
X018521Y029789D02*
X019471Y029789D01*
X019791Y029789D02*
X020921Y029789D01*
X020921Y029887D02*
X019791Y029887D01*
X019791Y029986D02*
X020921Y029986D01*
X020921Y030084D02*
X019791Y030084D01*
X019791Y030183D02*
X020921Y030183D01*
X020921Y030281D02*
X019791Y030281D01*
X019791Y030380D02*
X020921Y030380D01*
X020921Y030478D02*
X019791Y030478D01*
X019791Y030577D02*
X020921Y030577D01*
X020921Y030675D02*
X019791Y030675D01*
X019791Y030774D02*
X020921Y030774D01*
X020921Y030872D02*
X019791Y030872D01*
X019791Y030971D02*
X020921Y030971D01*
X020921Y031069D02*
X019791Y031069D01*
X019791Y031168D02*
X020921Y031168D01*
X020921Y031266D02*
X019791Y031266D01*
X019791Y031365D02*
X020921Y031365D01*
X020834Y031463D02*
X019832Y031463D01*
X019889Y031562D02*
X020735Y031562D01*
X020637Y031660D02*
X019900Y031660D01*
X019874Y031759D02*
X020538Y031759D01*
X020440Y031857D02*
X019796Y031857D01*
X020171Y032153D02*
X018521Y032153D01*
X018521Y032251D02*
X020171Y032251D01*
X020331Y032192D02*
X020331Y036286D01*
X018581Y038036D01*
X017968Y036487D02*
X009165Y036487D01*
X009263Y036388D02*
X018066Y036388D01*
X018141Y036290D02*
X009305Y036290D01*
X009331Y036191D02*
X018141Y036191D01*
X018141Y036093D02*
X009331Y036093D01*
X009305Y035994D02*
X018141Y035994D01*
X018141Y035896D02*
X009263Y035896D01*
X010971Y037472D02*
X011151Y037472D01*
X011151Y037570D02*
X010971Y037570D01*
X010971Y037669D02*
X011151Y037669D01*
X011161Y037767D02*
X010964Y037767D01*
X010923Y037866D02*
X011197Y037866D01*
X011265Y037964D02*
X010841Y037964D01*
X013551Y037176D02*
X013611Y037176D01*
X013611Y037078D02*
X013551Y037078D01*
X013551Y036979D02*
X013611Y036979D01*
X013611Y036881D02*
X013551Y036881D01*
X013551Y036782D02*
X013611Y036782D01*
X015944Y039048D02*
X021309Y039048D01*
X021214Y038949D02*
X016043Y038949D01*
X016021Y038971D02*
X016021Y038971D01*
X016141Y038851D02*
X021173Y038851D01*
X021151Y038752D02*
X016240Y038752D01*
X016338Y038654D02*
X021151Y038654D01*
X021581Y038392D02*
X020831Y037642D01*
X020831Y033892D01*
X021331Y033392D01*
X020331Y032192D02*
X021081Y031442D01*
X021081Y029442D01*
X020969Y029198D02*
X019791Y029198D01*
X019791Y029296D02*
X020851Y029296D01*
X020812Y029395D02*
X019791Y029395D01*
X019791Y029493D02*
X020812Y029493D01*
X020852Y029592D02*
X019791Y029592D01*
X019791Y029690D02*
X020921Y029690D01*
X020341Y031956D02*
X018521Y031956D01*
X018521Y032054D02*
X020243Y032054D01*
X019466Y031857D02*
X018521Y031857D01*
X018521Y031759D02*
X019388Y031759D01*
X019362Y031660D02*
X018521Y031660D01*
X018521Y031562D02*
X019374Y031562D01*
X019441Y032350D02*
X019221Y032350D01*
X019221Y032448D02*
X019441Y032448D01*
X019441Y032547D02*
X019221Y032547D01*
X019221Y032645D02*
X019441Y032645D01*
X019441Y032744D02*
X019221Y032744D01*
X019221Y032842D02*
X019441Y032842D01*
X019441Y032941D02*
X019221Y032941D01*
X019041Y034123D02*
X018521Y034123D01*
X018521Y034221D02*
X019041Y034221D01*
X019041Y034320D02*
X018521Y034320D01*
X018521Y034418D02*
X019041Y034418D01*
X019049Y034517D02*
X018521Y034517D01*
X018521Y034615D02*
X019075Y034615D01*
X019123Y034714D02*
X018521Y034714D01*
X018521Y034812D02*
X019204Y034812D01*
X019819Y034911D02*
X020171Y034911D01*
X020171Y034812D02*
X019958Y034812D01*
X020039Y034714D02*
X020171Y034714D01*
X020171Y034615D02*
X020087Y034615D01*
X020113Y034517D02*
X020171Y034517D01*
X020171Y034418D02*
X020121Y034418D01*
X020121Y034320D02*
X020171Y034320D01*
X020171Y034221D02*
X020121Y034221D01*
X020121Y034123D02*
X020171Y034123D01*
X020991Y035699D02*
X021295Y035699D01*
X021200Y035797D02*
X020991Y035797D01*
X020991Y035896D02*
X021144Y035896D01*
X021118Y035994D02*
X020991Y035994D01*
X020991Y036093D02*
X021111Y036093D01*
X021111Y036191D02*
X020991Y036191D01*
X021084Y037669D02*
X021431Y037669D01*
X021278Y037767D02*
X021182Y037767D01*
X018340Y028114D02*
X018279Y028114D01*
X018181Y028016D02*
X018439Y028016D01*
X018537Y027917D02*
X018082Y027917D01*
X017984Y027819D02*
X018636Y027819D01*
X018734Y027720D02*
X017885Y027720D01*
X017787Y027622D02*
X018833Y027622D01*
X018931Y027523D02*
X017688Y027523D01*
X017590Y027425D02*
X019030Y027425D01*
X019128Y027326D02*
X017491Y027326D01*
X017393Y027228D02*
X019227Y027228D01*
X019325Y027129D02*
X017294Y027129D01*
X017196Y027031D02*
X019424Y027031D01*
X019522Y026932D02*
X017097Y026932D01*
X016999Y026834D02*
X019621Y026834D01*
X019719Y026735D02*
X016991Y026735D01*
X016991Y026637D02*
X019818Y026637D01*
X019916Y026538D02*
X016991Y026538D01*
X016991Y026440D02*
X020015Y026440D01*
X020113Y026341D02*
X016991Y026341D01*
X016991Y026243D02*
X020212Y026243D01*
X020310Y026144D02*
X016991Y026144D01*
X016991Y026046D02*
X020409Y026046D01*
X020454Y026538D02*
X022391Y026538D01*
X022391Y026440D02*
X022365Y026440D01*
X022391Y026637D02*
X020355Y026637D01*
X020257Y026735D02*
X022391Y026735D01*
X022391Y026834D02*
X022354Y026834D01*
X022369Y025849D02*
X022391Y025849D01*
X022391Y025750D02*
X016991Y025750D01*
X016991Y025652D02*
X022391Y025652D01*
X022391Y025553D02*
X022238Y025553D01*
X021861Y025553D02*
X021801Y025553D01*
X021801Y025455D02*
X021861Y025455D01*
X021861Y025356D02*
X021801Y025356D01*
X021801Y025258D02*
X021861Y025258D01*
X021801Y025159D02*
X019116Y025159D01*
X019214Y025061D02*
X021129Y025061D01*
X021132Y025041D02*
X021153Y024977D01*
X021183Y024917D01*
X021223Y024862D01*
X021271Y024814D01*
X021326Y024774D01*
X021386Y024744D01*
X021450Y024723D01*
X021517Y024712D01*
X021801Y024712D01*
X021801Y025112D01*
X021121Y025112D01*
X021121Y025108D01*
X021132Y025041D01*
X021160Y024962D02*
X019221Y024962D01*
X019221Y024864D02*
X021222Y024864D01*
X021344Y024765D02*
X019221Y024765D01*
X019157Y024667D02*
X022337Y024667D01*
X022318Y024765D02*
X022391Y024765D01*
X022238Y024568D02*
X019059Y024568D01*
X019017Y025258D02*
X021137Y025258D01*
X021801Y025061D02*
X021861Y025061D01*
X021861Y024962D02*
X021801Y024962D01*
X021801Y024864D02*
X021861Y024864D01*
X021861Y024765D02*
X021801Y024765D01*
X021481Y022007D02*
X021182Y022007D01*
X021221Y021909D02*
X021441Y021909D01*
X021441Y021810D02*
X021221Y021810D01*
X021221Y021712D02*
X021441Y021712D01*
X021441Y021613D02*
X021221Y021613D01*
X021221Y021515D02*
X021441Y021515D01*
X021441Y021416D02*
X021221Y021416D01*
X021221Y021318D02*
X021441Y021318D01*
X021204Y021022D02*
X022225Y021022D01*
X022323Y020924D02*
X021375Y020924D01*
X021452Y020825D02*
X022421Y020825D01*
X022421Y020727D02*
X021493Y020727D01*
X021496Y020628D02*
X022421Y020628D01*
X022421Y020530D02*
X021481Y020530D01*
X021441Y020431D02*
X022421Y020431D01*
X022421Y020333D02*
X021347Y020333D01*
X022221Y021712D02*
X023228Y021712D01*
X023228Y021810D02*
X022221Y021810D01*
X022221Y021909D02*
X023228Y021909D01*
X023228Y022007D02*
X022182Y022007D01*
X022421Y018067D02*
X020021Y018067D01*
X020021Y017969D02*
X020332Y017969D01*
X020334Y017971D02*
X020225Y017862D01*
X020166Y017719D01*
X020166Y017565D01*
X020225Y017423D01*
X020334Y017314D01*
X020477Y017255D01*
X021186Y017255D01*
X021328Y017314D01*
X021437Y017423D01*
X021496Y017565D01*
X021496Y017719D01*
X021437Y017862D01*
X021328Y017971D01*
X021186Y018030D01*
X020477Y018030D01*
X020334Y017971D01*
X020234Y017870D02*
X020021Y017870D01*
X020021Y017772D02*
X020188Y017772D01*
X020166Y017673D02*
X020021Y017673D01*
X020021Y017575D02*
X020166Y017575D01*
X020203Y017476D02*
X020021Y017476D01*
X020021Y017378D02*
X020270Y017378D01*
X020417Y017279D02*
X020021Y017279D01*
X020021Y017181D02*
X022421Y017181D01*
X022421Y017279D02*
X021245Y017279D01*
X021392Y017378D02*
X022421Y017378D01*
X022421Y017476D02*
X021459Y017476D01*
X021496Y017575D02*
X022421Y017575D01*
X022421Y017673D02*
X021496Y017673D01*
X021474Y017772D02*
X022421Y017772D01*
X022421Y017870D02*
X021429Y017870D01*
X021330Y017969D02*
X022421Y017969D01*
X022421Y017082D02*
X020021Y017082D01*
X020021Y016984D02*
X020366Y016984D01*
X020334Y016971D02*
X020225Y016862D01*
X020166Y016719D01*
X020166Y016565D01*
X020225Y016423D01*
X020334Y016314D01*
X020477Y016255D01*
X021186Y016255D01*
X021328Y016314D01*
X021437Y016423D01*
X021496Y016565D01*
X021496Y016719D01*
X021437Y016862D01*
X021328Y016971D01*
X021186Y017030D01*
X020477Y017030D01*
X020334Y016971D01*
X020249Y016885D02*
X020021Y016885D01*
X020021Y016787D02*
X020194Y016787D01*
X020166Y016688D02*
X020021Y016688D01*
X020021Y016590D02*
X020166Y016590D01*
X020197Y016491D02*
X019949Y016491D01*
X019850Y016393D02*
X020255Y016393D01*
X020381Y016294D02*
X019752Y016294D01*
X019653Y016196D02*
X021908Y016196D01*
X022007Y016294D02*
X021281Y016294D01*
X021407Y016393D02*
X022105Y016393D01*
X022204Y016491D02*
X021465Y016491D01*
X021496Y016590D02*
X022302Y016590D01*
X022401Y016688D02*
X021496Y016688D01*
X021468Y016787D02*
X022421Y016787D01*
X022421Y016885D02*
X021414Y016885D01*
X021297Y016984D02*
X022421Y016984D01*
X021810Y016097D02*
X019555Y016097D01*
X019456Y015999D02*
X021711Y015999D01*
X021613Y015900D02*
X017697Y015900D01*
X017599Y015802D02*
X021514Y015802D01*
X021416Y015703D02*
X014187Y015703D01*
X014221Y015802D02*
X016063Y015802D01*
X015965Y015900D02*
X014221Y015900D01*
X014221Y015999D02*
X015901Y015999D01*
X015901Y016097D02*
X014221Y016097D01*
X014221Y016196D02*
X015901Y016196D01*
X015901Y016294D02*
X014221Y016294D01*
X014221Y016393D02*
X015974Y016393D01*
X016072Y016491D02*
X014221Y016491D01*
X014184Y016590D02*
X018166Y016590D01*
X018166Y016688D02*
X014117Y016688D01*
X013546Y016688D02*
X013117Y016688D01*
X013184Y016590D02*
X013478Y016590D01*
X013441Y016491D02*
X013221Y016491D01*
X013221Y016393D02*
X013441Y016393D01*
X013441Y016294D02*
X013221Y016294D01*
X013221Y016196D02*
X013441Y016196D01*
X013441Y016097D02*
X013221Y016097D01*
X013221Y015999D02*
X013441Y015999D01*
X013441Y015900D02*
X013221Y015900D01*
X013221Y015802D02*
X013441Y015802D01*
X013475Y015703D02*
X013187Y015703D01*
X013125Y015605D02*
X013537Y015605D01*
X013671Y015506D02*
X012991Y015506D01*
X013489Y015211D02*
X015861Y015211D01*
X015861Y015092D02*
X015861Y014947D01*
X016136Y014672D01*
X016281Y014672D01*
X016281Y015092D01*
X015861Y015092D01*
X015861Y015014D02*
X013686Y015014D01*
X013587Y015112D02*
X016281Y015112D01*
X016281Y015014D02*
X016381Y015014D01*
X016381Y015112D02*
X017281Y015112D01*
X017281Y015092D02*
X016861Y015092D01*
X016861Y014947D01*
X017136Y014672D01*
X017281Y014672D01*
X017281Y015092D01*
X017381Y015092D01*
X017381Y014672D01*
X017526Y014672D01*
X017801Y014947D01*
X017801Y015092D01*
X017381Y015092D01*
X017381Y015192D01*
X017801Y015192D01*
X017801Y015337D01*
X017526Y015612D01*
X017381Y015612D01*
X017381Y015192D01*
X017281Y015192D01*
X017281Y015092D01*
X017281Y015014D02*
X017381Y015014D01*
X017381Y015112D02*
X020825Y015112D01*
X020923Y015211D02*
X017801Y015211D01*
X017801Y015309D02*
X021022Y015309D01*
X021120Y015408D02*
X017730Y015408D01*
X017632Y015506D02*
X021219Y015506D01*
X021317Y015605D02*
X017533Y015605D01*
X017381Y015605D02*
X017281Y015605D01*
X017281Y015612D02*
X017136Y015612D01*
X016861Y015337D01*
X016861Y015192D01*
X017281Y015192D01*
X017281Y015612D01*
X017281Y015506D02*
X017381Y015506D01*
X017381Y015408D02*
X017281Y015408D01*
X017281Y015309D02*
X017381Y015309D01*
X017381Y015211D02*
X017281Y015211D01*
X017281Y014915D02*
X017381Y014915D01*
X017381Y014817D02*
X017281Y014817D01*
X017281Y014718D02*
X017381Y014718D01*
X017572Y014718D02*
X020431Y014718D01*
X020529Y014817D02*
X017670Y014817D01*
X017769Y014915D02*
X020628Y014915D01*
X020726Y015014D02*
X017801Y015014D01*
X017090Y014718D02*
X016572Y014718D01*
X016670Y014817D02*
X016992Y014817D01*
X016893Y014915D02*
X016769Y014915D01*
X016801Y015014D02*
X016861Y015014D01*
X016861Y015211D02*
X016801Y015211D01*
X016801Y015309D02*
X016861Y015309D01*
X016932Y015408D02*
X016730Y015408D01*
X016632Y015506D02*
X017030Y015506D01*
X017129Y015605D02*
X016533Y015605D01*
X016381Y015605D02*
X016281Y015605D01*
X016281Y015506D02*
X016381Y015506D01*
X016381Y015408D02*
X016281Y015408D01*
X016281Y015309D02*
X016381Y015309D01*
X016381Y015211D02*
X016281Y015211D01*
X016281Y014915D02*
X016381Y014915D01*
X016381Y014817D02*
X016281Y014817D01*
X016281Y014718D02*
X016381Y014718D01*
X016090Y014718D02*
X013981Y014718D01*
X013883Y014817D02*
X015992Y014817D01*
X015893Y014915D02*
X013784Y014915D01*
X014080Y014620D02*
X020332Y014620D01*
X019510Y016590D02*
X019496Y016590D01*
X019496Y016688D02*
X019608Y016688D01*
X019641Y016787D02*
X019468Y016787D01*
X019414Y016885D02*
X019641Y016885D01*
X019641Y016984D02*
X019297Y016984D01*
X019186Y017255D02*
X019328Y017314D01*
X019437Y017423D01*
X019496Y017565D01*
X019496Y017719D01*
X019437Y017862D01*
X019328Y017971D01*
X019186Y018030D01*
X018477Y018030D01*
X018334Y017971D01*
X018225Y017862D01*
X018166Y017719D01*
X018166Y017565D01*
X018225Y017423D01*
X018334Y017314D01*
X018477Y017255D01*
X019186Y017255D01*
X019245Y017279D02*
X019641Y017279D01*
X019641Y017181D02*
X017761Y017181D01*
X017761Y017279D02*
X018417Y017279D01*
X018270Y017378D02*
X017704Y017378D01*
X017761Y017320D02*
X017509Y017572D01*
X017153Y017572D01*
X016901Y017320D01*
X016901Y016964D01*
X017153Y016712D01*
X017509Y016712D01*
X017761Y016964D01*
X017761Y017320D01*
X017605Y017476D02*
X018203Y017476D01*
X018166Y017575D02*
X015532Y017575D01*
X015631Y017673D02*
X018166Y017673D01*
X018188Y017772D02*
X017569Y017772D01*
X017667Y017870D02*
X018234Y017870D01*
X018332Y017969D02*
X017761Y017969D01*
X017761Y018067D02*
X019641Y018067D01*
X019641Y017969D02*
X019330Y017969D01*
X019429Y017870D02*
X019641Y017870D01*
X019641Y017772D02*
X019474Y017772D01*
X019496Y017673D02*
X019641Y017673D01*
X019641Y017575D02*
X019496Y017575D01*
X019459Y017476D02*
X019641Y017476D01*
X019641Y017378D02*
X019392Y017378D01*
X019641Y017082D02*
X017761Y017082D01*
X017761Y016984D02*
X018366Y016984D01*
X018249Y016885D02*
X017682Y016885D01*
X017584Y016787D02*
X018194Y016787D01*
X018197Y016491D02*
X017590Y016491D01*
X017689Y016393D02*
X018255Y016393D01*
X017072Y016491D02*
X016590Y016491D01*
X016689Y016393D02*
X016974Y016393D01*
X017078Y016787D02*
X016584Y016787D01*
X016509Y016712D02*
X016761Y016964D01*
X016761Y017320D01*
X016509Y017572D01*
X016153Y017572D01*
X015901Y017320D01*
X015901Y016964D01*
X016153Y016712D01*
X016509Y016712D01*
X016682Y016885D02*
X016980Y016885D01*
X016901Y016984D02*
X016761Y016984D01*
X016761Y017082D02*
X016901Y017082D01*
X016901Y017181D02*
X016761Y017181D01*
X016761Y017279D02*
X016901Y017279D01*
X016959Y017378D02*
X016704Y017378D01*
X016605Y017476D02*
X017057Y017476D01*
X017093Y017772D02*
X016569Y017772D01*
X016667Y017870D02*
X016995Y017870D01*
X016901Y017969D02*
X016761Y017969D01*
X016761Y018067D02*
X016901Y018067D01*
X016901Y018166D02*
X016761Y018166D01*
X016761Y018264D02*
X016901Y018264D01*
X016944Y018363D02*
X016719Y018363D01*
X016620Y018461D02*
X017042Y018461D01*
X017141Y018560D02*
X016522Y018560D01*
X016554Y018757D02*
X017108Y018757D01*
X017010Y018855D02*
X016652Y018855D01*
X016751Y018954D02*
X016911Y018954D01*
X016901Y019052D02*
X016761Y019052D01*
X016761Y019151D02*
X016901Y019151D01*
X016901Y019249D02*
X016761Y019249D01*
X016734Y019348D02*
X016929Y019348D01*
X017027Y019446D02*
X016635Y019446D01*
X016537Y019545D02*
X017126Y019545D01*
X017652Y018855D02*
X018222Y018855D01*
X018317Y018954D02*
X017751Y018954D01*
X018315Y020333D02*
X013521Y020333D01*
X013521Y020431D02*
X018222Y020431D01*
X018181Y020530D02*
X013521Y020530D01*
X013521Y020628D02*
X018166Y020628D01*
X018169Y020727D02*
X013521Y020727D01*
X013521Y020825D02*
X018210Y020825D01*
X018287Y020924D02*
X013521Y020924D01*
X013521Y021022D02*
X018459Y021022D01*
X018081Y023642D02*
X015581Y023642D01*
X015331Y023892D01*
X015331Y024392D01*
X015721Y024371D02*
X015941Y024371D01*
X015941Y024273D02*
X015721Y024273D01*
X015721Y024174D02*
X015941Y024174D01*
X015941Y024076D02*
X015721Y024076D01*
X015697Y023977D02*
X015965Y023977D01*
X016013Y023879D02*
X015649Y023879D01*
X015414Y023583D02*
X013521Y023583D01*
X013521Y023485D02*
X015512Y023485D01*
X015315Y023682D02*
X013521Y023682D01*
X013521Y022007D02*
X014588Y022007D01*
X014562Y021909D02*
X013521Y021909D01*
X013521Y021810D02*
X014574Y021810D01*
X014632Y021712D02*
X013521Y021712D01*
X013141Y019249D02*
X013056Y019249D01*
X013521Y018461D02*
X016042Y018461D01*
X015944Y018363D02*
X013521Y018363D01*
X013525Y018264D02*
X014138Y018264D01*
X014023Y018166D02*
X013639Y018166D01*
X013693Y018067D02*
X013969Y018067D01*
X013941Y017969D02*
X013721Y017969D01*
X013721Y017870D02*
X013941Y017870D01*
X014525Y018264D02*
X015684Y018264D01*
X015586Y018166D02*
X014639Y018166D01*
X014693Y018067D02*
X015487Y018067D01*
X015389Y017969D02*
X014721Y017969D01*
X014721Y017870D02*
X015290Y017870D01*
X015192Y017772D02*
X014721Y017772D01*
X014721Y017673D02*
X015093Y017673D01*
X014995Y017575D02*
X014721Y017575D01*
X014721Y017476D02*
X014896Y017476D01*
X014798Y017378D02*
X014721Y017378D01*
X014941Y016984D02*
X015901Y016984D01*
X015901Y017082D02*
X015040Y017082D01*
X015138Y017181D02*
X015901Y017181D01*
X015901Y017279D02*
X015237Y017279D01*
X015335Y017378D02*
X015959Y017378D01*
X016057Y017476D02*
X015434Y017476D01*
X015729Y017772D02*
X016093Y017772D01*
X015995Y017870D02*
X015828Y017870D01*
X015980Y016885D02*
X014843Y016885D01*
X014744Y016787D02*
X016078Y016787D01*
X016697Y015900D02*
X016965Y015900D01*
X017063Y015802D02*
X016599Y015802D01*
X016129Y015605D02*
X014125Y015605D01*
X013991Y015506D02*
X016030Y015506D01*
X013944Y014127D02*
X021690Y014127D01*
X017861Y024470D02*
X017801Y024470D01*
X017801Y024568D02*
X017861Y024568D01*
X017861Y024667D02*
X017801Y024667D01*
X017801Y024765D02*
X017861Y024765D01*
X017861Y024962D02*
X017801Y024962D01*
X017801Y025061D02*
X017861Y025061D01*
X017861Y025159D02*
X017801Y025159D01*
X017801Y025258D02*
X017861Y025258D01*
X018074Y025258D02*
X018645Y025258D01*
X018547Y025159D02*
X018172Y025159D01*
X018261Y025061D02*
X018448Y025061D01*
X018441Y024962D02*
X018261Y024962D01*
X016331Y026892D02*
X016331Y027392D01*
X016331Y026892D02*
X015331Y025892D01*
X009831Y025892D01*
X009538Y026735D02*
X010222Y026735D01*
X010058Y026834D02*
X009660Y026834D01*
X009722Y026932D02*
X009984Y026932D01*
X009943Y027031D02*
X009754Y027031D01*
X009761Y027129D02*
X009941Y027129D01*
X009941Y027228D02*
X009761Y027228D01*
X009761Y027326D02*
X009941Y027326D01*
X009941Y027425D02*
X009761Y027425D01*
X009761Y027523D02*
X009941Y027523D01*
X009941Y027622D02*
X009761Y027622D01*
X009759Y027720D02*
X009941Y027720D01*
X009970Y027819D02*
X009736Y027819D01*
X009685Y027917D02*
X010025Y027917D01*
X010141Y028016D02*
X009590Y028016D01*
X009250Y025061D02*
X009226Y025061D01*
X009721Y024174D02*
X009901Y024174D01*
X009902Y024076D02*
X009721Y024076D01*
X009697Y023977D02*
X009923Y023977D01*
X009969Y023879D02*
X009649Y023879D01*
X009549Y023780D02*
X010056Y023780D01*
X010301Y023780D02*
X010361Y023780D01*
X010361Y023879D02*
X010301Y023879D01*
X010301Y023977D02*
X010361Y023977D01*
X010361Y024076D02*
X010301Y024076D01*
X010301Y024174D02*
X010361Y024174D01*
X010361Y024273D02*
X010301Y024273D01*
X010361Y024371D02*
X010941Y024371D01*
X010941Y024273D02*
X010761Y024273D01*
X010761Y024174D02*
X010941Y024174D01*
X010941Y024076D02*
X010761Y024076D01*
X010739Y023977D02*
X010965Y023977D01*
X011013Y023879D02*
X010693Y023879D01*
X010606Y023780D02*
X011113Y023780D01*
X010941Y024470D02*
X010761Y024470D01*
X010761Y024568D02*
X010941Y024568D01*
X010941Y024667D02*
X010761Y024667D01*
X010752Y024765D02*
X010948Y024765D01*
X010988Y024864D02*
X010716Y024864D01*
X010649Y024962D02*
X011070Y024962D01*
X009441Y032350D02*
X009221Y032350D01*
X009221Y032448D02*
X009441Y032448D01*
X009441Y032842D02*
X009221Y032842D01*
X009221Y032941D02*
X009441Y032941D01*
X008441Y032941D02*
X008221Y032941D01*
X008221Y032842D02*
X008441Y032842D01*
X008441Y032448D02*
X008221Y032448D01*
X008221Y032350D02*
X008441Y032350D01*
X007070Y024962D02*
X006593Y024962D01*
X006674Y024864D02*
X006988Y024864D01*
X006948Y024765D02*
X006715Y024765D01*
X006721Y024667D02*
X006941Y024667D01*
X006941Y024568D02*
X006721Y024568D01*
X006721Y024470D02*
X006941Y024470D01*
X006941Y024371D02*
X006721Y024371D01*
X006721Y024273D02*
X006941Y024273D01*
X006941Y024174D02*
X006775Y024174D01*
X006874Y024076D02*
X006941Y024076D01*
X007081Y023642D02*
X006331Y024392D01*
X006331Y023392D02*
X005331Y024392D01*
X006331Y023392D02*
X006331Y017392D01*
X006831Y016892D01*
X007581Y016892D01*
X008081Y017392D01*
X007545Y017082D02*
X007351Y017082D01*
X007081Y017392D02*
X007581Y017892D01*
X007081Y018392D02*
X007081Y023642D01*
X004114Y020727D02*
X003223Y020727D01*
X003321Y020628D02*
X004016Y020628D01*
X003941Y020530D02*
X003420Y020530D01*
X003518Y020431D02*
X003941Y020431D01*
X003941Y020333D02*
X003617Y020333D01*
X003715Y020234D02*
X003941Y020234D01*
X004036Y020136D02*
X003814Y020136D01*
X003912Y020037D02*
X004135Y020037D01*
X002376Y021121D02*
X002021Y021121D01*
X002021Y021219D02*
X002278Y021219D01*
X002179Y021318D02*
X002021Y021318D01*
X002021Y021416D02*
X002171Y021416D01*
X002171Y021515D02*
X002021Y021515D01*
X002021Y021613D02*
X002171Y021613D01*
X002171Y021712D02*
X002021Y021712D01*
X002021Y021810D02*
X002171Y021810D01*
X002171Y021909D02*
X002021Y021909D01*
X002021Y022007D02*
X002171Y022007D01*
X002991Y023780D02*
X003113Y023780D01*
X003013Y023879D02*
X002991Y023879D01*
X002671Y025061D02*
X002491Y025061D01*
X002491Y025159D02*
X002671Y025159D01*
X002671Y025258D02*
X002491Y025258D01*
X002491Y025356D02*
X002671Y025356D01*
X002671Y025455D02*
X002491Y025455D01*
X002491Y025553D02*
X002671Y025553D01*
X002671Y025652D02*
X002491Y025652D01*
X002491Y025750D02*
X002671Y025750D01*
X002671Y025849D02*
X002491Y025849D01*
X002491Y025947D02*
X002671Y025947D01*
X002671Y026046D02*
X002491Y026046D01*
X002491Y026144D02*
X002671Y026144D01*
X002671Y026243D02*
X002491Y026243D01*
X002491Y026341D02*
X002671Y026341D01*
X002671Y026440D02*
X002491Y026440D01*
X002491Y026538D02*
X002671Y026538D01*
X002671Y026637D02*
X002491Y026637D01*
X002491Y026735D02*
X002671Y026735D01*
X006049Y015900D02*
X007347Y015900D01*
X007445Y015802D02*
X006148Y015802D01*
X007491Y016294D02*
X007631Y016294D01*
X007641Y016196D02*
X007504Y016196D01*
X007602Y016097D02*
X007740Y016097D01*
X015721Y024470D02*
X015941Y024470D01*
X015941Y024568D02*
X015721Y024568D01*
X015721Y024667D02*
X015941Y024667D01*
X015948Y024765D02*
X015715Y024765D01*
X015674Y024864D02*
X015988Y024864D01*
X016070Y024962D02*
X015593Y024962D01*
D22*
X016831Y025392D03*
X014831Y021892D03*
X011331Y020642D03*
X017581Y029892D03*
X018981Y028392D03*
X019631Y031642D03*
X021081Y029442D03*
X021331Y032142D03*
X022581Y033142D03*
X018081Y040892D03*
X013581Y040642D03*
X011081Y046892D03*
X006581Y046642D03*
X003331Y038892D03*
X002331Y032142D03*
X002831Y028642D03*
D23*
X001831Y032642D02*
X002331Y033142D01*
X003331Y033142D01*
X003831Y033642D01*
X003831Y036339D01*
X003902Y036410D01*
X004831Y034892D02*
X004831Y038892D01*
X003331Y038892D01*
X004831Y038892D02*
X015831Y038892D01*
X018331Y036392D01*
X018331Y028392D01*
X020581Y026142D01*
X021831Y026142D01*
X022581Y024642D02*
X019831Y021892D01*
X014831Y021892D01*
X013331Y024392D02*
X013331Y017642D01*
X012831Y018142D01*
X012831Y018642D01*
X012331Y017642D02*
X012331Y017392D01*
X012831Y016892D01*
X014581Y016892D01*
X015831Y018142D01*
X016331Y018142D01*
X016331Y016142D02*
X017331Y016142D01*
X019331Y016142D01*
X019831Y016642D01*
X019831Y021892D01*
X022581Y024642D02*
X022581Y033142D01*
X018081Y040892D02*
X017331Y041642D01*
X017331Y046642D01*
X016331Y046642D02*
X016331Y043392D01*
X013581Y040642D01*
X008331Y044142D02*
X011081Y046892D01*
X008331Y044142D02*
X008331Y040892D01*
X007331Y040892D02*
X007331Y045892D01*
X006581Y046642D01*
X005831Y037611D02*
X006831Y036611D01*
X006831Y035142D01*
X008081Y033892D01*
X008581Y033892D01*
X005331Y031142D02*
X005831Y030642D01*
X005331Y031142D02*
X005331Y034392D01*
X004831Y034892D01*
X001831Y032642D02*
X001831Y017392D01*
X002581Y016642D01*
X011331Y017642D02*
X011331Y020642D01*
X011331Y024392D01*
X012331Y024392D02*
X012331Y017642D01*
X013331Y017642D02*
X014331Y017642D01*
M02*
