%
M48
M72
T01C0.0157
T02C0.0315
T03C0.0320
T04C0.0360
T05C0.0400
T06C0.0440
T07C0.0520
T08C0.0787
%
T01
X2831Y28642
X2331Y32142
X3331Y38892
X6581Y46642
X11081Y46892
X13581Y40642
X18081Y40892
X22581Y33142
X21331Y32142
X21081Y29442
X19631Y31642
X18981Y28392
X17581Y29892
X16831Y25392
X14831Y21892
X11331Y20642
T02
X18831Y20642
X18831Y18642
X18831Y17642
X18831Y16642
X20831Y16642
X20831Y17642
X20831Y18642
X20831Y20642
T03
X3902Y36410
X5831Y35248
X4581Y33892
X4831Y32642
X3831Y32642
X2831Y32642
X4831Y30642
X5831Y30642
X6831Y30642
X7631Y28892
X7331Y27392
X6331Y27392
X5331Y27392
X4331Y27392
X3331Y27392
X3331Y24392
X4331Y24392
X5331Y24392
X6331Y24392
X7331Y24392
X8331Y24392
X9331Y24392
X10331Y24392
X11331Y24392
X12331Y24392
X13331Y24392
X14331Y24392
X15331Y24392
X16331Y24392
X17831Y24892
X18331Y24142
X18831Y24892
X20831Y21642
X21831Y21642
X21831Y25142
X21831Y26142
X21831Y27142
X21831Y32642
X20831Y32642
X19831Y32642
X18831Y32642
X17831Y32642
X16831Y32642
X15831Y32642
X14831Y32642
X13831Y32642
X12831Y32642
X11831Y32642
X10831Y32642
X9831Y32642
X8831Y32642
X8581Y33892
X7831Y32642
X6831Y32642
X5831Y32642
X5831Y37611
X9581Y37392
X10581Y37392
X11581Y37392
X13581Y37392
X14581Y37392
X9531Y28892
X9331Y27392
X8331Y27392
X10331Y27392
X11331Y27392
X12331Y27392
X13331Y27392
X14331Y27392
X15331Y27392
X16331Y27392
X12831Y18642
X12331Y17642
X11831Y18642
X11331Y17642
X10831Y16142
X10331Y17642
X11831Y16142
X12831Y16142
X13331Y17642
X13831Y16142
X14331Y17642
X4331Y19392
X4331Y20392
X3831Y21642
X2831Y21642
T04
X7081Y16392
X7081Y17392
X7081Y18392
X8081Y18392
X8081Y17392
X8081Y16392
T05
X5331Y40892
X6331Y40892
X7331Y40892
X8331Y40892
X9331Y40892
X8581Y36142
X8581Y35142
X15331Y46642
X16331Y46642
X17331Y46642
X18331Y46642
X19331Y46642
X16331Y19142
X16331Y18142
X16331Y17142
X16331Y16142
X16331Y15142
X17331Y15142
X17331Y16142
X17331Y17142
X17331Y18142
X17331Y19142
X21581Y36392
X22581Y37392
X21581Y38392
T06
X2581Y16642
X4581Y16642
T07
X17581Y34036
X19581Y34036
X18581Y38036
T08
X2512Y14323
X2512Y34402
X22197Y34402
X22197Y14323
M30
