G75*
G70*
%OFA0B0*%
%FSLAX24Y24*%
%IPPOS*%
%LPD*%
%AMOC8*
5,1,8,0,0,1.08239X$1,22.5*
%
%ADD10C,0.0000*%
%ADD11C,0.0372*%
D10*
X001331Y013142D02*
X001331Y039520D01*
X023378Y039520D01*
X023378Y013142D01*
X019835Y013142D01*
X019048Y013930D01*
X013930Y013930D01*
X013142Y014717D01*
X011567Y014717D01*
X010780Y013930D01*
X005662Y013930D01*
X004874Y013142D01*
X001331Y013142D01*
X002118Y014323D02*
X002120Y014362D01*
X002126Y014401D01*
X002136Y014439D01*
X002149Y014476D01*
X002166Y014511D01*
X002186Y014545D01*
X002210Y014576D01*
X002237Y014605D01*
X002266Y014631D01*
X002298Y014654D01*
X002332Y014674D01*
X002368Y014690D01*
X002405Y014702D01*
X002444Y014711D01*
X002483Y014716D01*
X002522Y014717D01*
X002561Y014714D01*
X002600Y014707D01*
X002637Y014696D01*
X002674Y014682D01*
X002709Y014664D01*
X002742Y014643D01*
X002773Y014618D01*
X002801Y014591D01*
X002826Y014561D01*
X002848Y014528D01*
X002867Y014494D01*
X002882Y014458D01*
X002894Y014420D01*
X002902Y014382D01*
X002906Y014343D01*
X002906Y014303D01*
X002902Y014264D01*
X002894Y014226D01*
X002882Y014188D01*
X002867Y014152D01*
X002848Y014118D01*
X002826Y014085D01*
X002801Y014055D01*
X002773Y014028D01*
X002742Y014003D01*
X002709Y013982D01*
X002674Y013964D01*
X002637Y013950D01*
X002600Y013939D01*
X002561Y013932D01*
X002522Y013929D01*
X002483Y013930D01*
X002444Y013935D01*
X002405Y013944D01*
X002368Y013956D01*
X002332Y013972D01*
X002298Y013992D01*
X002266Y014015D01*
X002237Y014041D01*
X002210Y014070D01*
X002186Y014101D01*
X002166Y014135D01*
X002149Y014170D01*
X002136Y014207D01*
X002126Y014245D01*
X002120Y014284D01*
X002118Y014323D01*
X002118Y034402D02*
X002120Y034441D01*
X002126Y034480D01*
X002136Y034518D01*
X002149Y034555D01*
X002166Y034590D01*
X002186Y034624D01*
X002210Y034655D01*
X002237Y034684D01*
X002266Y034710D01*
X002298Y034733D01*
X002332Y034753D01*
X002368Y034769D01*
X002405Y034781D01*
X002444Y034790D01*
X002483Y034795D01*
X002522Y034796D01*
X002561Y034793D01*
X002600Y034786D01*
X002637Y034775D01*
X002674Y034761D01*
X002709Y034743D01*
X002742Y034722D01*
X002773Y034697D01*
X002801Y034670D01*
X002826Y034640D01*
X002848Y034607D01*
X002867Y034573D01*
X002882Y034537D01*
X002894Y034499D01*
X002902Y034461D01*
X002906Y034422D01*
X002906Y034382D01*
X002902Y034343D01*
X002894Y034305D01*
X002882Y034267D01*
X002867Y034231D01*
X002848Y034197D01*
X002826Y034164D01*
X002801Y034134D01*
X002773Y034107D01*
X002742Y034082D01*
X002709Y034061D01*
X002674Y034043D01*
X002637Y034029D01*
X002600Y034018D01*
X002561Y034011D01*
X002522Y034008D01*
X002483Y034009D01*
X002444Y034014D01*
X002405Y034023D01*
X002368Y034035D01*
X002332Y034051D01*
X002298Y034071D01*
X002266Y034094D01*
X002237Y034120D01*
X002210Y034149D01*
X002186Y034180D01*
X002166Y034214D01*
X002149Y034249D01*
X002136Y034286D01*
X002126Y034324D01*
X002120Y034363D01*
X002118Y034402D01*
X003705Y035819D02*
X003705Y037000D01*
X004099Y037000D01*
X004099Y035819D01*
X003705Y035819D01*
X005142Y035445D02*
X006520Y035445D01*
X006520Y035052D01*
X005142Y035052D01*
X005142Y035445D01*
X005241Y037414D02*
X005241Y037807D01*
X006422Y037807D01*
X006422Y037414D01*
X005241Y037414D01*
X001331Y039892D02*
X023331Y039892D01*
X023331Y047642D01*
X001331Y047642D01*
X001331Y039892D01*
X021803Y034402D02*
X021805Y034441D01*
X021811Y034480D01*
X021821Y034518D01*
X021834Y034555D01*
X021851Y034590D01*
X021871Y034624D01*
X021895Y034655D01*
X021922Y034684D01*
X021951Y034710D01*
X021983Y034733D01*
X022017Y034753D01*
X022053Y034769D01*
X022090Y034781D01*
X022129Y034790D01*
X022168Y034795D01*
X022207Y034796D01*
X022246Y034793D01*
X022285Y034786D01*
X022322Y034775D01*
X022359Y034761D01*
X022394Y034743D01*
X022427Y034722D01*
X022458Y034697D01*
X022486Y034670D01*
X022511Y034640D01*
X022533Y034607D01*
X022552Y034573D01*
X022567Y034537D01*
X022579Y034499D01*
X022587Y034461D01*
X022591Y034422D01*
X022591Y034382D01*
X022587Y034343D01*
X022579Y034305D01*
X022567Y034267D01*
X022552Y034231D01*
X022533Y034197D01*
X022511Y034164D01*
X022486Y034134D01*
X022458Y034107D01*
X022427Y034082D01*
X022394Y034061D01*
X022359Y034043D01*
X022322Y034029D01*
X022285Y034018D01*
X022246Y034011D01*
X022207Y034008D01*
X022168Y034009D01*
X022129Y034014D01*
X022090Y034023D01*
X022053Y034035D01*
X022017Y034051D01*
X021983Y034071D01*
X021951Y034094D01*
X021922Y034120D01*
X021895Y034149D01*
X021871Y034180D01*
X021851Y034214D01*
X021834Y034249D01*
X021821Y034286D01*
X021811Y034324D01*
X021805Y034363D01*
X021803Y034402D01*
X021803Y014323D02*
X021805Y014362D01*
X021811Y014401D01*
X021821Y014439D01*
X021834Y014476D01*
X021851Y014511D01*
X021871Y014545D01*
X021895Y014576D01*
X021922Y014605D01*
X021951Y014631D01*
X021983Y014654D01*
X022017Y014674D01*
X022053Y014690D01*
X022090Y014702D01*
X022129Y014711D01*
X022168Y014716D01*
X022207Y014717D01*
X022246Y014714D01*
X022285Y014707D01*
X022322Y014696D01*
X022359Y014682D01*
X022394Y014664D01*
X022427Y014643D01*
X022458Y014618D01*
X022486Y014591D01*
X022511Y014561D01*
X022533Y014528D01*
X022552Y014494D01*
X022567Y014458D01*
X022579Y014420D01*
X022587Y014382D01*
X022591Y014343D01*
X022591Y014303D01*
X022587Y014264D01*
X022579Y014226D01*
X022567Y014188D01*
X022552Y014152D01*
X022533Y014118D01*
X022511Y014085D01*
X022486Y014055D01*
X022458Y014028D01*
X022427Y014003D01*
X022394Y013982D01*
X022359Y013964D01*
X022322Y013950D01*
X022285Y013939D01*
X022246Y013932D01*
X022207Y013929D01*
X022168Y013930D01*
X022129Y013935D01*
X022090Y013944D01*
X022053Y013956D01*
X022017Y013972D01*
X021983Y013992D01*
X021951Y014015D01*
X021922Y014041D01*
X021895Y014070D01*
X021871Y014101D01*
X021851Y014135D01*
X021834Y014170D01*
X021821Y014207D01*
X021811Y014245D01*
X021805Y014284D01*
X021803Y014323D01*
D11*
X023331Y039706D02*
X001331Y039706D01*
M02*
