G75*
G70*
%OFA0B0*%
%FSLAX24Y24*%
%IPPOS*%
%LPD*%
%AMOC8*
5,1,8,0,0,1.08239X$1,22.5*
%
%ADD10C,0.0000*%
%ADD11R,0.0512X0.0591*%
%ADD12R,0.0591X0.0512*%
%ADD13R,0.0394X0.0551*%
%ADD14R,0.0866X0.0236*%
%ADD15R,0.0551X0.0394*%
%ADD16R,0.0630X0.1181*%
%ADD17R,0.2441X0.2126*%
%ADD18R,0.0630X0.0394*%
%ADD19R,0.0709X0.0551*%
%ADD20R,0.0197X0.0276*%
%ADD21R,0.0472X0.1000*%
D10*
X001331Y013142D02*
X001331Y039520D01*
X023378Y039520D01*
X023378Y013142D01*
X019835Y013142D01*
X019048Y013930D01*
X013930Y013930D01*
X013142Y014717D01*
X011567Y014717D01*
X010780Y013930D01*
X005662Y013930D01*
X004874Y013142D01*
X001331Y013142D01*
X002118Y014323D02*
X002120Y014362D01*
X002126Y014401D01*
X002136Y014439D01*
X002149Y014476D01*
X002166Y014511D01*
X002186Y014545D01*
X002210Y014576D01*
X002237Y014605D01*
X002266Y014631D01*
X002298Y014654D01*
X002332Y014674D01*
X002368Y014690D01*
X002405Y014702D01*
X002444Y014711D01*
X002483Y014716D01*
X002522Y014717D01*
X002561Y014714D01*
X002600Y014707D01*
X002637Y014696D01*
X002674Y014682D01*
X002709Y014664D01*
X002742Y014643D01*
X002773Y014618D01*
X002801Y014591D01*
X002826Y014561D01*
X002848Y014528D01*
X002867Y014494D01*
X002882Y014458D01*
X002894Y014420D01*
X002902Y014382D01*
X002906Y014343D01*
X002906Y014303D01*
X002902Y014264D01*
X002894Y014226D01*
X002882Y014188D01*
X002867Y014152D01*
X002848Y014118D01*
X002826Y014085D01*
X002801Y014055D01*
X002773Y014028D01*
X002742Y014003D01*
X002709Y013982D01*
X002674Y013964D01*
X002637Y013950D01*
X002600Y013939D01*
X002561Y013932D01*
X002522Y013929D01*
X002483Y013930D01*
X002444Y013935D01*
X002405Y013944D01*
X002368Y013956D01*
X002332Y013972D01*
X002298Y013992D01*
X002266Y014015D01*
X002237Y014041D01*
X002210Y014070D01*
X002186Y014101D01*
X002166Y014135D01*
X002149Y014170D01*
X002136Y014207D01*
X002126Y014245D01*
X002120Y014284D01*
X002118Y014323D01*
X002118Y034402D02*
X002120Y034441D01*
X002126Y034480D01*
X002136Y034518D01*
X002149Y034555D01*
X002166Y034590D01*
X002186Y034624D01*
X002210Y034655D01*
X002237Y034684D01*
X002266Y034710D01*
X002298Y034733D01*
X002332Y034753D01*
X002368Y034769D01*
X002405Y034781D01*
X002444Y034790D01*
X002483Y034795D01*
X002522Y034796D01*
X002561Y034793D01*
X002600Y034786D01*
X002637Y034775D01*
X002674Y034761D01*
X002709Y034743D01*
X002742Y034722D01*
X002773Y034697D01*
X002801Y034670D01*
X002826Y034640D01*
X002848Y034607D01*
X002867Y034573D01*
X002882Y034537D01*
X002894Y034499D01*
X002902Y034461D01*
X002906Y034422D01*
X002906Y034382D01*
X002902Y034343D01*
X002894Y034305D01*
X002882Y034267D01*
X002867Y034231D01*
X002848Y034197D01*
X002826Y034164D01*
X002801Y034134D01*
X002773Y034107D01*
X002742Y034082D01*
X002709Y034061D01*
X002674Y034043D01*
X002637Y034029D01*
X002600Y034018D01*
X002561Y034011D01*
X002522Y034008D01*
X002483Y034009D01*
X002444Y034014D01*
X002405Y034023D01*
X002368Y034035D01*
X002332Y034051D01*
X002298Y034071D01*
X002266Y034094D01*
X002237Y034120D01*
X002210Y034149D01*
X002186Y034180D01*
X002166Y034214D01*
X002149Y034249D01*
X002136Y034286D01*
X002126Y034324D01*
X002120Y034363D01*
X002118Y034402D01*
X001331Y039892D02*
X023331Y039892D01*
X023331Y047642D01*
X001331Y047642D01*
X001331Y039892D01*
X021803Y034402D02*
X021805Y034441D01*
X021811Y034480D01*
X021821Y034518D01*
X021834Y034555D01*
X021851Y034590D01*
X021871Y034624D01*
X021895Y034655D01*
X021922Y034684D01*
X021951Y034710D01*
X021983Y034733D01*
X022017Y034753D01*
X022053Y034769D01*
X022090Y034781D01*
X022129Y034790D01*
X022168Y034795D01*
X022207Y034796D01*
X022246Y034793D01*
X022285Y034786D01*
X022322Y034775D01*
X022359Y034761D01*
X022394Y034743D01*
X022427Y034722D01*
X022458Y034697D01*
X022486Y034670D01*
X022511Y034640D01*
X022533Y034607D01*
X022552Y034573D01*
X022567Y034537D01*
X022579Y034499D01*
X022587Y034461D01*
X022591Y034422D01*
X022591Y034382D01*
X022587Y034343D01*
X022579Y034305D01*
X022567Y034267D01*
X022552Y034231D01*
X022533Y034197D01*
X022511Y034164D01*
X022486Y034134D01*
X022458Y034107D01*
X022427Y034082D01*
X022394Y034061D01*
X022359Y034043D01*
X022322Y034029D01*
X022285Y034018D01*
X022246Y034011D01*
X022207Y034008D01*
X022168Y034009D01*
X022129Y034014D01*
X022090Y034023D01*
X022053Y034035D01*
X022017Y034051D01*
X021983Y034071D01*
X021951Y034094D01*
X021922Y034120D01*
X021895Y034149D01*
X021871Y034180D01*
X021851Y034214D01*
X021834Y034249D01*
X021821Y034286D01*
X021811Y034324D01*
X021805Y034363D01*
X021803Y034402D01*
X021803Y014323D02*
X021805Y014362D01*
X021811Y014401D01*
X021821Y014439D01*
X021834Y014476D01*
X021851Y014511D01*
X021871Y014545D01*
X021895Y014576D01*
X021922Y014605D01*
X021951Y014631D01*
X021983Y014654D01*
X022017Y014674D01*
X022053Y014690D01*
X022090Y014702D01*
X022129Y014711D01*
X022168Y014716D01*
X022207Y014717D01*
X022246Y014714D01*
X022285Y014707D01*
X022322Y014696D01*
X022359Y014682D01*
X022394Y014664D01*
X022427Y014643D01*
X022458Y014618D01*
X022486Y014591D01*
X022511Y014561D01*
X022533Y014528D01*
X022552Y014494D01*
X022567Y014458D01*
X022579Y014420D01*
X022587Y014382D01*
X022591Y014343D01*
X022591Y014303D01*
X022587Y014264D01*
X022579Y014226D01*
X022567Y014188D01*
X022552Y014152D01*
X022533Y014118D01*
X022511Y014085D01*
X022486Y014055D01*
X022458Y014028D01*
X022427Y014003D01*
X022394Y013982D01*
X022359Y013964D01*
X022322Y013950D01*
X022285Y013939D01*
X022246Y013932D01*
X022207Y013929D01*
X022168Y013930D01*
X022129Y013935D01*
X022090Y013944D01*
X022053Y013956D01*
X022017Y013972D01*
X021983Y013992D01*
X021951Y014015D01*
X021922Y014041D01*
X021895Y014070D01*
X021871Y014101D01*
X021851Y014135D01*
X021834Y014170D01*
X021821Y014207D01*
X021811Y014245D01*
X021805Y014284D01*
X021803Y014323D01*
D11*
X020455Y026142D03*
X020455Y027142D03*
X019707Y027142D03*
X019707Y026142D03*
X018205Y026142D03*
X018205Y027142D03*
X017457Y027142D03*
X017457Y026142D03*
X017105Y028542D03*
X017105Y029342D03*
X017105Y030142D03*
X017105Y030942D03*
X017105Y031742D03*
X016357Y031742D03*
X016357Y030942D03*
X016357Y030142D03*
X016357Y029342D03*
X016357Y028542D03*
X011805Y028542D03*
X011057Y028542D03*
X010705Y035642D03*
X009957Y035642D03*
X016457Y038642D03*
X017205Y038642D03*
X021557Y030142D03*
X021557Y029342D03*
X021557Y028542D03*
X022305Y028542D03*
X022305Y029342D03*
X022305Y030142D03*
X004705Y018142D03*
X003957Y018142D03*
X002955Y018142D03*
X002955Y019142D03*
X002207Y019142D03*
X002207Y018142D03*
X002207Y036142D03*
X002207Y037142D03*
X002955Y037142D03*
X002955Y036142D03*
D12*
X004831Y029516D03*
X004831Y028768D03*
X005831Y028768D03*
X005831Y029516D03*
X008081Y030268D03*
X008081Y031016D03*
X009081Y031016D03*
X009081Y030268D03*
X009331Y023516D03*
X009331Y022768D03*
X008331Y022768D03*
X008331Y023516D03*
X007331Y023516D03*
X007331Y022768D03*
X006331Y022768D03*
X006331Y023516D03*
X005331Y023516D03*
X005331Y022768D03*
X004331Y022768D03*
X004331Y023516D03*
X003331Y023516D03*
X003331Y022768D03*
X002331Y022768D03*
X002331Y023516D03*
X012331Y023516D03*
X012331Y022768D03*
X013331Y022768D03*
X013331Y023516D03*
X014331Y023516D03*
X014331Y022768D03*
X015331Y022768D03*
X015331Y023516D03*
X016331Y023516D03*
X016331Y022768D03*
X017331Y022768D03*
X017331Y023516D03*
X013331Y030768D03*
X013331Y031516D03*
D13*
X012455Y030709D03*
X012081Y031575D03*
X011707Y030709D03*
X002955Y037959D03*
X002581Y038825D03*
X002207Y037959D03*
X002581Y020825D03*
X002207Y019959D03*
X002955Y019959D03*
D14*
X018307Y028642D03*
X018307Y029142D03*
X018307Y029642D03*
X018307Y030142D03*
X018307Y030642D03*
X018307Y031142D03*
X018307Y031642D03*
X020355Y031642D03*
X020355Y031142D03*
X020355Y030642D03*
X020355Y030142D03*
X020355Y029642D03*
X020355Y029142D03*
X020355Y028642D03*
D15*
X017270Y020639D03*
X016404Y020265D03*
X016404Y021013D03*
D16*
X020581Y022776D03*
X020581Y024508D03*
X003081Y029526D03*
X003081Y031258D03*
D17*
X012597Y034892D03*
D18*
X015471Y033994D03*
X015471Y035790D03*
D19*
X022081Y020061D03*
X022081Y018723D03*
D20*
X021981Y030780D03*
X022355Y030780D03*
X022355Y031804D03*
X021981Y031804D03*
X021607Y031804D03*
X021607Y030780D03*
D21*
X010823Y034392D03*
X009839Y034392D03*
M02*
